{"glyphs":{"0":{"ha":1504,"x_min":42,"x_max":1463,"o":"m 42 836 q 71 1126 42 993 q 160 1360 100 1258 q 503 1632 278 1563 q 753 1667 617 1667 q 1001 1632 886 1667 q 1201 1529 1115 1597 q 1433 1129 1375 1389 q 1455 990 1447 1063 q 1463 836 1463 917 q 1433 540 1463 676 q 1346 300 1404 404 q 1004 22 1228 90 q 753 -14 889 -14 q 303 126 476 -14 q 159 301 218 194 q 72 538 100 408 q 49 679 57 604 q 42 836 42 754 m 368 833 q 385 650 368 736 q 433 501 401 564 q 519 386 469 426 q 618 328 569 346 q 754 306 679 306 q 885 327 824 306 q 994 394 946 349 q 1072 502 1040 438 q 1119 649 1103 567 q 1136 833 1136 732 q 1119 1010 1136 926 q 1072 1156 1103 1093 q 888 1325 1007 1281 q 754 1347 828 1347 q 513 1261 608 1347 q 433 1153 464 1215 q 385 1013 401 1092 q 368 833 368 932 z "},"1":{"ha":632,"x_min":14,"x_max":549,"o":"m 14 1653 l 549 1653 l 549 0 l 222 0 l 222 1347 l 14 1347 l 14 1653 z "},"2":{"ha":910,"x_min":42,"x_max":868,"o":"m 42 0 l 42 188 q 50 285 42 242 q 78 381 58 329 q 135 497 100 438 q 225 638 171 556 q 285 724 251 678 q 357 825 318 771 q 425 925 393 878 q 475 1008 457 972 q 505 1078 492 1043 q 524 1150 518 1114 q 526 1184 525 1167 q 528 1221 528 1201 q 508 1336 528 1297 q 446 1375 489 1375 q 361 1222 361 1375 l 361 1157 l 56 1157 l 56 1279 q 71 1414 56 1351 q 121 1526 86 1476 q 313 1651 186 1621 q 380 1663 344 1658 q 456 1667 415 1667 q 600 1650 535 1667 q 714 1599 665 1633 q 793 1508 764 1561 q 839 1386 822 1454 q 851 1309 847 1350 q 854 1222 854 1268 q 845 1094 854 1156 q 815 969 836 1032 q 760 841 794 907 q 672 694 725 775 q 615 612 646 654 q 550 522 585 569 q 460 396 499 451 q 404 306 422 340 l 868 306 l 868 0 l 42 0 z "},"3":{"ha":958,"x_min":42,"x_max":917,"o":"m 457 278 q 499 285 476 278 q 540 315 521 293 q 564 352 550 326 q 585 421 578 378 q 590 496 590 454 q 585 568 590 533 q 568 631 579 603 q 541 674 558 653 q 504 703 524 694 q 482 710 493 707 q 458 713 471 713 l 315 713 l 315 1004 l 438 1004 q 478 1013 458 1004 q 511 1036 499 1021 q 535 1074 526 1056 q 550 1126 543 1092 q 556 1189 556 1154 q 526 1324 556 1274 q 447 1375 497 1375 q 418 1369 432 1375 q 393 1350 404 1364 q 365 1276 374 1325 q 362 1251 363 1264 q 361 1222 361 1238 l 361 1157 l 56 1157 l 56 1279 q 74 1411 56 1349 q 128 1519 93 1474 q 332 1650 200 1614 q 476 1667 396 1667 q 722 1592 618 1667 q 863 1393 822 1519 q 882 1260 882 1332 q 868 1145 882 1199 q 829 1049 854 1092 q 769 974 806 1007 q 689 918 732 940 q 642 899 667 907 q 593 886 618 892 l 593 864 q 790 775 711 847 q 858 688 829 738 q 901 574 888 638 q 913 507 908 542 q 917 435 917 472 q 884 256 917 338 q 792 114 851 174 q 649 19 729 51 q 472 -14 568 -14 q 328 3 397 -14 q 206 54 260 19 q 61 242 97 121 q 42 374 42 303 l 42 496 l 347 496 l 347 431 q 352 378 347 400 q 367 338 357 357 q 389 306 374 321 q 419 285 404 290 q 438 280 428 282 q 457 278 447 278 z "},"4":{"ha":939,"x_min":14,"x_max":939,"o":"m 501 454 l 14 454 l 14 681 l 286 1653 l 828 1653 l 828 746 l 939 746 l 939 454 l 828 454 l 828 0 l 501 0 l 501 454 m 501 746 l 501 1344 q 502 1374 501 1364 q 506 1408 503 1383 q 508 1444 507 1428 q 513 1485 508 1460 q 515 1506 514 1494 q 518 1525 517 1515 l 501 1525 q 497 1490 499 1507 q 492 1454 494 1472 q 488 1428 489 1435 q 485 1418 486 1421 q 483 1408 485 1415 q 479 1381 482 1401 q 476 1364 478 1372 q 472 1347 474 1356 l 342 746 l 501 746 z "},"5":{"ha":951,"x_min":42,"x_max":910,"o":"m 125 1653 l 793 1653 l 793 1347 l 364 1347 l 335 1038 q 373 1048 353 1043 q 410 1056 393 1053 q 444 1060 432 1060 q 481 1064 457 1061 q 497 1064 489 1064 l 515 1064 q 769 996 676 1064 q 849 905 819 958 q 894 783 878 851 q 906 707 903 747 q 910 621 910 667 l 910 374 q 835 131 910 229 q 747 53 800 86 q 622 3 693 19 q 469 -14 553 -14 q 204 54 313 -14 q 61 242 97 119 q 42 374 42 303 l 42 524 l 347 524 l 347 410 q 353 364 347 383 q 369 329 360 344 q 394 301 379 311 q 426 285 408 290 q 465 278 442 278 q 508 285 490 278 q 538 301 526 292 q 578 367 567 325 q 583 410 583 386 l 583 621 q 576 694 583 665 q 556 746 569 722 q 471 807 528 792 q 441 812 457 810 q 407 814 425 814 q 311 803 361 814 q 215 772 261 792 l 56 869 l 125 1653 z "},"6":{"ha":986,"x_min":49,"x_max":938,"o":"m 49 381 l 49 1222 q 65 1383 49 1308 q 114 1510 81 1458 q 317 1650 182 1618 q 472 1667 386 1667 q 896 1279 896 1667 l 896 1157 l 590 1157 l 590 1222 q 586 1275 590 1247 q 574 1321 582 1303 q 521 1369 558 1353 q 481 1375 506 1375 q 435 1366 451 1375 q 413 1351 418 1357 q 390 1317 397 1336 q 379 1278 382 1299 q 376 1251 376 1265 q 375 1222 375 1238 l 375 933 q 604 994 472 994 q 722 980 671 994 q 814 939 774 965 q 924 782 897 882 q 938 667 938 731 l 938 381 q 919 251 938 313 q 864 140 901 190 q 647 6 790 40 q 571 -9 611 -4 q 486 -14 531 -14 q 204 54 313 -14 q 117 136 153 86 q 65 246 82 186 q 49 381 49 307 m 611 411 l 611 611 q 581 710 611 672 q 494 744 551 744 q 421 721 450 744 q 394 690 403 706 q 381 657 385 674 q 375 611 375 636 l 375 411 q 380 368 375 390 q 396 329 385 346 q 422 301 407 314 q 454 283 436 289 q 494 278 471 278 q 581 314 551 278 q 611 411 611 350 z "},"7":{"ha":765,"x_min":14,"x_max":751,"o":"m 751 1653 l 751 1426 l 446 0 l 119 0 l 408 1347 l 14 1347 l 14 1653 l 751 1653 z "},"8":{"ha":972,"x_min":42,"x_max":931,"o":"m 931 601 l 931 382 q 912 248 931 308 q 857 140 893 188 q 640 6 783 40 q 564 -9 604 -4 q 479 -14 524 -14 q 197 54 306 -14 q 110 137 146 86 q 58 247 74 188 q 42 382 42 310 l 42 601 q 48 684 42 647 q 69 760 54 721 q 103 822 83 794 q 153 876 122 850 q 217 917 182 901 q 69 1163 69 997 l 69 1326 q 135 1529 69 1444 q 218 1604 168 1574 q 331 1650 268 1635 q 479 1667 397 1667 q 629 1650 564 1667 q 749 1601 694 1633 q 835 1526 801 1569 q 886 1435 868 1483 q 903 1326 903 1385 l 903 1163 q 863 1019 903 1082 q 743 917 822 956 q 810 875 782 897 q 864 821 838 853 q 901 755 886 792 q 924 683 917 718 q 928 643 926 664 q 931 601 931 622 m 396 1271 l 396 1121 q 411 1056 396 1078 q 431 1033 422 1039 q 456 1022 439 1026 q 488 1017 472 1017 q 576 1121 576 1017 l 576 1271 q 488 1375 576 1375 q 453 1370 469 1375 q 429 1358 438 1365 q 413 1339 421 1353 q 400 1308 404 1325 q 397 1290 397 1300 q 396 1271 396 1281 m 368 656 l 368 411 q 389 332 368 364 q 447 285 413 297 q 488 278 463 278 q 531 285 515 278 q 561 303 546 292 q 584 331 572 311 q 600 368 596 351 q 604 411 604 390 l 604 656 q 599 698 604 676 q 585 736 594 719 q 560 763 574 751 q 529 783 547 775 q 488 789 513 789 q 448 783 467 789 q 414 764 429 778 q 390 737 400 751 q 374 699 381 722 q 368 656 368 679 z "},"9":{"ha":979,"x_min":42,"x_max":931,"o":"m 83 351 l 83 510 l 389 510 l 389 425 q 393 376 389 401 q 408 333 397 351 q 431 301 418 313 q 461 285 443 290 q 499 278 476 278 q 604 431 604 278 l 604 761 q 375 700 507 700 q 257 715 308 700 q 167 756 206 729 q 56 914 82 813 q 42 1028 42 964 l 42 1272 q 115 1514 42 1414 q 332 1649 189 1613 q 408 1662 368 1657 q 493 1667 449 1667 q 775 1599 667 1667 q 862 1517 826 1567 q 914 1407 897 1467 q 931 1272 931 1346 l 931 431 q 506 -14 931 -14 q 356 2 424 -14 q 242 47 289 18 q 154 122 192 76 q 101 224 117 168 q 88 285 93 253 q 83 351 83 317 m 368 1242 l 368 1083 q 399 986 368 1022 q 485 950 428 950 q 558 974 529 950 q 585 1005 576 989 q 599 1039 594 1021 q 604 1083 604 1058 l 604 1242 q 599 1285 604 1263 q 583 1324 594 1307 q 558 1351 572 1339 q 526 1369 543 1364 q 485 1375 508 1375 q 399 1340 428 1375 q 368 1242 368 1303 z "},"A":{"ha":1011,"x_min":14,"x_max":997,"o":"m 14 0 l 272 1653 l 739 1653 l 997 0 l 671 0 l 622 379 l 389 379 l 340 0 l 14 0 m 428 685 l 583 685 l 528 1203 q 524 1260 525 1235 q 521 1316 522 1286 q 519 1389 519 1346 l 492 1389 l 492 1349 q 492 1329 492 1339 q 490 1308 490 1318 q 489 1280 490 1294 q 488 1251 488 1265 q 483 1203 488 1224 l 428 685 z "},"Á":{"ha":1011,"x_min":14,"x_max":997,"o":"m 14 0 l 272 1653 l 739 1653 l 997 0 l 671 0 l 622 379 l 389 379 l 340 0 l 14 0 m 428 685 l 583 685 l 528 1203 q 524 1260 525 1235 q 521 1316 522 1286 q 519 1389 519 1346 l 492 1389 l 492 1349 q 492 1329 492 1339 q 490 1308 490 1318 q 489 1280 490 1294 q 488 1251 488 1265 q 483 1203 488 1224 l 428 685 m 568 1736 l 329 1736 l 521 2168 l 822 2168 l 568 1736 z "},"Ă":{"ha":1011,"x_min":14,"x_max":997,"o":"m 14 0 l 272 1653 l 739 1653 l 997 0 l 671 0 l 622 379 l 389 379 l 340 0 l 14 0 m 428 685 l 583 685 l 528 1203 q 524 1260 525 1235 q 521 1316 522 1286 q 519 1389 519 1346 l 492 1389 l 492 1349 q 492 1329 492 1339 q 490 1308 490 1318 q 489 1280 490 1294 q 488 1251 488 1265 q 483 1203 488 1224 l 428 685 m 604 2058 l 811 2058 q 794 1948 811 1996 q 754 1868 776 1900 q 691 1799 728 1829 q 606 1753 654 1768 q 506 1736 557 1736 q 325 1799 401 1736 q 219 1956 250 1858 q 204 2058 204 2000 l 411 2058 q 429 1996 411 2022 q 451 1971 440 1979 q 476 1957 463 1963 q 507 1951 490 1951 q 538 1956 521 1951 q 565 1972 554 1961 q 600 2025 592 1994 q 604 2058 604 2042 z "},"Â":{"ha":1011,"x_min":14,"x_max":997,"o":"m 14 0 l 272 1653 l 739 1653 l 997 0 l 671 0 l 622 379 l 389 379 l 340 0 l 14 0 m 428 685 l 583 685 l 528 1203 q 524 1260 525 1235 q 521 1316 522 1286 q 519 1389 519 1346 l 492 1389 l 492 1349 q 492 1329 492 1339 q 490 1308 490 1318 q 489 1280 490 1294 q 488 1251 488 1265 q 483 1203 488 1224 l 428 685 m 156 1736 l 336 2160 l 675 2160 l 856 1736 l 629 1736 l 507 1951 l 383 1736 l 156 1736 z "},"Ä":{"ha":1011,"x_min":14,"x_max":997,"o":"m 14 0 l 272 1653 l 739 1653 l 997 0 l 671 0 l 622 379 l 389 379 l 340 0 l 14 0 m 428 685 l 583 685 l 528 1203 q 524 1260 525 1235 q 521 1316 522 1286 q 519 1389 519 1346 l 492 1389 l 492 1349 q 492 1329 492 1339 q 490 1308 490 1318 q 489 1280 490 1294 q 488 1251 488 1265 q 483 1203 488 1224 l 428 685 m 131 1904 q 161 2003 131 1960 q 239 2060 190 2043 q 290 2068 264 2068 q 385 2038 342 2068 q 420 2002 407 2022 q 442 1957 433 1982 q 450 1904 450 1932 q 421 1806 450 1849 q 386 1768 408 1785 q 343 1744 364 1751 q 290 1736 319 1736 q 235 1746 257 1736 q 196 1769 214 1756 q 139 1851 157 1797 q 131 1904 131 1876 m 556 1904 q 586 2003 556 1960 q 664 2060 615 2043 q 715 2068 689 2068 q 810 2038 767 2068 q 845 2002 832 2022 q 867 1957 858 1982 q 875 1904 875 1932 q 846 1806 875 1849 q 811 1768 833 1785 q 768 1744 789 1751 q 715 1736 744 1736 q 660 1746 682 1736 q 621 1769 639 1756 q 564 1851 582 1797 q 556 1904 556 1876 z "},"À":{"ha":1011,"x_min":14,"x_max":997,"o":"m 14 0 l 272 1653 l 739 1653 l 997 0 l 671 0 l 622 379 l 389 379 l 340 0 l 14 0 m 428 685 l 583 685 l 528 1203 q 524 1260 525 1235 q 521 1316 522 1286 q 519 1389 519 1346 l 492 1389 l 492 1349 q 492 1329 492 1339 q 490 1308 490 1318 q 489 1280 490 1294 q 488 1251 488 1265 q 483 1203 488 1224 l 428 685 m 433 1736 l 179 2168 l 481 2168 l 672 1736 l 433 1736 z "},"Ā":{"ha":1011,"x_min":14,"x_max":997,"o":"m 14 0 l 272 1653 l 739 1653 l 997 0 l 671 0 l 622 379 l 389 379 l 340 0 l 14 0 m 428 685 l 583 685 l 528 1203 q 524 1260 525 1235 q 521 1316 522 1286 q 519 1389 519 1346 l 492 1389 l 492 1349 q 492 1329 492 1339 q 490 1308 490 1318 q 489 1280 490 1294 q 488 1251 488 1265 q 483 1203 488 1224 l 428 685 m 211 1764 l 211 2014 l 799 2014 l 799 1764 l 211 1764 z "},"Ą":{"ha":1011,"x_min":14,"x_max":997,"o":"m 14 0 l 272 1653 l 739 1653 l 997 0 l 671 0 l 622 379 l 389 379 l 340 0 l 14 0 m 428 685 l 583 685 l 528 1203 q 524 1260 525 1235 q 521 1316 522 1286 q 519 1389 519 1346 l 492 1389 l 492 1349 q 492 1329 492 1339 q 490 1308 490 1318 q 489 1280 490 1294 q 488 1251 488 1265 q 483 1203 488 1224 l 428 685 m 967 -276 l 967 -482 q 844 -471 899 -482 q 746 -440 790 -460 q 665 -392 694 -419 q 619 -331 636 -364 q 601 -257 601 -297 q 643 -119 601 -185 q 692 -61 663 -87 q 756 -14 722 -35 q 832 18 792 7 l 997 0 q 943 -20 965 -10 q 894 -51 921 -31 q 831 -133 847 -89 q 822 -179 822 -156 q 831 -219 822 -204 q 847 -240 840 -235 q 879 -261 860 -253 q 917 -272 899 -269 q 940 -276 928 -275 q 967 -276 953 -276 z "},"Å":{"ha":1011,"x_min":14,"x_max":997,"o":"m 14 0 l 272 1653 l 739 1653 l 997 0 l 671 0 l 622 379 l 389 379 l 340 0 l 14 0 m 428 685 l 583 685 l 528 1203 q 524 1260 525 1235 q 521 1316 522 1286 q 519 1389 519 1346 l 492 1389 l 492 1349 q 492 1329 492 1339 q 490 1308 490 1318 q 489 1280 490 1294 q 488 1251 488 1265 q 483 1203 488 1224 l 428 685 m 271 1985 q 315 2128 271 2065 q 367 2180 336 2158 q 429 2211 397 2201 q 504 2222 465 2222 q 580 2211 543 2222 q 644 2178 617 2200 q 694 2128 674 2154 q 728 2063 715 2101 q 739 1985 739 2026 q 696 1836 739 1900 q 646 1784 676 1808 q 581 1749 615 1760 q 544 1740 563 1743 q 504 1736 525 1736 q 428 1749 463 1736 q 365 1783 393 1763 q 282 1906 304 1829 q 271 1985 271 1943 m 447 1979 q 458 1939 447 1956 q 469 1925 463 1932 q 488 1915 476 1918 q 506 1913 497 1913 q 542 1925 525 1913 q 561 1958 556 1936 q 564 1979 564 1968 q 553 2019 564 2003 q 542 2033 549 2026 q 525 2043 535 2040 q 506 2046 514 2046 q 471 2033 486 2046 q 450 2001 456 2022 q 447 1979 447 1990 z "},"Ã":{"ha":1011,"x_min":14,"x_max":997,"o":"m 14 0 l 272 1653 l 739 1653 l 997 0 l 671 0 l 622 379 l 389 379 l 340 0 l 14 0 m 428 685 l 583 685 l 528 1203 q 524 1260 525 1235 q 521 1316 522 1286 q 519 1389 519 1346 l 492 1389 l 492 1349 q 492 1329 492 1339 q 490 1308 490 1318 q 489 1280 490 1294 q 488 1251 488 1265 q 483 1203 488 1224 l 428 685 m 381 1736 l 171 1736 q 200 1938 171 1858 q 236 2000 213 1971 q 288 2042 260 2029 q 350 2054 318 2054 q 411 2044 383 2054 q 463 2022 439 2033 q 506 1997 485 2011 q 550 1971 526 1982 q 567 1964 558 1967 q 583 1961 575 1961 q 624 1988 608 1961 q 639 2054 639 2015 l 847 2054 q 667 1736 847 1736 q 612 1744 640 1736 q 554 1769 583 1751 q 514 1797 536 1781 q 474 1821 492 1813 q 438 1831 451 1831 q 403 1814 415 1831 q 390 1794 394 1804 q 383 1768 386 1783 q 381 1736 381 1754 z "},"Æ":{"ha":1400,"x_min":14,"x_max":1358,"o":"m 14 0 l 272 1653 l 1351 1653 l 1351 1347 l 990 1347 l 990 1032 l 1324 1032 l 1324 726 l 990 726 l 990 306 l 1358 306 l 1358 0 l 664 0 l 664 379 l 389 379 l 340 0 l 14 0 m 428 685 l 664 685 l 664 1347 l 504 1347 l 428 685 z "},"B":{"ha":1021,"x_min":83,"x_max":979,"o":"m 951 1253 q 876 999 951 1085 q 635 886 801 914 l 635 864 q 755 835 700 856 q 853 776 810 814 q 924 689 894 740 q 965 581 953 638 q 979 442 979 518 q 962 292 979 361 q 910 168 944 222 q 822 74 872 111 q 713 19 772 38 q 574 0 649 0 l 83 0 l 83 1653 l 561 1653 q 694 1635 632 1653 q 803 1585 756 1618 q 881 1504 849 1550 q 935 1392 914 1458 q 947 1325 943 1360 q 951 1253 951 1290 m 478 1347 l 410 1347 l 410 1004 l 478 1004 q 571 1035 535 1004 q 599 1068 588 1049 q 619 1117 611 1088 q 624 1145 622 1131 q 625 1175 625 1160 q 600 1282 625 1239 q 569 1317 588 1301 q 529 1340 551 1333 q 478 1347 503 1347 m 410 306 l 494 306 q 593 339 554 306 q 626 380 614 356 q 646 435 639 404 q 653 503 653 468 q 645 569 653 536 q 625 625 638 601 q 549 690 596 675 q 494 699 524 699 l 410 699 l 410 306 z "},"C":{"ha":1654,"x_min":42,"x_max":1613,"o":"m 368 824 q 390 660 368 739 q 457 510 411 581 q 558 400 497 447 q 690 331 618 353 q 847 306 765 306 q 1085 368 982 306 q 1240 540 1186 431 q 1263 597 1253 567 q 1279 658 1272 626 l 1613 658 q 1558 439 1601 538 q 1446 258 1514 340 q 1082 19 1303 86 q 850 -14 971 -14 q 606 24 729 -14 q 368 147 483 61 q 193 330 267 222 q 82 560 119 438 q 52 689 63 622 q 42 826 42 756 q 83 1097 42 971 q 194 1325 124 1222 q 379 1513 274 1438 q 590 1625 485 1589 q 717 1656 651 1644 q 850 1667 782 1667 q 1283 1540 1089 1667 q 1447 1394 1376 1479 q 1560 1211 1518 1308 q 1613 994 1601 1111 l 1279 994 q 1240 1113 1268 1057 q 1174 1211 1211 1169 q 1085 1284 1135 1253 q 975 1332 1035 1315 q 847 1347 913 1347 q 685 1320 758 1347 q 558 1253 611 1293 q 392 997 438 1157 q 374 913 379 957 q 368 824 368 869 z "},"Ć":{"ha":1654,"x_min":42,"x_max":1613,"o":"m 368 824 q 390 660 368 739 q 457 510 411 581 q 558 400 497 447 q 690 331 618 353 q 847 306 765 306 q 1085 368 982 306 q 1240 540 1186 431 q 1263 597 1253 567 q 1279 658 1272 626 l 1613 658 q 1558 439 1601 538 q 1446 258 1514 340 q 1082 19 1303 86 q 850 -14 971 -14 q 606 24 729 -14 q 368 147 483 61 q 193 330 267 222 q 82 560 119 438 q 52 689 63 622 q 42 826 42 756 q 83 1097 42 971 q 194 1325 124 1222 q 379 1513 274 1438 q 590 1625 485 1589 q 717 1656 651 1644 q 850 1667 782 1667 q 1283 1540 1089 1667 q 1447 1394 1376 1479 q 1560 1211 1518 1308 q 1613 994 1601 1111 l 1279 994 q 1240 1113 1268 1057 q 1174 1211 1211 1169 q 1085 1284 1135 1253 q 975 1332 1035 1315 q 847 1347 913 1347 q 685 1320 758 1347 q 558 1253 611 1293 q 392 997 438 1157 q 374 913 379 957 q 368 824 368 869 m 890 1736 l 651 1736 l 843 2168 l 1144 2168 l 890 1736 z "},"Č":{"ha":1654,"x_min":42,"x_max":1613,"o":"m 368 824 q 390 660 368 739 q 457 510 411 581 q 558 400 497 447 q 690 331 618 353 q 847 306 765 306 q 1085 368 982 306 q 1240 540 1186 431 q 1263 597 1253 567 q 1279 658 1272 626 l 1613 658 q 1558 439 1601 538 q 1446 258 1514 340 q 1082 19 1303 86 q 850 -14 971 -14 q 606 24 729 -14 q 368 147 483 61 q 193 330 267 222 q 82 560 119 438 q 52 689 63 622 q 42 826 42 756 q 83 1097 42 971 q 194 1325 124 1222 q 379 1513 274 1438 q 590 1625 485 1589 q 717 1656 651 1644 q 850 1667 782 1667 q 1283 1540 1089 1667 q 1447 1394 1376 1479 q 1560 1211 1518 1308 q 1613 994 1601 1111 l 1279 994 q 1240 1113 1268 1057 q 1174 1211 1211 1169 q 1085 1284 1135 1253 q 975 1332 1035 1315 q 847 1347 913 1347 q 685 1320 758 1347 q 558 1253 611 1293 q 392 997 438 1157 q 374 913 379 957 q 368 824 368 869 m 665 1736 l 490 2146 l 710 2146 l 828 1938 l 947 2146 l 1165 2146 l 992 1736 l 665 1736 z "},"Ç":{"ha":1654,"x_min":42,"x_max":1613,"o":"m 368 824 q 390 660 368 739 q 457 510 411 581 q 558 400 497 447 q 690 331 618 353 q 847 306 765 306 q 1085 368 982 306 q 1240 540 1186 431 q 1263 597 1253 567 q 1279 658 1272 626 l 1613 658 q 1558 439 1601 538 q 1446 258 1514 340 q 1082 19 1303 86 q 850 -14 971 -14 q 606 24 729 -14 q 368 147 483 61 q 193 330 267 222 q 82 560 119 438 q 52 689 63 622 q 42 826 42 756 q 83 1097 42 971 q 194 1325 124 1222 q 379 1513 274 1438 q 590 1625 485 1589 q 717 1656 651 1644 q 850 1667 782 1667 q 1283 1540 1089 1667 q 1447 1394 1376 1479 q 1560 1211 1518 1308 q 1613 994 1601 1111 l 1279 994 q 1240 1113 1268 1057 q 1174 1211 1211 1169 q 1085 1284 1135 1253 q 975 1332 1035 1315 q 847 1347 913 1347 q 685 1320 758 1347 q 558 1253 611 1293 q 392 997 438 1157 q 374 913 379 957 q 368 824 368 869 m 739 -276 l 738 -143 l 818 39 l 958 39 l 883 -133 q 937 -155 906 -139 q 1003 -200 968 -171 q 1043 -247 1026 -221 q 1069 -301 1060 -274 q 1078 -361 1078 -328 q 1008 -529 1078 -460 q 924 -587 974 -564 q 819 -622 875 -611 q 756 -632 789 -628 q 688 -636 722 -636 l 688 -428 q 822 -406 772 -428 q 872 -349 872 -385 q 849 -306 872 -322 q 822 -290 833 -294 q 783 -279 810 -285 q 762 -276 774 -276 q 739 -276 750 -276 z "},"Ĉ":{"ha":1654,"x_min":42,"x_max":1613,"o":"m 368 824 q 390 660 368 739 q 457 510 411 581 q 558 400 497 447 q 690 331 618 353 q 847 306 765 306 q 1085 368 982 306 q 1240 540 1186 431 q 1263 597 1253 567 q 1279 658 1272 626 l 1613 658 q 1558 439 1601 538 q 1446 258 1514 340 q 1082 19 1303 86 q 850 -14 971 -14 q 606 24 729 -14 q 368 147 483 61 q 193 330 267 222 q 82 560 119 438 q 52 689 63 622 q 42 826 42 756 q 83 1097 42 971 q 194 1325 124 1222 q 379 1513 274 1438 q 590 1625 485 1589 q 717 1656 651 1644 q 850 1667 782 1667 q 1283 1540 1089 1667 q 1447 1394 1376 1479 q 1560 1211 1518 1308 q 1613 994 1601 1111 l 1279 994 q 1240 1113 1268 1057 q 1174 1211 1211 1169 q 1085 1284 1135 1253 q 975 1332 1035 1315 q 847 1347 913 1347 q 685 1320 758 1347 q 558 1253 611 1293 q 392 997 438 1157 q 374 913 379 957 q 368 824 368 869 m 478 1736 l 658 2160 l 997 2160 l 1178 1736 l 951 1736 l 829 1951 l 706 1736 l 478 1736 z "},"Ċ":{"ha":1654,"x_min":42,"x_max":1613,"o":"m 368 824 q 390 660 368 739 q 457 510 411 581 q 558 400 497 447 q 690 331 618 353 q 847 306 765 306 q 1085 368 982 306 q 1240 540 1186 431 q 1263 597 1253 567 q 1279 658 1272 626 l 1613 658 q 1558 439 1601 538 q 1446 258 1514 340 q 1082 19 1303 86 q 850 -14 971 -14 q 606 24 729 -14 q 368 147 483 61 q 193 330 267 222 q 82 560 119 438 q 52 689 63 622 q 42 826 42 756 q 83 1097 42 971 q 194 1325 124 1222 q 379 1513 274 1438 q 590 1625 485 1589 q 717 1656 651 1644 q 850 1667 782 1667 q 1283 1540 1089 1667 q 1447 1394 1376 1479 q 1560 1211 1518 1308 q 1613 994 1601 1111 l 1279 994 q 1240 1113 1268 1057 q 1174 1211 1211 1169 q 1085 1284 1135 1253 q 975 1332 1035 1315 q 847 1347 913 1347 q 685 1320 758 1347 q 558 1253 611 1293 q 392 997 438 1157 q 374 913 379 957 q 368 824 368 869 m 654 1918 q 688 2025 654 1978 q 724 2064 701 2047 q 772 2088 747 2081 q 828 2096 799 2096 q 931 2064 883 2096 q 993 1976 975 2032 q 1001 1918 1001 1949 q 953 1789 1001 1842 q 828 1736 904 1736 q 725 1771 768 1736 q 688 1809 703 1788 q 663 1861 672 1831 q 654 1918 654 1888 z "},"D":{"ha":1042,"x_min":83,"x_max":986,"o":"m 83 1653 l 529 1653 q 815 1553 700 1653 q 909 1429 869 1504 q 967 1267 949 1354 q 986 1061 986 1172 l 986 592 q 967 385 986 476 q 908 222 947 293 q 815 101 869 149 q 688 26 761 53 q 529 0 617 0 l 83 0 l 83 1653 m 410 306 l 456 306 q 660 592 660 306 l 660 1061 q 456 1347 660 1347 l 410 1347 l 410 306 z "},"Ď":{"ha":1042,"x_min":83,"x_max":986,"o":"m 83 1653 l 529 1653 q 815 1553 700 1653 q 909 1429 869 1504 q 967 1267 949 1354 q 986 1061 986 1172 l 986 592 q 967 385 986 476 q 908 222 947 293 q 815 101 869 149 q 688 26 761 53 q 529 0 617 0 l 83 0 l 83 1653 m 410 306 l 456 306 q 660 592 660 306 l 660 1061 q 456 1347 660 1347 l 410 1347 l 410 306 m 358 1736 l 183 2146 l 403 2146 l 521 1938 l 640 2146 l 858 2146 l 685 1736 l 358 1736 z "},"Đ":{"ha":1042,"x_min":-31,"x_max":986,"o":"m 83 1653 l 529 1653 q 815 1553 700 1653 q 909 1429 869 1504 q 967 1267 949 1354 q 986 1061 986 1172 l 986 592 q 967 385 986 476 q 908 222 947 293 q 815 101 869 149 q 688 26 761 53 q 529 0 617 0 l 83 0 l 83 458 l -31 458 l -31 750 l 83 750 l 83 1653 m 410 306 l 456 306 q 660 592 660 306 l 660 1061 q 456 1347 660 1347 l 410 1347 l 410 750 l 531 750 l 531 458 l 410 458 l 410 306 z "},"Ð":{"ha":1042,"x_min":-31,"x_max":986,"o":"m 83 1653 l 529 1653 q 815 1553 700 1653 q 909 1429 869 1504 q 967 1267 949 1354 q 986 1061 986 1172 l 986 592 q 967 385 986 476 q 908 222 947 293 q 815 101 869 149 q 688 26 761 53 q 529 0 617 0 l 83 0 l 83 458 l -31 458 l -31 750 l 83 750 l 83 1653 m 410 306 l 456 306 q 660 592 660 306 l 660 1061 q 456 1347 660 1347 l 410 1347 l 410 750 l 531 750 l 531 458 l 410 458 l 410 306 z "},"E":{"ha":819,"x_min":83,"x_max":778,"o":"m 778 0 l 83 0 l 83 1653 l 771 1653 l 771 1347 l 410 1347 l 410 1032 l 743 1032 l 743 726 l 410 726 l 410 306 l 778 306 l 778 0 z "},"É":{"ha":819,"x_min":83,"x_max":778,"o":"m 778 0 l 83 0 l 83 1653 l 771 1653 l 771 1347 l 410 1347 l 410 1032 l 743 1032 l 743 726 l 410 726 l 410 306 l 778 306 l 778 0 m 472 1736 l 233 1736 l 425 2168 l 726 2168 l 472 1736 z "},"Ĕ":{"ha":819,"x_min":83,"x_max":778,"o":"m 778 0 l 83 0 l 83 1653 l 771 1653 l 771 1347 l 410 1347 l 410 1032 l 743 1032 l 743 726 l 410 726 l 410 306 l 778 306 l 778 0 m 508 2058 l 715 2058 q 698 1948 715 1996 q 658 1868 681 1900 q 595 1799 632 1829 q 510 1753 558 1768 q 410 1736 461 1736 q 229 1799 306 1736 q 124 1956 154 1858 q 108 2058 108 2000 l 315 2058 q 333 1996 315 2022 q 356 1971 344 1979 q 381 1957 367 1963 q 411 1951 394 1951 q 442 1956 425 1951 q 469 1972 458 1961 q 504 2025 496 1994 q 508 2058 508 2042 z "},"Ě":{"ha":819,"x_min":72,"x_max":778,"o":"m 778 0 l 83 0 l 83 1653 l 771 1653 l 771 1347 l 410 1347 l 410 1032 l 743 1032 l 743 726 l 410 726 l 410 306 l 778 306 l 778 0 m 247 1736 l 72 2146 l 292 2146 l 410 1938 l 529 2146 l 747 2146 l 574 1736 l 247 1736 z "},"Ê":{"ha":819,"x_min":60,"x_max":778,"o":"m 778 0 l 83 0 l 83 1653 l 771 1653 l 771 1347 l 410 1347 l 410 1032 l 743 1032 l 743 726 l 410 726 l 410 306 l 778 306 l 778 0 m 60 1736 l 240 2160 l 579 2160 l 760 1736 l 533 1736 l 411 1951 l 288 1736 l 60 1736 z "},"Ë":{"ha":819,"x_min":35,"x_max":779,"o":"m 778 0 l 83 0 l 83 1653 l 771 1653 l 771 1347 l 410 1347 l 410 1032 l 743 1032 l 743 726 l 410 726 l 410 306 l 778 306 l 778 0 m 35 1904 q 65 2003 35 1960 q 143 2060 94 2043 q 194 2068 168 2068 q 289 2038 246 2068 q 324 2002 311 2022 q 346 1957 338 1982 q 354 1904 354 1932 q 325 1806 354 1849 q 290 1768 313 1785 q 247 1744 268 1751 q 194 1736 224 1736 q 140 1746 161 1736 q 100 1769 118 1756 q 43 1851 61 1797 q 35 1904 35 1876 m 460 1904 q 490 2003 460 1960 q 568 2060 519 2043 q 619 2068 593 2068 q 714 2038 671 2068 q 749 2002 736 2022 q 771 1957 763 1982 q 779 1904 779 1932 q 750 1806 779 1849 q 715 1768 738 1785 q 672 1744 693 1751 q 619 1736 649 1736 q 565 1746 586 1736 q 525 1769 543 1756 q 468 1851 486 1797 q 460 1904 460 1876 z "},"Ė":{"ha":819,"x_min":83,"x_max":778,"o":"m 778 0 l 83 0 l 83 1653 l 771 1653 l 771 1347 l 410 1347 l 410 1032 l 743 1032 l 743 726 l 410 726 l 410 306 l 778 306 l 778 0 m 236 1918 q 269 2025 236 1978 q 306 2064 283 2047 q 354 2088 329 2081 q 410 2096 381 2096 q 513 2064 465 2096 q 575 1976 557 2032 q 583 1918 583 1949 q 535 1789 583 1842 q 410 1736 486 1736 q 307 1771 350 1736 q 269 1809 285 1788 q 244 1861 254 1831 q 236 1918 236 1888 z "},"È":{"ha":819,"x_min":83,"x_max":778,"o":"m 778 0 l 83 0 l 83 1653 l 771 1653 l 771 1347 l 410 1347 l 410 1032 l 743 1032 l 743 726 l 410 726 l 410 306 l 778 306 l 778 0 m 338 1736 l 83 2168 l 385 2168 l 576 1736 l 338 1736 z "},"Ē":{"ha":819,"x_min":83,"x_max":778,"o":"m 778 0 l 83 0 l 83 1653 l 771 1653 l 771 1347 l 410 1347 l 410 1032 l 743 1032 l 743 726 l 410 726 l 410 306 l 778 306 l 778 0 m 115 1764 l 115 2014 l 703 2014 l 703 1764 l 115 1764 z "},"Ę":{"ha":819,"x_min":83,"x_max":778,"o":"m 778 0 l 83 0 l 83 1653 l 771 1653 l 771 1347 l 410 1347 l 410 1032 l 743 1032 l 743 726 l 410 726 l 410 306 l 778 306 l 778 0 m 747 -276 l 747 -482 q 625 -471 679 -482 q 526 -440 571 -460 q 446 -392 475 -419 q 400 -331 417 -364 q 382 -257 382 -297 q 424 -119 382 -185 q 473 -61 443 -87 q 536 -14 503 -35 q 613 18 572 7 l 778 0 q 724 -20 746 -10 q 675 -51 701 -31 q 611 -133 628 -89 q 603 -179 603 -156 q 612 -219 603 -204 q 628 -240 621 -235 q 660 -261 640 -253 q 697 -272 679 -269 q 721 -276 708 -275 q 747 -276 733 -276 z "},"F":{"ha":813,"x_min":83,"x_max":771,"o":"m 83 1653 l 771 1653 l 771 1347 l 410 1347 l 410 990 l 743 990 l 743 685 l 410 685 l 410 0 l 83 0 l 83 1653 z "},"G":{"ha":1647,"x_min":42,"x_max":1606,"o":"m 1606 879 l 1606 672 q 1565 459 1606 561 q 1453 271 1525 357 q 1283 121 1381 185 q 1071 22 1186 57 q 826 -14 953 -14 q 572 27 692 -14 q 356 143 453 68 q 199 307 275 206 q 81 554 122 408 q 42 826 42 685 q 78 1097 42 972 q 183 1325 115 1221 q 363 1517 260 1443 q 568 1625 467 1590 q 697 1656 629 1644 q 836 1667 764 1667 q 1055 1639 953 1667 q 1247 1557 1157 1611 q 1399 1431 1329 1507 q 1515 1254 1469 1354 q 1553 1153 1538 1206 q 1578 1042 1569 1100 l 1244 1042 q 1212 1135 1236 1086 q 1144 1229 1188 1185 q 956 1333 1067 1306 q 836 1347 899 1347 q 683 1323 757 1347 q 553 1253 610 1299 q 390 997 435 1157 q 368 824 368 917 q 392 646 368 726 q 453 511 417 565 q 547 404 490 451 q 681 331 603 357 q 838 306 753 306 q 956 319 899 306 q 1061 358 1013 333 q 1148 419 1107 382 q 1217 503 1189 456 q 1261 601 1244 547 l 838 601 l 838 879 l 1606 879 z "},"Ğ":{"ha":1647,"x_min":42,"x_max":1606,"o":"m 1606 879 l 1606 672 q 1565 459 1606 561 q 1453 271 1525 357 q 1283 121 1381 185 q 1071 22 1186 57 q 826 -14 953 -14 q 572 27 692 -14 q 356 143 453 68 q 199 307 275 206 q 81 554 122 408 q 42 826 42 685 q 78 1097 42 972 q 183 1325 115 1221 q 363 1517 260 1443 q 568 1625 467 1590 q 697 1656 629 1644 q 836 1667 764 1667 q 1055 1639 953 1667 q 1247 1557 1157 1611 q 1399 1431 1329 1507 q 1515 1254 1469 1354 q 1553 1153 1538 1206 q 1578 1042 1569 1100 l 1244 1042 q 1212 1135 1236 1086 q 1144 1229 1188 1185 q 956 1333 1067 1306 q 836 1347 899 1347 q 683 1323 757 1347 q 553 1253 610 1299 q 390 997 435 1157 q 368 824 368 917 q 392 646 368 726 q 453 511 417 565 q 547 404 490 451 q 681 331 603 357 q 838 306 753 306 q 956 319 899 306 q 1061 358 1013 333 q 1148 419 1107 382 q 1217 503 1189 456 q 1261 601 1244 547 l 838 601 l 838 879 l 1606 879 m 922 2058 l 1129 2058 q 1112 1948 1129 1996 q 1072 1868 1094 1900 q 1009 1799 1046 1829 q 924 1753 972 1768 q 824 1736 875 1736 q 643 1799 719 1736 q 538 1956 568 1858 q 522 2058 522 2000 l 729 2058 q 747 1996 729 2022 q 769 1971 758 1979 q 794 1957 781 1963 q 825 1951 808 1951 q 856 1956 839 1951 q 883 1972 872 1961 q 918 2025 910 1994 q 922 2058 922 2042 z "},"Ĝ":{"ha":1647,"x_min":42,"x_max":1606,"o":"m 1606 879 l 1606 672 q 1565 459 1606 561 q 1453 271 1525 357 q 1283 121 1381 185 q 1071 22 1186 57 q 826 -14 953 -14 q 572 27 692 -14 q 356 143 453 68 q 199 307 275 206 q 81 554 122 408 q 42 826 42 685 q 78 1097 42 972 q 183 1325 115 1221 q 363 1517 260 1443 q 568 1625 467 1590 q 697 1656 629 1644 q 836 1667 764 1667 q 1055 1639 953 1667 q 1247 1557 1157 1611 q 1399 1431 1329 1507 q 1515 1254 1469 1354 q 1553 1153 1538 1206 q 1578 1042 1569 1100 l 1244 1042 q 1212 1135 1236 1086 q 1144 1229 1188 1185 q 956 1333 1067 1306 q 836 1347 899 1347 q 683 1323 757 1347 q 553 1253 610 1299 q 390 997 435 1157 q 368 824 368 917 q 392 646 368 726 q 453 511 417 565 q 547 404 490 451 q 681 331 603 357 q 838 306 753 306 q 956 319 899 306 q 1061 358 1013 333 q 1148 419 1107 382 q 1217 503 1189 456 q 1261 601 1244 547 l 838 601 l 838 879 l 1606 879 m 474 1736 l 654 2160 l 993 2160 l 1174 1736 l 947 1736 l 825 1951 l 701 1736 l 474 1736 z "},"Ģ":{"ha":1647,"x_min":42,"x_max":1606,"o":"m 1606 879 l 1606 672 q 1565 459 1606 561 q 1453 271 1525 357 q 1283 121 1381 185 q 1071 22 1186 57 q 826 -14 953 -14 q 572 27 692 -14 q 356 143 453 68 q 199 307 275 206 q 81 554 122 408 q 42 826 42 685 q 78 1097 42 972 q 183 1325 115 1221 q 363 1517 260 1443 q 568 1625 467 1590 q 697 1656 629 1644 q 836 1667 764 1667 q 1055 1639 953 1667 q 1247 1557 1157 1611 q 1399 1431 1329 1507 q 1515 1254 1469 1354 q 1553 1153 1538 1206 q 1578 1042 1569 1100 l 1244 1042 q 1212 1135 1236 1086 q 1144 1229 1188 1185 q 956 1333 1067 1306 q 836 1347 899 1347 q 683 1323 757 1347 q 553 1253 610 1299 q 390 997 435 1157 q 368 824 368 917 q 392 646 368 726 q 453 511 417 565 q 547 404 490 451 q 681 331 603 357 q 838 306 753 306 q 956 319 899 306 q 1061 358 1013 333 q 1148 419 1107 382 q 1217 503 1189 456 q 1261 601 1244 547 l 838 601 l 838 879 l 1606 879 m 621 -528 l 756 -97 l 1021 -97 l 850 -528 l 621 -528 z "},"Ġ":{"ha":1647,"x_min":42,"x_max":1606,"o":"m 1606 879 l 1606 672 q 1565 459 1606 561 q 1453 271 1525 357 q 1283 121 1381 185 q 1071 22 1186 57 q 826 -14 953 -14 q 572 27 692 -14 q 356 143 453 68 q 199 307 275 206 q 81 554 122 408 q 42 826 42 685 q 78 1097 42 972 q 183 1325 115 1221 q 363 1517 260 1443 q 568 1625 467 1590 q 697 1656 629 1644 q 836 1667 764 1667 q 1055 1639 953 1667 q 1247 1557 1157 1611 q 1399 1431 1329 1507 q 1515 1254 1469 1354 q 1553 1153 1538 1206 q 1578 1042 1569 1100 l 1244 1042 q 1212 1135 1236 1086 q 1144 1229 1188 1185 q 956 1333 1067 1306 q 836 1347 899 1347 q 683 1323 757 1347 q 553 1253 610 1299 q 390 997 435 1157 q 368 824 368 917 q 392 646 368 726 q 453 511 417 565 q 547 404 490 451 q 681 331 603 357 q 838 306 753 306 q 956 319 899 306 q 1061 358 1013 333 q 1148 419 1107 382 q 1217 503 1189 456 q 1261 601 1244 547 l 838 601 l 838 879 l 1606 879 m 650 1918 q 683 2025 650 1978 q 720 2064 697 2047 q 768 2088 743 2081 q 824 2096 794 2096 q 926 2064 879 2096 q 989 1976 971 2032 q 997 1918 997 1949 q 949 1789 997 1842 q 824 1736 900 1736 q 721 1771 764 1736 q 683 1809 699 1788 q 658 1861 668 1831 q 650 1918 650 1888 z "},"H":{"ha":1063,"x_min":83,"x_max":979,"o":"m 83 0 l 83 1653 l 410 1653 l 410 1074 l 653 1074 l 653 1653 l 979 1653 l 979 0 l 653 0 l 653 768 l 410 768 l 410 0 l 83 0 z "},"Ħ":{"ha":1118,"x_min":46,"x_max":1072,"o":"m 438 768 l 438 0 l 111 0 l 111 1228 l 46 1228 l 46 1478 l 111 1478 l 111 1653 l 438 1653 l 438 1478 l 681 1478 l 681 1653 l 1007 1653 l 1007 1478 l 1072 1478 l 1072 1228 l 1007 1228 l 1007 0 l 681 0 l 681 768 l 438 768 m 438 1074 l 681 1074 l 681 1228 l 438 1228 l 438 1074 z "},"Ĥ":{"ha":1063,"x_min":83,"x_max":979,"o":"m 83 0 l 83 1653 l 410 1653 l 410 1074 l 653 1074 l 653 1653 l 979 1653 l 979 0 l 653 0 l 653 768 l 410 768 l 410 0 l 83 0 m 182 1736 l 363 2160 l 701 2160 l 882 1736 l 656 1736 l 533 1951 l 410 1736 l 182 1736 z "},"I":{"ha":493,"x_min":83,"x_max":410,"o":"m 83 0 l 83 1653 l 410 1653 l 410 0 l 83 0 z "},"Ĳ":{"ha":965,"x_min":69,"x_max":896,"o":"m 569 431 l 571 1653 l 896 1653 l 896 428 q 826 149 896 258 q 741 59 793 96 q 625 6 689 22 q 476 -14 556 -14 q 333 3 397 -14 q 218 57 268 21 q 86 267 119 128 q 69 421 69 336 l 69 581 l 396 581 l 396 429 q 483 306 396 306 q 569 431 569 306 m 69 694 l 69 1653 l 396 1653 l 396 694 l 69 694 z "},"Í":{"ha":493,"x_min":71,"x_max":564,"o":"m 83 0 l 83 1653 l 410 1653 l 410 0 l 83 0 m 310 1736 l 71 1736 l 263 2168 l 564 2168 l 310 1736 z "},"Î":{"ha":493,"x_min":-103,"x_max":597,"o":"m 83 0 l 83 1653 l 410 1653 l 410 0 l 83 0 m -103 1736 l 78 2160 l 417 2160 l 597 1736 l 371 1736 l 249 1951 l 125 1736 l -103 1736 z "},"Ï":{"ha":493,"x_min":-128,"x_max":617,"o":"m 83 0 l 83 1653 l 410 1653 l 410 0 l 83 0 m -128 1904 q -97 2003 -128 1960 q -19 2060 -68 2043 q 32 2068 6 2068 q 126 2038 83 2068 q 162 2002 149 2022 q 183 1957 175 1982 q 192 1904 192 1932 q 163 1806 192 1849 q 128 1768 150 1785 q 85 1744 106 1751 q 32 1736 61 1736 q -23 1746 -1 1736 q -62 1769 -44 1756 q -119 1851 -101 1797 q -128 1904 -128 1876 m 297 1904 q 328 2003 297 1960 q 406 2060 357 2043 q 457 2068 431 2068 q 551 2038 508 2068 q 587 2002 574 2022 q 608 1957 600 1982 q 617 1904 617 1932 q 588 1806 617 1849 q 553 1768 575 1785 q 510 1744 531 1751 q 457 1736 486 1736 q 402 1746 424 1736 q 363 1769 381 1756 q 306 1851 324 1797 q 297 1904 297 1876 z "},"İ":{"ha":493,"x_min":74,"x_max":421,"o":"m 83 0 l 83 1653 l 410 1653 l 410 0 l 83 0 m 74 1918 q 107 2025 74 1978 q 144 2064 121 2047 q 192 2088 167 2081 q 247 2096 218 2096 q 350 2064 303 2096 q 413 1976 394 2032 q 421 1918 421 1949 q 372 1789 421 1842 q 247 1736 324 1736 q 144 1771 188 1736 q 107 1809 122 1788 q 82 1861 92 1831 q 74 1918 74 1888 z "},"Ì":{"ha":493,"x_min":-79,"x_max":414,"o":"m 83 0 l 83 1653 l 410 1653 l 410 0 l 83 0 m 175 1736 l -79 2168 l 222 2168 l 414 1736 l 175 1736 z "},"Ī":{"ha":493,"x_min":-47,"x_max":540,"o":"m 83 0 l 83 1653 l 410 1653 l 410 0 l 83 0 m -47 1764 l -47 2014 l 540 2014 l 540 1764 l -47 1764 z "},"Į":{"ha":493,"x_min":14,"x_max":410,"o":"m 83 0 l 83 1653 l 410 1653 l 410 0 l 83 0 m 379 -276 l 379 -482 q 257 -471 311 -482 q 158 -440 203 -460 q 78 -392 107 -419 q 32 -331 49 -364 q 14 -257 14 -297 q 56 -119 14 -185 q 105 -61 75 -87 q 168 -14 135 -35 q 244 18 204 7 l 410 0 q 356 -20 378 -10 q 307 -51 333 -31 q 243 -133 260 -89 q 235 -179 235 -156 q 244 -219 235 -204 q 260 -240 253 -235 q 292 -261 272 -253 q 329 -272 311 -269 q 353 -276 340 -275 q 379 -276 365 -276 z "},"Ĩ":{"ha":493,"x_min":-87,"x_max":589,"o":"m 83 0 l 83 1653 l 410 1653 l 410 0 l 83 0 m 122 1736 l -87 1736 q -58 1938 -87 1858 q -22 2000 -46 1971 q 29 2042 1 2029 q 92 2054 60 2054 q 153 2044 125 2054 q 204 2022 181 2033 q 247 1997 226 2011 q 292 1971 268 1982 q 308 1964 300 1967 q 325 1961 317 1961 q 365 1988 350 1961 q 381 2054 381 2015 l 589 2054 q 408 1736 589 1736 q 353 1744 382 1736 q 296 1769 325 1751 q 256 1797 278 1781 q 215 1821 233 1813 q 179 1831 193 1831 q 144 1814 157 1831 q 132 1794 136 1804 q 125 1768 128 1783 q 122 1736 122 1754 z "},"J":{"ha":896,"x_min":42,"x_max":826,"o":"m 42 421 l 42 581 l 347 581 l 347 429 q 425 306 347 306 q 500 431 500 306 l 500 1347 l 125 1347 l 125 1653 l 826 1653 l 826 428 q 810 275 826 346 q 761 149 794 204 q 681 60 729 97 q 569 6 632 24 q 428 -14 504 -14 q 140 96 239 -14 q 42 421 42 206 z "},"Ĵ":{"ha":896,"x_min":42,"x_max":826,"o":"m 42 421 l 42 581 l 347 581 l 347 429 q 425 306 347 306 q 500 431 500 306 l 500 1347 l 125 1347 l 125 1653 l 826 1653 l 826 428 q 810 275 826 346 q 761 149 794 204 q 681 60 729 97 q 569 6 632 24 q 428 -14 504 -14 q 140 96 239 -14 q 42 421 42 206 m 99 1736 l 279 2160 l 618 2160 l 799 1736 l 572 1736 l 450 1951 l 326 1736 l 99 1736 z "},"K":{"ha":1035,"x_min":83,"x_max":1007,"o":"m 410 1653 l 410 1350 q 406 1278 410 1315 q 396 1196 403 1240 q 379 1104 388 1151 q 358 1006 371 1057 q 346 956 351 981 q 332 903 339 929 l 360 903 q 372 952 364 919 q 389 1018 379 985 q 407 1075 399 1051 q 428 1142 421 1119 q 444 1188 436 1165 q 469 1250 453 1210 q 486 1291 478 1271 q 503 1329 494 1311 l 653 1653 l 979 1653 l 667 1006 l 1007 0 l 681 0 l 463 644 l 410 567 l 410 0 l 83 0 l 83 1653 l 410 1653 z "},"Ķ":{"ha":1035,"x_min":83,"x_max":1007,"o":"m 410 1653 l 410 1350 q 406 1278 410 1315 q 396 1196 403 1240 q 379 1104 388 1151 q 358 1006 371 1057 q 346 956 351 981 q 332 903 339 929 l 360 903 q 372 952 364 919 q 389 1018 379 985 q 407 1075 399 1051 q 428 1142 421 1119 q 444 1188 436 1165 q 469 1250 453 1210 q 486 1291 478 1271 q 503 1329 494 1311 l 653 1653 l 979 1653 l 667 1006 l 1007 0 l 681 0 l 463 644 l 410 567 l 410 0 l 83 0 l 83 1653 l 410 1653 m 315 -528 l 450 -97 l 715 -97 l 544 -528 l 315 -528 z "},"L":{"ha":792,"x_min":83,"x_max":750,"o":"m 83 0 l 83 1653 l 410 1653 l 410 306 l 750 306 l 750 0 l 83 0 z "},"Ĺ":{"ha":792,"x_min":83,"x_max":750,"o":"m 83 0 l 83 1653 l 410 1653 l 410 306 l 750 306 l 750 0 l 83 0 m 322 1736 l 83 1736 l 275 2168 l 576 2168 l 322 1736 z "},"Ľ":{"ha":792,"x_min":83,"x_max":750,"o":"m 83 0 l 83 1653 l 410 1653 l 410 306 l 750 306 l 750 0 l 83 0 m 708 1139 l 493 1139 l 465 1653 l 736 1653 l 708 1139 z "},"Ļ":{"ha":792,"x_min":83,"x_max":750,"o":"m 83 0 l 83 1653 l 410 1653 l 410 306 l 750 306 l 750 0 l 83 0 m 193 -528 l 328 -97 l 593 -97 l 422 -528 l 193 -528 z "},"Ŀ":{"ha":861,"x_min":83,"x_max":875,"o":"m 83 0 l 83 1653 l 410 1653 l 410 306 l 750 306 l 750 0 l 83 0 m 682 476 q 620 486 651 476 q 567 514 589 496 q 524 556 542 532 q 497 610 507 579 q 486 671 486 640 q 497 734 486 706 q 525 786 508 763 q 567 828 543 813 q 621 856 590 844 q 682 865 651 865 q 744 855 713 865 q 797 829 776 844 q 836 789 819 811 q 865 733 853 767 q 875 671 875 701 q 865 610 875 643 q 839 556 856 576 q 797 513 821 532 q 743 486 772 494 q 714 479 729 482 q 682 476 699 476 z "},"Ł":{"ha":890,"x_min":0,"x_max":849,"o":"m 40 406 l 0 653 l 182 682 l 182 1653 l 508 1653 l 508 735 l 676 763 l 717 515 l 508 482 l 508 306 l 849 306 l 849 0 l 182 0 l 182 429 l 40 406 z "},"M":{"ha":1417,"x_min":83,"x_max":1333,"o":"m 543 1653 l 649 992 q 666 855 658 929 q 679 693 674 781 q 685 578 683 626 q 689 483 688 531 q 693 365 690 435 q 694 285 694 324 l 694 208 l 722 208 q 724 365 722 285 q 729 529 726 446 q 738 695 732 617 q 751 850 743 774 q 760 923 756 888 q 769 992 764 958 l 874 1653 l 1333 1653 l 1333 0 l 1007 0 l 1007 196 q 1013 435 1007 304 q 1028 690 1018 567 q 1049 951 1038 822 q 1074 1207 1060 1081 q 1086 1329 1079 1269 q 1097 1444 1092 1389 l 1069 1444 q 1051 1282 1061 1358 q 1031 1128 1042 1206 q 1008 956 1021 1050 q 983 786 997 876 q 953 607 968 696 q 924 443 938 518 q 901 324 913 382 q 878 210 889 265 l 833 0 l 583 0 l 539 210 q 508 367 522 293 q 479 519 493 440 q 450 696 465 597 q 406 977 425 846 q 375 1208 386 1108 q 360 1329 367 1269 q 347 1444 353 1389 l 319 1444 q 343 1214 331 1338 q 368 951 356 1090 q 383 772 376 851 q 394 614 389 693 q 404 435 400 535 q 410 196 410 311 l 410 0 l 83 0 l 83 1653 l 543 1653 z "},"N":{"ha":1118,"x_min":83,"x_max":1035,"o":"m 410 404 l 410 0 l 83 0 l 83 1653 l 465 1653 l 589 1208 q 624 1081 606 1151 q 658 941 642 1011 q 686 817 675 871 q 731 603 711 701 q 769 400 750 504 q 785 303 778 350 q 799 208 792 254 l 826 208 q 806 341 815 282 q 786 463 796 400 q 765 611 776 525 q 746 749 756 672 q 728 902 736 826 q 717 1036 719 978 q 710 1137 713 1088 q 708 1232 708 1186 l 708 1653 l 1035 1653 l 1035 0 l 674 0 l 546 429 q 514 540 532 474 q 476 683 496 607 q 439 832 456 758 q 392 1041 415 933 q 350 1253 368 1149 q 332 1351 340 1303 q 317 1444 324 1400 l 289 1444 q 319 1253 303 1354 q 353 1040 336 1153 q 381 822 367 932 q 403 606 394 711 q 408 502 406 553 q 410 404 410 451 z "},"Ń":{"ha":1118,"x_min":83,"x_max":1035,"o":"m 410 404 l 410 0 l 83 0 l 83 1653 l 465 1653 l 589 1208 q 624 1081 606 1151 q 658 941 642 1011 q 686 817 675 871 q 731 603 711 701 q 769 400 750 504 q 785 303 778 350 q 799 208 792 254 l 826 208 q 806 341 815 282 q 786 463 796 400 q 765 611 776 525 q 746 749 756 672 q 728 902 736 826 q 717 1036 719 978 q 710 1137 713 1088 q 708 1232 708 1186 l 708 1653 l 1035 1653 l 1035 0 l 674 0 l 546 429 q 514 540 532 474 q 476 683 496 607 q 439 832 456 758 q 392 1041 415 933 q 350 1253 368 1149 q 332 1351 340 1303 q 317 1444 324 1400 l 289 1444 q 319 1253 303 1354 q 353 1040 336 1153 q 381 822 367 932 q 403 606 394 711 q 408 502 406 553 q 410 404 410 451 m 622 1736 l 383 1736 l 575 2168 l 876 2168 l 622 1736 z "},"Ň":{"ha":1118,"x_min":83,"x_max":1035,"o":"m 410 404 l 410 0 l 83 0 l 83 1653 l 465 1653 l 589 1208 q 624 1081 606 1151 q 658 941 642 1011 q 686 817 675 871 q 731 603 711 701 q 769 400 750 504 q 785 303 778 350 q 799 208 792 254 l 826 208 q 806 341 815 282 q 786 463 796 400 q 765 611 776 525 q 746 749 756 672 q 728 902 736 826 q 717 1036 719 978 q 710 1137 713 1088 q 708 1232 708 1186 l 708 1653 l 1035 1653 l 1035 0 l 674 0 l 546 429 q 514 540 532 474 q 476 683 496 607 q 439 832 456 758 q 392 1041 415 933 q 350 1253 368 1149 q 332 1351 340 1303 q 317 1444 324 1400 l 289 1444 q 319 1253 303 1354 q 353 1040 336 1153 q 381 822 367 932 q 403 606 394 711 q 408 502 406 553 q 410 404 410 451 m 397 1736 l 222 2146 l 442 2146 l 560 1938 l 679 2146 l 897 2146 l 724 1736 l 397 1736 z "},"Ņ":{"ha":1118,"x_min":83,"x_max":1035,"o":"m 410 404 l 410 0 l 83 0 l 83 1653 l 465 1653 l 589 1208 q 624 1081 606 1151 q 658 941 642 1011 q 686 817 675 871 q 731 603 711 701 q 769 400 750 504 q 785 303 778 350 q 799 208 792 254 l 826 208 q 806 341 815 282 q 786 463 796 400 q 765 611 776 525 q 746 749 756 672 q 728 902 736 826 q 717 1036 719 978 q 710 1137 713 1088 q 708 1232 708 1186 l 708 1653 l 1035 1653 l 1035 0 l 674 0 l 546 429 q 514 540 532 474 q 476 683 496 607 q 439 832 456 758 q 392 1041 415 933 q 350 1253 368 1149 q 332 1351 340 1303 q 317 1444 324 1400 l 289 1444 q 319 1253 303 1354 q 353 1040 336 1153 q 381 822 367 932 q 403 606 394 711 q 408 502 406 553 q 410 404 410 451 m 357 -528 l 492 -97 l 757 -97 l 586 -528 l 357 -528 z "},"Ñ":{"ha":1118,"x_min":83,"x_max":1035,"o":"m 410 404 l 410 0 l 83 0 l 83 1653 l 465 1653 l 589 1208 q 624 1081 606 1151 q 658 941 642 1011 q 686 817 675 871 q 731 603 711 701 q 769 400 750 504 q 785 303 778 350 q 799 208 792 254 l 826 208 q 806 341 815 282 q 786 463 796 400 q 765 611 776 525 q 746 749 756 672 q 728 902 736 826 q 717 1036 719 978 q 710 1137 713 1088 q 708 1232 708 1186 l 708 1653 l 1035 1653 l 1035 0 l 674 0 l 546 429 q 514 540 532 474 q 476 683 496 607 q 439 832 456 758 q 392 1041 415 933 q 350 1253 368 1149 q 332 1351 340 1303 q 317 1444 324 1400 l 289 1444 q 319 1253 303 1354 q 353 1040 336 1153 q 381 822 367 932 q 403 606 394 711 q 408 502 406 553 q 410 404 410 451 m 435 1736 l 225 1736 q 254 1938 225 1858 q 290 2000 267 1971 q 342 2042 314 2029 q 404 2054 372 2054 q 465 2044 438 2054 q 517 2022 493 2033 q 560 1997 539 2011 q 604 1971 581 1982 q 621 1964 613 1967 q 638 1961 629 1961 q 678 1988 663 1961 q 693 2054 693 2015 l 901 2054 q 721 1736 901 1736 q 666 1744 694 1736 q 608 1769 638 1751 q 568 1797 590 1781 q 528 1821 546 1813 q 492 1831 506 1831 q 457 1814 469 1831 q 444 1794 449 1804 q 438 1768 440 1783 q 435 1736 435 1754 z "},"O":{"ha":1754,"x_min":42,"x_max":1713,"o":"m 42 836 q 85 1097 42 974 q 206 1325 128 1219 q 388 1506 282 1429 q 617 1624 494 1582 q 744 1656 678 1644 q 878 1667 810 1667 q 1142 1623 1018 1667 q 1368 1506 1265 1579 q 1560 1310 1486 1418 q 1669 1097 1633 1203 q 1701 969 1690 1035 q 1713 836 1713 904 q 1670 571 1713 700 q 1551 335 1628 442 q 1367 151 1474 229 q 1140 31 1261 72 q 878 -14 1014 -14 q 614 31 739 -14 q 386 151 489 75 q 205 333 282 229 q 85 569 128 438 q 53 699 64 632 q 42 836 42 767 m 368 833 q 394 667 368 749 q 467 522 421 585 q 581 405 517 453 q 718 333 644 357 q 879 306 796 306 q 1039 333 963 306 q 1178 408 1115 360 q 1288 522 1240 456 q 1360 667 1335 588 q 1379 747 1372 706 q 1386 833 1386 789 q 1360 994 1386 915 q 1288 1135 1333 1072 q 1038 1321 1190 1267 q 879 1347 961 1347 q 735 1326 813 1347 q 579 1247 657 1304 q 467 1136 515 1200 q 394 996 419 1072 q 375 916 382 957 q 368 833 368 875 z "},"Ó":{"ha":1754,"x_min":42,"x_max":1713,"o":"m 42 836 q 85 1097 42 974 q 206 1325 128 1219 q 388 1506 282 1429 q 617 1624 494 1582 q 744 1656 678 1644 q 878 1667 810 1667 q 1142 1623 1018 1667 q 1368 1506 1265 1579 q 1560 1310 1486 1418 q 1669 1097 1633 1203 q 1701 969 1690 1035 q 1713 836 1713 904 q 1670 571 1713 700 q 1551 335 1628 442 q 1367 151 1474 229 q 1140 31 1261 72 q 878 -14 1014 -14 q 614 31 739 -14 q 386 151 489 75 q 205 333 282 229 q 85 569 128 438 q 53 699 64 632 q 42 836 42 767 m 368 833 q 394 667 368 749 q 467 522 421 585 q 581 405 517 453 q 718 333 644 357 q 879 306 796 306 q 1039 333 963 306 q 1178 408 1115 360 q 1288 522 1240 456 q 1360 667 1335 588 q 1379 747 1372 706 q 1386 833 1386 789 q 1360 994 1386 915 q 1288 1135 1333 1072 q 1038 1321 1190 1267 q 879 1347 961 1347 q 735 1326 813 1347 q 579 1247 657 1304 q 467 1136 515 1200 q 394 996 419 1072 q 375 916 382 957 q 368 833 368 875 m 940 1736 l 701 1736 l 893 2168 l 1194 2168 l 940 1736 z "},"Ŏ":{"ha":1754,"x_min":42,"x_max":1713,"o":"m 42 836 q 85 1097 42 974 q 206 1325 128 1219 q 388 1506 282 1429 q 617 1624 494 1582 q 744 1656 678 1644 q 878 1667 810 1667 q 1142 1623 1018 1667 q 1368 1506 1265 1579 q 1560 1310 1486 1418 q 1669 1097 1633 1203 q 1701 969 1690 1035 q 1713 836 1713 904 q 1670 571 1713 700 q 1551 335 1628 442 q 1367 151 1474 229 q 1140 31 1261 72 q 878 -14 1014 -14 q 614 31 739 -14 q 386 151 489 75 q 205 333 282 229 q 85 569 128 438 q 53 699 64 632 q 42 836 42 767 m 368 833 q 394 667 368 749 q 467 522 421 585 q 581 405 517 453 q 718 333 644 357 q 879 306 796 306 q 1039 333 963 306 q 1178 408 1115 360 q 1288 522 1240 456 q 1360 667 1335 588 q 1379 747 1372 706 q 1386 833 1386 789 q 1360 994 1386 915 q 1288 1135 1333 1072 q 1038 1321 1190 1267 q 879 1347 961 1347 q 735 1326 813 1347 q 579 1247 657 1304 q 467 1136 515 1200 q 394 996 419 1072 q 375 916 382 957 q 368 833 368 875 m 976 2058 l 1183 2058 q 1166 1948 1183 1996 q 1126 1868 1149 1900 q 1063 1799 1100 1829 q 978 1753 1026 1768 q 878 1736 929 1736 q 697 1799 774 1736 q 592 1956 622 1858 q 576 2058 576 2000 l 783 2058 q 801 1996 783 2022 q 824 1971 813 1979 q 849 1957 835 1963 q 879 1951 863 1951 q 910 1956 893 1951 q 938 1972 926 1961 q 972 2025 964 1994 q 976 2058 976 2042 z "},"Ô":{"ha":1754,"x_min":42,"x_max":1713,"o":"m 42 836 q 85 1097 42 974 q 206 1325 128 1219 q 388 1506 282 1429 q 617 1624 494 1582 q 744 1656 678 1644 q 878 1667 810 1667 q 1142 1623 1018 1667 q 1368 1506 1265 1579 q 1560 1310 1486 1418 q 1669 1097 1633 1203 q 1701 969 1690 1035 q 1713 836 1713 904 q 1670 571 1713 700 q 1551 335 1628 442 q 1367 151 1474 229 q 1140 31 1261 72 q 878 -14 1014 -14 q 614 31 739 -14 q 386 151 489 75 q 205 333 282 229 q 85 569 128 438 q 53 699 64 632 q 42 836 42 767 m 368 833 q 394 667 368 749 q 467 522 421 585 q 581 405 517 453 q 718 333 644 357 q 879 306 796 306 q 1039 333 963 306 q 1178 408 1115 360 q 1288 522 1240 456 q 1360 667 1335 588 q 1379 747 1372 706 q 1386 833 1386 789 q 1360 994 1386 915 q 1288 1135 1333 1072 q 1038 1321 1190 1267 q 879 1347 961 1347 q 735 1326 813 1347 q 579 1247 657 1304 q 467 1136 515 1200 q 394 996 419 1072 q 375 916 382 957 q 368 833 368 875 m 528 1736 l 708 2160 l 1047 2160 l 1228 1736 l 1001 1736 l 879 1951 l 756 1736 l 528 1736 z "},"Ö":{"ha":1754,"x_min":42,"x_max":1713,"o":"m 42 836 q 85 1097 42 974 q 206 1325 128 1219 q 388 1506 282 1429 q 617 1624 494 1582 q 744 1656 678 1644 q 878 1667 810 1667 q 1142 1623 1018 1667 q 1368 1506 1265 1579 q 1560 1310 1486 1418 q 1669 1097 1633 1203 q 1701 969 1690 1035 q 1713 836 1713 904 q 1670 571 1713 700 q 1551 335 1628 442 q 1367 151 1474 229 q 1140 31 1261 72 q 878 -14 1014 -14 q 614 31 739 -14 q 386 151 489 75 q 205 333 282 229 q 85 569 128 438 q 53 699 64 632 q 42 836 42 767 m 368 833 q 394 667 368 749 q 467 522 421 585 q 581 405 517 453 q 718 333 644 357 q 879 306 796 306 q 1039 333 963 306 q 1178 408 1115 360 q 1288 522 1240 456 q 1360 667 1335 588 q 1379 747 1372 706 q 1386 833 1386 789 q 1360 994 1386 915 q 1288 1135 1333 1072 q 1038 1321 1190 1267 q 879 1347 961 1347 q 735 1326 813 1347 q 579 1247 657 1304 q 467 1136 515 1200 q 394 996 419 1072 q 375 916 382 957 q 368 833 368 875 m 503 1904 q 533 2003 503 1960 q 611 2060 563 2043 q 663 2068 636 2068 q 757 2038 714 2068 q 792 2002 779 2022 q 814 1957 806 1982 q 822 1904 822 1932 q 793 1806 822 1849 q 758 1768 781 1785 q 715 1744 736 1751 q 663 1736 692 1736 q 608 1746 629 1736 q 568 1769 586 1756 q 511 1851 529 1797 q 503 1904 503 1876 m 928 1904 q 958 2003 928 1960 q 1036 2060 988 2043 q 1088 2068 1061 2068 q 1182 2038 1139 2068 q 1217 2002 1204 2022 q 1239 1957 1231 1982 q 1247 1904 1247 1932 q 1218 1806 1247 1849 q 1183 1768 1206 1785 q 1140 1744 1161 1751 q 1088 1736 1117 1736 q 1033 1746 1054 1736 q 993 1769 1011 1756 q 936 1851 954 1797 q 928 1904 928 1876 z "},"Ò":{"ha":1754,"x_min":42,"x_max":1713,"o":"m 42 836 q 85 1097 42 974 q 206 1325 128 1219 q 388 1506 282 1429 q 617 1624 494 1582 q 744 1656 678 1644 q 878 1667 810 1667 q 1142 1623 1018 1667 q 1368 1506 1265 1579 q 1560 1310 1486 1418 q 1669 1097 1633 1203 q 1701 969 1690 1035 q 1713 836 1713 904 q 1670 571 1713 700 q 1551 335 1628 442 q 1367 151 1474 229 q 1140 31 1261 72 q 878 -14 1014 -14 q 614 31 739 -14 q 386 151 489 75 q 205 333 282 229 q 85 569 128 438 q 53 699 64 632 q 42 836 42 767 m 368 833 q 394 667 368 749 q 467 522 421 585 q 581 405 517 453 q 718 333 644 357 q 879 306 796 306 q 1039 333 963 306 q 1178 408 1115 360 q 1288 522 1240 456 q 1360 667 1335 588 q 1379 747 1372 706 q 1386 833 1386 789 q 1360 994 1386 915 q 1288 1135 1333 1072 q 1038 1321 1190 1267 q 879 1347 961 1347 q 735 1326 813 1347 q 579 1247 657 1304 q 467 1136 515 1200 q 394 996 419 1072 q 375 916 382 957 q 368 833 368 875 m 806 1736 l 551 2168 l 853 2168 l 1044 1736 l 806 1736 z "},"Ő":{"ha":1754,"x_min":42,"x_max":1713,"o":"m 42 836 q 85 1097 42 974 q 206 1325 128 1219 q 388 1506 282 1429 q 617 1624 494 1582 q 744 1656 678 1644 q 878 1667 810 1667 q 1142 1623 1018 1667 q 1368 1506 1265 1579 q 1560 1310 1486 1418 q 1669 1097 1633 1203 q 1701 969 1690 1035 q 1713 836 1713 904 q 1670 571 1713 700 q 1551 335 1628 442 q 1367 151 1474 229 q 1140 31 1261 72 q 878 -14 1014 -14 q 614 31 739 -14 q 386 151 489 75 q 205 333 282 229 q 85 569 128 438 q 53 699 64 632 q 42 836 42 767 m 368 833 q 394 667 368 749 q 467 522 421 585 q 581 405 517 453 q 718 333 644 357 q 879 306 796 306 q 1039 333 963 306 q 1178 408 1115 360 q 1288 522 1240 456 q 1360 667 1335 588 q 1379 747 1372 706 q 1386 833 1386 789 q 1360 994 1386 915 q 1288 1135 1333 1072 q 1038 1321 1190 1267 q 879 1347 961 1347 q 735 1326 813 1347 q 579 1247 657 1304 q 467 1136 515 1200 q 394 996 419 1072 q 375 916 382 957 q 368 833 368 875 m 514 1736 l 654 2138 l 914 2138 l 714 1736 l 514 1736 m 840 1736 l 982 2138 l 1242 2138 l 1040 1736 l 840 1736 z "},"Ō":{"ha":1754,"x_min":42,"x_max":1713,"o":"m 42 836 q 85 1097 42 974 q 206 1325 128 1219 q 388 1506 282 1429 q 617 1624 494 1582 q 744 1656 678 1644 q 878 1667 810 1667 q 1142 1623 1018 1667 q 1368 1506 1265 1579 q 1560 1310 1486 1418 q 1669 1097 1633 1203 q 1701 969 1690 1035 q 1713 836 1713 904 q 1670 571 1713 700 q 1551 335 1628 442 q 1367 151 1474 229 q 1140 31 1261 72 q 878 -14 1014 -14 q 614 31 739 -14 q 386 151 489 75 q 205 333 282 229 q 85 569 128 438 q 53 699 64 632 q 42 836 42 767 m 368 833 q 394 667 368 749 q 467 522 421 585 q 581 405 517 453 q 718 333 644 357 q 879 306 796 306 q 1039 333 963 306 q 1178 408 1115 360 q 1288 522 1240 456 q 1360 667 1335 588 q 1379 747 1372 706 q 1386 833 1386 789 q 1360 994 1386 915 q 1288 1135 1333 1072 q 1038 1321 1190 1267 q 879 1347 961 1347 q 735 1326 813 1347 q 579 1247 657 1304 q 467 1136 515 1200 q 394 996 419 1072 q 375 916 382 957 q 368 833 368 875 m 583 1764 l 583 2014 l 1171 2014 l 1171 1764 l 583 1764 z "},"Ø":{"ha":1754,"x_min":42,"x_max":1713,"o":"m 42 836 q 85 1097 42 974 q 206 1325 128 1219 q 388 1506 282 1429 q 617 1624 494 1582 q 744 1656 678 1644 q 878 1667 810 1667 q 958 1663 918 1667 q 997 1658 976 1661 q 1036 1651 1017 1656 l 1085 1778 l 1397 1778 l 1308 1544 q 1443 1442 1381 1500 q 1554 1318 1506 1385 q 1640 1172 1603 1251 q 1694 1010 1676 1093 q 1713 836 1713 924 q 1670 571 1713 700 q 1551 335 1628 442 q 1367 151 1474 229 q 1140 31 1261 72 q 878 -14 1014 -14 q 799 -10 838 -14 q 759 -6 779 -8 q 719 1 739 -3 l 671 -125 l 358 -125 l 447 108 q 310 214 372 154 q 200 342 247 274 q 115 490 151 410 q 61 657 79 571 q 42 836 42 746 m 368 833 q 394 667 368 749 q 467 522 421 585 q 581 405 517 453 q 718 333 644 357 q 879 306 796 306 q 1039 333 963 306 q 1178 408 1115 360 q 1288 522 1240 456 q 1360 667 1335 588 q 1379 747 1372 706 q 1386 833 1386 789 q 1360 994 1386 915 q 1288 1135 1333 1072 q 1038 1321 1190 1267 q 879 1347 961 1347 q 735 1326 813 1347 q 579 1247 657 1304 q 467 1136 515 1200 q 394 996 419 1072 q 375 916 382 957 q 368 833 368 875 z "},"Õ":{"ha":1754,"x_min":42,"x_max":1713,"o":"m 42 836 q 85 1097 42 974 q 206 1325 128 1219 q 388 1506 282 1429 q 617 1624 494 1582 q 744 1656 678 1644 q 878 1667 810 1667 q 1142 1623 1018 1667 q 1368 1506 1265 1579 q 1560 1310 1486 1418 q 1669 1097 1633 1203 q 1701 969 1690 1035 q 1713 836 1713 904 q 1670 571 1713 700 q 1551 335 1628 442 q 1367 151 1474 229 q 1140 31 1261 72 q 878 -14 1014 -14 q 614 31 739 -14 q 386 151 489 75 q 205 333 282 229 q 85 569 128 438 q 53 699 64 632 q 42 836 42 767 m 368 833 q 394 667 368 749 q 467 522 421 585 q 581 405 517 453 q 718 333 644 357 q 879 306 796 306 q 1039 333 963 306 q 1178 408 1115 360 q 1288 522 1240 456 q 1360 667 1335 588 q 1379 747 1372 706 q 1386 833 1386 789 q 1360 994 1386 915 q 1288 1135 1333 1072 q 1038 1321 1190 1267 q 879 1347 961 1347 q 735 1326 813 1347 q 579 1247 657 1304 q 467 1136 515 1200 q 394 996 419 1072 q 375 916 382 957 q 368 833 368 875 m 753 1736 l 543 1736 q 572 1938 543 1858 q 608 2000 585 1971 q 660 2042 632 2029 q 722 2054 690 2054 q 783 2044 756 2054 q 835 2022 811 2033 q 878 1997 857 2011 q 922 1971 899 1982 q 939 1964 931 1967 q 956 1961 947 1961 q 996 1988 981 1961 q 1011 2054 1011 2015 l 1219 2054 q 1039 1736 1219 1736 q 984 1744 1013 1736 q 926 1769 956 1751 q 886 1797 908 1781 q 846 1821 864 1813 q 810 1831 824 1831 q 775 1814 788 1831 q 763 1794 767 1804 q 756 1768 758 1783 q 753 1736 753 1754 z "},"Œ":{"ha":2124,"x_min":42,"x_max":2082,"o":"m 42 836 q 85 1097 42 974 q 206 1325 128 1219 q 388 1506 282 1429 q 617 1624 494 1582 q 744 1656 678 1644 q 878 1667 810 1667 q 990 1659 939 1667 q 1099 1636 1042 1651 q 1201 1600 1153 1622 q 1299 1551 1250 1578 q 1344 1522 1322 1538 q 1388 1490 1367 1507 l 1388 1653 l 2075 1653 l 2075 1347 l 1714 1347 l 1714 1032 l 2047 1032 l 2047 726 l 1714 726 l 1714 306 l 2082 306 l 2082 0 l 1388 0 l 1388 165 q 1299 103 1346 132 q 1203 54 1251 75 q 1078 11 1135 25 q 990 -6 1021 -3 q 935 -12 963 -10 q 878 -14 907 -14 q 614 31 739 -14 q 386 151 489 75 q 205 333 282 229 q 85 569 128 438 q 53 699 64 632 q 42 836 42 767 m 368 833 q 394 667 368 749 q 467 522 421 585 q 581 405 517 453 q 718 333 644 357 q 879 306 796 306 q 1039 333 963 306 q 1178 408 1115 360 q 1288 522 1240 456 q 1360 667 1335 588 q 1379 747 1372 706 q 1386 833 1386 789 q 1360 994 1386 915 q 1288 1135 1333 1072 q 1038 1321 1190 1267 q 879 1347 961 1347 q 735 1326 813 1347 q 579 1247 657 1304 q 467 1136 515 1200 q 394 996 419 1072 q 375 916 382 957 q 368 833 368 875 z "},"P":{"ha":1007,"x_min":83,"x_max":965,"o":"m 83 1653 l 569 1653 q 860 1515 754 1653 q 938 1354 910 1450 q 965 1140 965 1258 q 949 969 965 1049 q 896 824 932 889 q 815 718 861 761 q 704 651 768 675 q 569 629 643 629 l 410 629 l 410 0 l 83 0 l 83 1653 m 410 935 l 486 935 q 536 942 511 935 q 582 971 561 950 q 613 1013 601 990 q 633 1071 625 1035 q 638 1103 636 1086 q 639 1140 639 1121 q 633 1209 639 1176 q 613 1268 626 1242 q 581 1310 599 1293 q 539 1339 564 1328 q 486 1347 517 1347 l 410 1347 l 410 935 z "},"Þ":{"ha":1007,"x_min":83,"x_max":965,"o":"m 83 0 l 83 1928 l 410 1928 l 410 1583 l 569 1583 q 860 1446 754 1583 q 938 1285 910 1381 q 965 1071 965 1189 q 949 899 965 979 q 896 754 932 819 q 815 649 861 692 q 704 582 768 606 q 569 560 643 560 l 410 560 l 410 0 l 83 0 m 410 865 l 486 865 q 536 873 511 865 q 582 901 561 881 q 613 943 601 921 q 633 1001 625 965 q 638 1034 636 1017 q 639 1071 639 1051 q 633 1140 639 1107 q 613 1199 626 1172 q 581 1241 599 1224 q 539 1269 564 1258 q 486 1278 517 1278 l 410 1278 l 410 865 z "},"Q":{"ha":1754,"x_min":42,"x_max":1713,"o":"m 42 836 q 85 1097 42 974 q 206 1325 128 1219 q 388 1506 282 1429 q 617 1624 494 1582 q 744 1656 678 1644 q 878 1667 810 1667 q 1142 1623 1018 1667 q 1368 1506 1265 1579 q 1560 1310 1486 1418 q 1669 1097 1633 1203 q 1701 969 1690 1035 q 1713 836 1713 904 q 1675 585 1713 699 q 1586 389 1638 471 q 1442 213 1525 292 q 1258 81 1360 133 q 1042 3 1157 28 l 1054 -306 l 735 -306 l 735 -1 q 513 72 618 21 q 322 204 408 124 q 174 381 236 283 q 76 596 111 478 q 51 713 60 653 q 42 836 42 774 m 368 831 q 385 692 368 763 q 436 563 403 622 q 515 456 469 504 q 615 374 560 408 q 735 319 668 339 l 735 569 l 1019 569 l 1029 322 q 1145 377 1088 340 q 1244 460 1203 414 q 1321 566 1292 513 q 1369 690 1350 619 q 1382 759 1378 724 q 1386 831 1386 794 q 1360 992 1386 914 q 1288 1133 1333 1071 q 1177 1246 1239 1199 q 1038 1321 1115 1293 q 879 1347 961 1347 q 721 1321 799 1347 q 579 1247 643 1294 q 469 1136 517 1199 q 394 993 421 1074 q 375 913 382 954 q 368 831 368 872 z "},"R":{"ha":1056,"x_min":83,"x_max":1035,"o":"m 965 1222 q 914 1011 965 1099 q 856 938 890 969 q 772 883 822 906 q 671 858 725 864 l 671 836 q 772 804 721 836 q 849 719 821 772 q 860 692 856 706 q 869 664 865 678 l 1035 0 l 708 0 l 515 699 l 410 699 l 410 0 l 83 0 l 83 1653 l 569 1653 q 698 1633 636 1653 q 810 1574 760 1613 q 894 1482 860 1533 q 947 1364 928 1431 q 965 1222 965 1296 m 410 1004 l 486 1004 q 537 1011 513 1004 q 582 1033 561 1018 q 633 1117 618 1063 q 639 1175 639 1140 q 599 1301 639 1254 q 486 1347 558 1347 l 410 1347 l 410 1004 z "},"Ŕ":{"ha":1056,"x_min":83,"x_max":1035,"o":"m 965 1222 q 914 1011 965 1099 q 856 938 890 969 q 772 883 822 906 q 671 858 725 864 l 671 836 q 772 804 721 836 q 849 719 821 772 q 860 692 856 706 q 869 664 865 678 l 1035 0 l 708 0 l 515 699 l 410 699 l 410 0 l 83 0 l 83 1653 l 569 1653 q 698 1633 636 1653 q 810 1574 760 1613 q 894 1482 860 1533 q 947 1364 928 1431 q 965 1222 965 1296 m 410 1004 l 486 1004 q 537 1011 513 1004 q 582 1033 561 1018 q 633 1117 618 1063 q 639 1175 639 1140 q 599 1301 639 1254 q 486 1347 558 1347 l 410 1347 l 410 1004 m 590 1736 l 351 1736 l 543 2168 l 844 2168 l 590 1736 z "},"Ř":{"ha":1056,"x_min":83,"x_max":1035,"o":"m 965 1222 q 914 1011 965 1099 q 856 938 890 969 q 772 883 822 906 q 671 858 725 864 l 671 836 q 772 804 721 836 q 849 719 821 772 q 860 692 856 706 q 869 664 865 678 l 1035 0 l 708 0 l 515 699 l 410 699 l 410 0 l 83 0 l 83 1653 l 569 1653 q 698 1633 636 1653 q 810 1574 760 1613 q 894 1482 860 1533 q 947 1364 928 1431 q 965 1222 965 1296 m 410 1004 l 486 1004 q 537 1011 513 1004 q 582 1033 561 1018 q 633 1117 618 1063 q 639 1175 639 1140 q 599 1301 639 1254 q 486 1347 558 1347 l 410 1347 l 410 1004 m 365 1736 l 190 2146 l 410 2146 l 528 1938 l 647 2146 l 865 2146 l 692 1736 l 365 1736 z "},"Ŗ":{"ha":1056,"x_min":83,"x_max":1035,"o":"m 965 1222 q 914 1011 965 1099 q 856 938 890 969 q 772 883 822 906 q 671 858 725 864 l 671 836 q 772 804 721 836 q 849 719 821 772 q 860 692 856 706 q 869 664 865 678 l 1035 0 l 708 0 l 515 699 l 410 699 l 410 0 l 83 0 l 83 1653 l 569 1653 q 698 1633 636 1653 q 810 1574 760 1613 q 894 1482 860 1533 q 947 1364 928 1431 q 965 1222 965 1296 m 410 1004 l 486 1004 q 537 1011 513 1004 q 582 1033 561 1018 q 633 1117 618 1063 q 639 1175 639 1140 q 599 1301 639 1254 q 486 1347 558 1347 l 410 1347 l 410 1004 m 325 -528 l 460 -97 l 725 -97 l 554 -528 l 325 -528 z "},"S":{"ha":965,"x_min":42,"x_max":924,"o":"m 561 1157 l 561 1254 q 471 1389 561 1389 q 406 1357 429 1389 q 382 1265 382 1325 q 385 1226 382 1247 q 403 1182 389 1206 q 436 1133 414 1161 q 492 1072 458 1104 q 529 1035 508 1054 q 574 992 549 1014 q 712 858 649 924 q 815 743 775 793 q 879 642 856 690 q 914 542 903 593 q 922 488 919 515 q 924 429 924 460 q 906 276 924 346 q 850 150 888 206 q 759 60 815 97 q 636 6 703 22 q 478 -14 563 -14 q 200 60 307 -14 q 60 275 94 132 q 42 435 42 344 l 42 581 l 347 581 l 347 433 q 381 308 347 353 q 475 264 411 264 q 518 270 497 264 q 553 290 539 276 q 576 322 565 303 q 593 368 588 340 q 596 395 594 381 q 597 425 597 410 q 593 476 597 454 q 576 522 589 497 q 538 574 563 547 q 482 632 514 600 q 442 668 464 649 q 396 710 421 688 q 260 837 318 779 q 163 949 203 894 q 99 1051 122 1001 q 65 1151 76 1100 q 58 1204 60 1176 q 56 1261 56 1232 q 72 1403 56 1338 q 122 1519 88 1469 q 319 1650 190 1617 q 465 1667 383 1667 q 721 1604 621 1667 q 792 1539 754 1583 q 850 1418 829 1494 q 867 1279 867 1356 l 867 1157 l 561 1157 z "},"Ś":{"ha":965,"x_min":42,"x_max":924,"o":"m 561 1157 l 561 1254 q 471 1389 561 1389 q 406 1357 429 1389 q 382 1265 382 1325 q 385 1226 382 1247 q 403 1182 389 1206 q 436 1133 414 1161 q 492 1072 458 1104 q 529 1035 508 1054 q 574 992 549 1014 q 712 858 649 924 q 815 743 775 793 q 879 642 856 690 q 914 542 903 593 q 922 488 919 515 q 924 429 924 460 q 906 276 924 346 q 850 150 888 206 q 759 60 815 97 q 636 6 703 22 q 478 -14 563 -14 q 200 60 307 -14 q 60 275 94 132 q 42 435 42 344 l 42 581 l 347 581 l 347 433 q 381 308 347 353 q 475 264 411 264 q 518 270 497 264 q 553 290 539 276 q 576 322 565 303 q 593 368 588 340 q 596 395 594 381 q 597 425 597 410 q 593 476 597 454 q 576 522 589 497 q 538 574 563 547 q 482 632 514 600 q 442 668 464 649 q 396 710 421 688 q 260 837 318 779 q 163 949 203 894 q 99 1051 122 1001 q 65 1151 76 1100 q 58 1204 60 1176 q 56 1261 56 1232 q 72 1403 56 1338 q 122 1519 88 1469 q 319 1650 190 1617 q 465 1667 383 1667 q 721 1604 621 1667 q 792 1539 754 1583 q 850 1418 829 1494 q 867 1279 867 1356 l 867 1157 l 561 1157 m 546 1736 l 307 1736 l 499 2168 l 800 2168 l 546 1736 z "},"Š":{"ha":965,"x_min":42,"x_max":924,"o":"m 561 1157 l 561 1254 q 471 1389 561 1389 q 406 1357 429 1389 q 382 1265 382 1325 q 385 1226 382 1247 q 403 1182 389 1206 q 436 1133 414 1161 q 492 1072 458 1104 q 529 1035 508 1054 q 574 992 549 1014 q 712 858 649 924 q 815 743 775 793 q 879 642 856 690 q 914 542 903 593 q 922 488 919 515 q 924 429 924 460 q 906 276 924 346 q 850 150 888 206 q 759 60 815 97 q 636 6 703 22 q 478 -14 563 -14 q 200 60 307 -14 q 60 275 94 132 q 42 435 42 344 l 42 581 l 347 581 l 347 433 q 381 308 347 353 q 475 264 411 264 q 518 270 497 264 q 553 290 539 276 q 576 322 565 303 q 593 368 588 340 q 596 395 594 381 q 597 425 597 410 q 593 476 597 454 q 576 522 589 497 q 538 574 563 547 q 482 632 514 600 q 442 668 464 649 q 396 710 421 688 q 260 837 318 779 q 163 949 203 894 q 99 1051 122 1001 q 65 1151 76 1100 q 58 1204 60 1176 q 56 1261 56 1232 q 72 1403 56 1338 q 122 1519 88 1469 q 319 1650 190 1617 q 465 1667 383 1667 q 721 1604 621 1667 q 792 1539 754 1583 q 850 1418 829 1494 q 867 1279 867 1356 l 867 1157 l 561 1157 m 321 1736 l 146 2146 l 365 2146 l 483 1938 l 603 2146 l 821 2146 l 647 1736 l 321 1736 z "},"Ş":{"ha":965,"x_min":42,"x_max":924,"o":"m 561 1157 l 561 1254 q 471 1389 561 1389 q 406 1357 429 1389 q 382 1265 382 1325 q 385 1226 382 1247 q 403 1182 389 1206 q 436 1133 414 1161 q 492 1072 458 1104 q 529 1035 508 1054 q 574 992 549 1014 q 712 858 649 924 q 815 743 775 793 q 879 642 856 690 q 914 542 903 593 q 922 488 919 515 q 924 429 924 460 q 906 276 924 346 q 850 150 888 206 q 759 60 815 97 q 636 6 703 22 q 478 -14 563 -14 q 200 60 307 -14 q 60 275 94 132 q 42 435 42 344 l 42 581 l 347 581 l 347 433 q 381 308 347 353 q 475 264 411 264 q 518 270 497 264 q 553 290 539 276 q 576 322 565 303 q 593 368 588 340 q 596 395 594 381 q 597 425 597 410 q 593 476 597 454 q 576 522 589 497 q 538 574 563 547 q 482 632 514 600 q 442 668 464 649 q 396 710 421 688 q 260 837 318 779 q 163 949 203 894 q 99 1051 122 1001 q 65 1151 76 1100 q 58 1204 60 1176 q 56 1261 56 1232 q 72 1403 56 1338 q 122 1519 88 1469 q 319 1650 190 1617 q 465 1667 383 1667 q 721 1604 621 1667 q 792 1539 754 1583 q 850 1418 829 1494 q 867 1279 867 1356 l 867 1157 l 561 1157 m 394 -276 l 393 -143 l 474 39 l 614 39 l 539 -133 q 592 -155 561 -139 q 658 -200 624 -171 q 699 -247 682 -221 q 725 -301 715 -274 q 733 -361 733 -328 q 664 -529 733 -460 q 580 -587 629 -564 q 475 -622 531 -611 q 411 -632 444 -628 q 343 -636 378 -636 l 343 -428 q 478 -406 428 -428 q 528 -349 528 -385 q 504 -306 528 -322 q 477 -290 489 -294 q 439 -279 465 -285 q 417 -276 429 -276 q 394 -276 406 -276 z "},"Ŝ":{"ha":965,"x_min":42,"x_max":924,"o":"m 561 1157 l 561 1254 q 471 1389 561 1389 q 406 1357 429 1389 q 382 1265 382 1325 q 385 1226 382 1247 q 403 1182 389 1206 q 436 1133 414 1161 q 492 1072 458 1104 q 529 1035 508 1054 q 574 992 549 1014 q 712 858 649 924 q 815 743 775 793 q 879 642 856 690 q 914 542 903 593 q 922 488 919 515 q 924 429 924 460 q 906 276 924 346 q 850 150 888 206 q 759 60 815 97 q 636 6 703 22 q 478 -14 563 -14 q 200 60 307 -14 q 60 275 94 132 q 42 435 42 344 l 42 581 l 347 581 l 347 433 q 381 308 347 353 q 475 264 411 264 q 518 270 497 264 q 553 290 539 276 q 576 322 565 303 q 593 368 588 340 q 596 395 594 381 q 597 425 597 410 q 593 476 597 454 q 576 522 589 497 q 538 574 563 547 q 482 632 514 600 q 442 668 464 649 q 396 710 421 688 q 260 837 318 779 q 163 949 203 894 q 99 1051 122 1001 q 65 1151 76 1100 q 58 1204 60 1176 q 56 1261 56 1232 q 72 1403 56 1338 q 122 1519 88 1469 q 319 1650 190 1617 q 465 1667 383 1667 q 721 1604 621 1667 q 792 1539 754 1583 q 850 1418 829 1494 q 867 1279 867 1356 l 867 1157 l 561 1157 m 133 1736 l 314 2160 l 653 2160 l 833 1736 l 607 1736 l 485 1951 l 361 1736 l 133 1736 z "},"Ș":{"ha":965,"x_min":42,"x_max":924,"o":"m 561 1157 l 561 1254 q 471 1389 561 1389 q 406 1357 429 1389 q 382 1265 382 1325 q 385 1226 382 1247 q 403 1182 389 1206 q 436 1133 414 1161 q 492 1072 458 1104 q 529 1035 508 1054 q 574 992 549 1014 q 712 858 649 924 q 815 743 775 793 q 879 642 856 690 q 914 542 903 593 q 922 488 919 515 q 924 429 924 460 q 906 276 924 346 q 850 150 888 206 q 759 60 815 97 q 636 6 703 22 q 478 -14 563 -14 q 200 60 307 -14 q 60 275 94 132 q 42 435 42 344 l 42 581 l 347 581 l 347 433 q 381 308 347 353 q 475 264 411 264 q 518 270 497 264 q 553 290 539 276 q 576 322 565 303 q 593 368 588 340 q 596 395 594 381 q 597 425 597 410 q 593 476 597 454 q 576 522 589 497 q 538 574 563 547 q 482 632 514 600 q 442 668 464 649 q 396 710 421 688 q 260 837 318 779 q 163 949 203 894 q 99 1051 122 1001 q 65 1151 76 1100 q 58 1204 60 1176 q 56 1261 56 1232 q 72 1403 56 1338 q 122 1519 88 1469 q 319 1650 190 1617 q 465 1667 383 1667 q 721 1604 621 1667 q 792 1539 754 1583 q 850 1418 829 1494 q 867 1279 867 1356 l 867 1157 l 561 1157 m 281 -528 l 415 -97 l 681 -97 l 510 -528 l 281 -528 z "},"ẞ":{"ha":986,"x_min":69,"x_max":981,"o":"m 469 28 l 469 324 q 490 309 486 311 q 511 297 493 307 q 549 285 528 288 q 553 283 551 283 q 557 283 556 283 q 565 282 561 282 q 632 338 608 282 q 654 496 654 392 q 640 631 654 575 q 622 674 633 653 q 599 703 611 696 q 585 710 592 707 q 569 713 578 713 l 476 713 l 476 1075 l 581 1375 l 396 1375 l 396 0 l 69 0 l 69 1653 l 964 1653 l 964 1494 l 726 847 q 797 815 763 835 q 858 771 831 796 q 967 569 939 692 q 981 435 981 507 q 959 274 981 342 q 915 165 938 206 q 844 75 888 117 q 740 8 801 33 q 624 -14 686 -14 q 469 28 542 -14 z "},"T":{"ha":882,"x_min":21,"x_max":861,"o":"m 278 0 l 278 1347 l 21 1347 l 21 1653 l 861 1653 l 861 1347 l 604 1347 l 604 0 l 278 0 z "},"Ŧ":{"ha":882,"x_min":21,"x_max":861,"o":"m 147 922 l 147 1172 l 278 1172 l 278 1347 l 21 1347 l 21 1653 l 861 1653 l 861 1347 l 604 1347 l 604 1172 l 735 1172 l 735 922 l 604 922 l 604 0 l 278 0 l 278 922 l 147 922 z "},"Ť":{"ha":882,"x_min":21,"x_max":861,"o":"m 278 0 l 278 1347 l 21 1347 l 21 1653 l 861 1653 l 861 1347 l 604 1347 l 604 0 l 278 0 m 279 1736 l 104 2146 l 324 2146 l 442 1938 l 561 2146 l 779 2146 l 606 1736 l 279 1736 z "},"Ţ":{"ha":882,"x_min":21,"x_max":861,"o":"m 278 0 l 278 1347 l 21 1347 l 21 1653 l 861 1653 l 861 1347 l 604 1347 l 604 0 l 278 0 m 353 -276 l 351 -143 l 432 39 l 572 39 l 497 -133 q 551 -155 519 -139 q 617 -200 582 -171 q 657 -247 640 -221 q 683 -301 674 -274 q 692 -361 692 -328 q 622 -529 692 -460 q 538 -587 588 -564 q 433 -622 489 -611 q 369 -632 403 -628 q 301 -636 336 -636 l 301 -428 q 436 -406 386 -428 q 486 -349 486 -385 q 463 -306 486 -322 q 435 -290 447 -294 q 397 -279 424 -285 q 376 -276 388 -276 q 353 -276 364 -276 z "},"Ț":{"ha":882,"x_min":21,"x_max":861,"o":"m 278 0 l 278 1347 l 21 1347 l 21 1653 l 861 1653 l 861 1347 l 604 1347 l 604 0 l 278 0 m 239 -528 l 374 -97 l 639 -97 l 468 -528 l 239 -528 z "},"U":{"ha":1007,"x_min":69,"x_max":938,"o":"m 69 408 l 69 1653 l 396 1653 l 396 408 q 418 346 396 372 q 440 324 426 333 q 471 311 453 315 q 504 306 488 306 q 580 333 549 306 q 611 408 611 360 l 611 1653 l 938 1653 l 938 408 q 863 150 938 253 q 772 62 824 97 q 651 6 721 26 q 504 -14 585 -14 q 353 6 419 -14 q 236 61 288 26 q 89 267 128 135 q 69 408 69 332 z "},"Ú":{"ha":1007,"x_min":69,"x_max":938,"o":"m 69 408 l 69 1653 l 396 1653 l 396 408 q 418 346 396 372 q 440 324 426 333 q 471 311 453 315 q 504 306 488 306 q 580 333 549 306 q 611 408 611 360 l 611 1653 l 938 1653 l 938 408 q 863 150 938 253 q 772 62 824 97 q 651 6 721 26 q 504 -14 585 -14 q 353 6 419 -14 q 236 61 288 26 q 89 267 128 135 q 69 408 69 332 m 567 1736 l 328 1736 l 519 2168 l 821 2168 l 567 1736 z "},"Ŭ":{"ha":1007,"x_min":69,"x_max":938,"o":"m 69 408 l 69 1653 l 396 1653 l 396 408 q 418 346 396 372 q 440 324 426 333 q 471 311 453 315 q 504 306 488 306 q 580 333 549 306 q 611 408 611 360 l 611 1653 l 938 1653 l 938 408 q 863 150 938 253 q 772 62 824 97 q 651 6 721 26 q 504 -14 585 -14 q 353 6 419 -14 q 236 61 288 26 q 89 267 128 135 q 69 408 69 332 m 603 2058 l 810 2058 q 792 1948 810 1996 q 753 1868 775 1900 q 690 1799 726 1829 q 604 1753 653 1768 q 504 1736 556 1736 q 324 1799 400 1736 q 218 1956 249 1858 q 203 2058 203 2000 l 410 2058 q 428 1996 410 2022 q 450 1971 439 1979 q 475 1957 461 1963 q 506 1951 489 1951 q 536 1956 519 1951 q 564 1972 553 1961 q 599 2025 590 1994 q 603 2058 603 2042 z "},"Û":{"ha":1007,"x_min":69,"x_max":938,"o":"m 69 408 l 69 1653 l 396 1653 l 396 408 q 418 346 396 372 q 440 324 426 333 q 471 311 453 315 q 504 306 488 306 q 580 333 549 306 q 611 408 611 360 l 611 1653 l 938 1653 l 938 408 q 863 150 938 253 q 772 62 824 97 q 651 6 721 26 q 504 -14 585 -14 q 353 6 419 -14 q 236 61 288 26 q 89 267 128 135 q 69 408 69 332 m 154 1736 l 335 2160 l 674 2160 l 854 1736 l 628 1736 l 506 1951 l 382 1736 l 154 1736 z "},"Ü":{"ha":1007,"x_min":69,"x_max":938,"o":"m 69 408 l 69 1653 l 396 1653 l 396 408 q 418 346 396 372 q 440 324 426 333 q 471 311 453 315 q 504 306 488 306 q 580 333 549 306 q 611 408 611 360 l 611 1653 l 938 1653 l 938 408 q 863 150 938 253 q 772 62 824 97 q 651 6 721 26 q 504 -14 585 -14 q 353 6 419 -14 q 236 61 288 26 q 89 267 128 135 q 69 408 69 332 m 129 1904 q 160 2003 129 1960 q 238 2060 189 2043 q 289 2068 263 2068 q 383 2038 340 2068 q 419 2002 406 2022 q 440 1957 432 1982 q 449 1904 449 1932 q 419 1806 449 1849 q 385 1768 407 1785 q 342 1744 363 1751 q 289 1736 318 1736 q 234 1746 256 1736 q 194 1769 213 1756 q 138 1851 156 1797 q 129 1904 129 1876 m 554 1904 q 585 2003 554 1960 q 663 2060 614 2043 q 714 2068 688 2068 q 808 2038 765 2068 q 844 2002 831 2022 q 865 1957 857 1982 q 874 1904 874 1932 q 844 1806 874 1849 q 810 1768 832 1785 q 767 1744 788 1751 q 714 1736 743 1736 q 659 1746 681 1736 q 619 1769 638 1756 q 563 1851 581 1797 q 554 1904 554 1876 z "},"Ù":{"ha":1007,"x_min":69,"x_max":938,"o":"m 69 408 l 69 1653 l 396 1653 l 396 408 q 418 346 396 372 q 440 324 426 333 q 471 311 453 315 q 504 306 488 306 q 580 333 549 306 q 611 408 611 360 l 611 1653 l 938 1653 l 938 408 q 863 150 938 253 q 772 62 824 97 q 651 6 721 26 q 504 -14 585 -14 q 353 6 419 -14 q 236 61 288 26 q 89 267 128 135 q 69 408 69 332 m 432 1736 l 178 2168 l 479 2168 l 671 1736 l 432 1736 z "},"Ű":{"ha":1007,"x_min":69,"x_max":938,"o":"m 69 408 l 69 1653 l 396 1653 l 396 408 q 418 346 396 372 q 440 324 426 333 q 471 311 453 315 q 504 306 488 306 q 580 333 549 306 q 611 408 611 360 l 611 1653 l 938 1653 l 938 408 q 863 150 938 253 q 772 62 824 97 q 651 6 721 26 q 504 -14 585 -14 q 353 6 419 -14 q 236 61 288 26 q 89 267 128 135 q 69 408 69 332 m 140 1736 l 281 2138 l 540 2138 l 340 1736 l 140 1736 m 467 1736 l 608 2138 l 868 2138 l 667 1736 l 467 1736 z "},"Ū":{"ha":1007,"x_min":69,"x_max":938,"o":"m 69 408 l 69 1653 l 396 1653 l 396 408 q 418 346 396 372 q 440 324 426 333 q 471 311 453 315 q 504 306 488 306 q 580 333 549 306 q 611 408 611 360 l 611 1653 l 938 1653 l 938 408 q 863 150 938 253 q 772 62 824 97 q 651 6 721 26 q 504 -14 585 -14 q 353 6 419 -14 q 236 61 288 26 q 89 267 128 135 q 69 408 69 332 m 210 1764 l 210 2014 l 797 2014 l 797 1764 l 210 1764 z "},"Ų":{"ha":1007,"x_min":69,"x_max":938,"o":"m 69 408 l 69 1653 l 396 1653 l 396 408 q 418 346 396 372 q 440 324 426 333 q 471 311 453 315 q 504 306 488 306 q 580 333 549 306 q 611 408 611 360 l 611 1653 l 938 1653 l 938 408 q 863 150 938 253 q 772 62 824 97 q 651 6 721 26 q 504 -14 585 -14 q 353 6 419 -14 q 236 61 288 26 q 89 267 128 135 q 69 408 69 332 m 706 -235 l 706 -440 q 583 -429 638 -440 q 485 -399 529 -418 q 404 -350 433 -378 q 358 -289 375 -322 q 340 -215 340 -256 q 382 -78 340 -143 q 431 -19 401 -46 q 494 28 461 7 q 571 60 531 49 l 736 42 q 682 22 704 32 q 633 -10 660 11 q 569 -92 586 -47 q 561 -137 561 -114 q 570 -178 561 -162 q 586 -199 579 -193 q 618 -219 599 -211 q 656 -231 638 -228 q 679 -234 667 -233 q 706 -235 692 -235 z "},"Ů":{"ha":1007,"x_min":69,"x_max":938,"o":"m 69 408 l 69 1653 l 396 1653 l 396 408 q 418 346 396 372 q 440 324 426 333 q 471 311 453 315 q 504 306 488 306 q 580 333 549 306 q 611 408 611 360 l 611 1653 l 938 1653 l 938 408 q 863 150 938 253 q 772 62 824 97 q 651 6 721 26 q 504 -14 585 -14 q 353 6 419 -14 q 236 61 288 26 q 89 267 128 135 q 69 408 69 332 m 269 1985 q 314 2128 269 2065 q 365 2180 335 2158 q 428 2211 396 2201 q 503 2222 464 2222 q 578 2211 542 2222 q 643 2178 615 2200 q 693 2128 672 2154 q 726 2063 714 2101 q 738 1985 738 2026 q 694 1836 738 1900 q 644 1784 675 1808 q 579 1749 614 1760 q 542 1740 561 1743 q 503 1736 524 1736 q 426 1749 461 1736 q 364 1783 392 1763 q 281 1906 303 1829 q 269 1985 269 1943 m 446 1979 q 457 1939 446 1956 q 468 1925 461 1932 q 486 1915 475 1918 q 504 1913 496 1913 q 540 1925 524 1913 q 560 1958 554 1936 q 563 1979 563 1968 q 551 2019 563 2003 q 540 2033 547 2026 q 524 2043 533 2040 q 504 2046 513 2046 q 469 2033 485 2046 q 449 2001 454 2022 q 446 1979 446 1990 z "},"Ũ":{"ha":1007,"x_min":69,"x_max":938,"o":"m 69 408 l 69 1653 l 396 1653 l 396 408 q 418 346 396 372 q 440 324 426 333 q 471 311 453 315 q 504 306 488 306 q 580 333 549 306 q 611 408 611 360 l 611 1653 l 938 1653 l 938 408 q 863 150 938 253 q 772 62 824 97 q 651 6 721 26 q 504 -14 585 -14 q 353 6 419 -14 q 236 61 288 26 q 89 267 128 135 q 69 408 69 332 m 379 1736 l 169 1736 q 199 1938 169 1858 q 235 2000 211 1971 q 286 2042 258 2029 q 349 2054 317 2054 q 410 2044 382 2054 q 461 2022 438 2033 q 504 1997 483 2011 q 549 1971 525 1982 q 565 1964 557 1967 q 582 1961 574 1961 q 622 1988 607 1961 q 638 2054 638 2015 l 846 2054 q 665 1736 846 1736 q 610 1744 639 1736 q 553 1769 582 1751 q 513 1797 535 1781 q 472 1821 490 1813 q 436 1831 450 1831 q 401 1814 414 1831 q 389 1794 393 1804 q 382 1768 385 1783 q 379 1736 379 1754 z "},"V":{"ha":1011,"x_min":14,"x_max":997,"o":"m 340 1653 l 471 588 q 476 546 474 572 q 481 491 479 519 q 485 442 483 463 q 489 363 488 403 q 492 283 490 322 q 492 246 492 264 l 492 208 l 519 208 q 520 263 519 240 q 522 307 521 285 q 524 363 522 329 q 526 440 524 399 q 533 518 529 482 q 536 554 535 536 q 540 588 538 571 l 671 1653 l 997 1653 l 739 0 l 272 0 l 14 1653 l 340 1653 z "},"W":{"ha":1501,"x_min":14,"x_max":1488,"o":"m 701 492 l 642 0 l 244 0 l 14 1653 l 340 1653 l 438 810 q 442 760 439 793 q 446 704 444 726 q 447 673 446 689 q 447 642 447 657 q 449 608 447 625 q 449 572 449 590 l 449 499 l 447 208 l 475 208 q 476 267 475 236 q 476 326 476 296 q 479 451 476 389 q 485 576 482 514 q 493 698 488 631 q 506 808 499 765 l 625 1653 l 876 1653 l 996 808 q 1008 698 1003 765 q 1017 576 1014 631 q 1022 451 1019 514 q 1025 326 1025 389 q 1026 267 1025 296 q 1026 208 1026 236 l 1054 208 l 1051 544 l 1051 585 q 1053 610 1051 596 q 1053 636 1053 622 q 1055 697 1053 672 q 1060 757 1057 722 q 1061 784 1060 771 q 1064 810 1063 797 l 1161 1653 l 1488 1653 l 1257 0 l 860 0 l 801 492 q 794 565 799 522 q 786 651 790 607 q 781 729 782 694 q 772 854 775 793 q 768 978 769 915 q 767 1036 767 1006 q 765 1092 765 1064 l 738 1092 q 737 980 738 1042 q 732 854 736 918 q 724 730 728 792 q 714 606 719 668 q 708 547 711 576 q 701 492 704 518 z "},"Ẃ":{"ha":1501,"x_min":14,"x_max":1488,"o":"m 701 492 l 642 0 l 244 0 l 14 1653 l 340 1653 l 438 810 q 442 760 439 793 q 446 704 444 726 q 447 673 446 689 q 447 642 447 657 q 449 608 447 625 q 449 572 449 590 l 449 499 l 447 208 l 475 208 q 476 267 475 236 q 476 326 476 296 q 479 451 476 389 q 485 576 482 514 q 493 698 488 631 q 506 808 499 765 l 625 1653 l 876 1653 l 996 808 q 1008 698 1003 765 q 1017 576 1014 631 q 1022 451 1019 514 q 1025 326 1025 389 q 1026 267 1025 296 q 1026 208 1026 236 l 1054 208 l 1051 544 l 1051 585 q 1053 610 1051 596 q 1053 636 1053 622 q 1055 697 1053 672 q 1060 757 1057 722 q 1061 784 1060 771 q 1064 810 1063 797 l 1161 1653 l 1488 1653 l 1257 0 l 860 0 l 801 492 q 794 565 799 522 q 786 651 790 607 q 781 729 782 694 q 772 854 775 793 q 768 978 769 915 q 767 1036 767 1006 q 765 1092 765 1064 l 738 1092 q 737 980 738 1042 q 732 854 736 918 q 724 730 728 792 q 714 606 719 668 q 708 547 711 576 q 701 492 704 518 m 814 1736 l 575 1736 l 767 2168 l 1068 2168 l 814 1736 z "},"Ŵ":{"ha":1501,"x_min":14,"x_max":1488,"o":"m 701 492 l 642 0 l 244 0 l 14 1653 l 340 1653 l 438 810 q 442 760 439 793 q 446 704 444 726 q 447 673 446 689 q 447 642 447 657 q 449 608 447 625 q 449 572 449 590 l 449 499 l 447 208 l 475 208 q 476 267 475 236 q 476 326 476 296 q 479 451 476 389 q 485 576 482 514 q 493 698 488 631 q 506 808 499 765 l 625 1653 l 876 1653 l 996 808 q 1008 698 1003 765 q 1017 576 1014 631 q 1022 451 1019 514 q 1025 326 1025 389 q 1026 267 1025 296 q 1026 208 1026 236 l 1054 208 l 1051 544 l 1051 585 q 1053 610 1051 596 q 1053 636 1053 622 q 1055 697 1053 672 q 1060 757 1057 722 q 1061 784 1060 771 q 1064 810 1063 797 l 1161 1653 l 1488 1653 l 1257 0 l 860 0 l 801 492 q 794 565 799 522 q 786 651 790 607 q 781 729 782 694 q 772 854 775 793 q 768 978 769 915 q 767 1036 767 1006 q 765 1092 765 1064 l 738 1092 q 737 980 738 1042 q 732 854 736 918 q 724 730 728 792 q 714 606 719 668 q 708 547 711 576 q 701 492 704 518 m 401 1736 l 582 2160 l 921 2160 l 1101 1736 l 875 1736 l 753 1951 l 629 1736 l 401 1736 z "},"Ẅ":{"ha":1501,"x_min":14,"x_max":1488,"o":"m 701 492 l 642 0 l 244 0 l 14 1653 l 340 1653 l 438 810 q 442 760 439 793 q 446 704 444 726 q 447 673 446 689 q 447 642 447 657 q 449 608 447 625 q 449 572 449 590 l 449 499 l 447 208 l 475 208 q 476 267 475 236 q 476 326 476 296 q 479 451 476 389 q 485 576 482 514 q 493 698 488 631 q 506 808 499 765 l 625 1653 l 876 1653 l 996 808 q 1008 698 1003 765 q 1017 576 1014 631 q 1022 451 1019 514 q 1025 326 1025 389 q 1026 267 1025 296 q 1026 208 1026 236 l 1054 208 l 1051 544 l 1051 585 q 1053 610 1051 596 q 1053 636 1053 622 q 1055 697 1053 672 q 1060 757 1057 722 q 1061 784 1060 771 q 1064 810 1063 797 l 1161 1653 l 1488 1653 l 1257 0 l 860 0 l 801 492 q 794 565 799 522 q 786 651 790 607 q 781 729 782 694 q 772 854 775 793 q 768 978 769 915 q 767 1036 767 1006 q 765 1092 765 1064 l 738 1092 q 737 980 738 1042 q 732 854 736 918 q 724 730 728 792 q 714 606 719 668 q 708 547 711 576 q 701 492 704 518 m 376 1904 q 407 2003 376 1960 q 485 2060 436 2043 q 536 2068 510 2068 q 631 2038 588 2068 q 666 2002 653 2022 q 688 1957 679 1982 q 696 1904 696 1932 q 667 1806 696 1849 q 632 1768 654 1785 q 589 1744 610 1751 q 536 1736 565 1736 q 481 1746 503 1736 q 442 1769 460 1756 q 385 1851 403 1797 q 376 1904 376 1876 m 801 1904 q 832 2003 801 1960 q 910 2060 861 2043 q 961 2068 935 2068 q 1056 2038 1013 2068 q 1091 2002 1078 2022 q 1113 1957 1104 1982 q 1121 1904 1121 1932 q 1092 1806 1121 1849 q 1057 1768 1079 1785 q 1014 1744 1035 1751 q 961 1736 990 1736 q 906 1746 928 1736 q 867 1769 885 1756 q 810 1851 828 1797 q 801 1904 801 1876 z "},"Ẁ":{"ha":1501,"x_min":14,"x_max":1488,"o":"m 701 492 l 642 0 l 244 0 l 14 1653 l 340 1653 l 438 810 q 442 760 439 793 q 446 704 444 726 q 447 673 446 689 q 447 642 447 657 q 449 608 447 625 q 449 572 449 590 l 449 499 l 447 208 l 475 208 q 476 267 475 236 q 476 326 476 296 q 479 451 476 389 q 485 576 482 514 q 493 698 488 631 q 506 808 499 765 l 625 1653 l 876 1653 l 996 808 q 1008 698 1003 765 q 1017 576 1014 631 q 1022 451 1019 514 q 1025 326 1025 389 q 1026 267 1025 296 q 1026 208 1026 236 l 1054 208 l 1051 544 l 1051 585 q 1053 610 1051 596 q 1053 636 1053 622 q 1055 697 1053 672 q 1060 757 1057 722 q 1061 784 1060 771 q 1064 810 1063 797 l 1161 1653 l 1488 1653 l 1257 0 l 860 0 l 801 492 q 794 565 799 522 q 786 651 790 607 q 781 729 782 694 q 772 854 775 793 q 768 978 769 915 q 767 1036 767 1006 q 765 1092 765 1064 l 738 1092 q 737 980 738 1042 q 732 854 736 918 q 724 730 728 792 q 714 606 719 668 q 708 547 711 576 q 701 492 704 518 m 679 1736 l 425 2168 l 726 2168 l 918 1736 l 679 1736 z "},"X":{"ha":1093,"x_min":42,"x_max":1051,"o":"m 375 1653 l 507 1260 q 517 1225 513 1244 q 525 1192 522 1206 q 529 1167 528 1172 q 532 1154 531 1163 q 536 1118 533 1146 q 537 1101 536 1110 q 538 1083 538 1092 l 565 1083 q 571 1156 565 1119 q 578 1198 574 1176 q 586 1229 583 1219 q 592 1246 589 1238 q 596 1261 593 1253 l 725 1653 l 1051 1653 l 731 826 l 1051 0 l 725 0 l 593 432 q 583 468 588 449 q 575 506 578 488 q 571 529 572 522 q 568 545 569 536 q 565 581 567 554 q 564 597 564 589 q 563 614 563 606 l 535 614 q 534 567 535 583 q 532 525 533 550 q 526 490 529 504 q 519 457 524 475 q 517 443 518 450 q 513 431 514 436 l 375 0 l 42 0 l 363 826 l 42 1653 l 375 1653 z "},"Y":{"ha":983,"x_min":0,"x_max":983,"o":"m 326 1653 l 433 1199 q 445 1146 442 1165 q 452 1106 449 1126 q 461 1049 456 1086 q 471 969 467 1013 q 476 896 475 926 q 478 861 476 879 q 478 826 478 843 l 506 826 q 508 897 506 857 q 514 971 510 936 q 522 1048 517 1008 q 535 1126 526 1088 q 542 1163 538 1144 q 550 1199 546 1181 l 657 1653 l 983 1653 l 656 582 l 656 0 l 329 0 l 329 582 l 0 1653 l 326 1653 z "},"Ý":{"ha":983,"x_min":0,"x_max":983,"o":"m 326 1653 l 433 1199 q 445 1146 442 1165 q 452 1106 449 1126 q 461 1049 456 1086 q 471 969 467 1013 q 476 896 475 926 q 478 861 476 879 q 478 826 478 843 l 506 826 q 508 897 506 857 q 514 971 510 936 q 522 1048 517 1008 q 535 1126 526 1088 q 542 1163 538 1144 q 550 1199 546 1181 l 657 1653 l 983 1653 l 656 582 l 656 0 l 329 0 l 329 582 l 0 1653 l 326 1653 m 554 1736 l 315 1736 l 507 2168 l 808 2168 l 554 1736 z "},"Ŷ":{"ha":983,"x_min":0,"x_max":983,"o":"m 326 1653 l 433 1199 q 445 1146 442 1165 q 452 1106 449 1126 q 461 1049 456 1086 q 471 969 467 1013 q 476 896 475 926 q 478 861 476 879 q 478 826 478 843 l 506 826 q 508 897 506 857 q 514 971 510 936 q 522 1048 517 1008 q 535 1126 526 1088 q 542 1163 538 1144 q 550 1199 546 1181 l 657 1653 l 983 1653 l 656 582 l 656 0 l 329 0 l 329 582 l 0 1653 l 326 1653 m 142 1736 l 322 2160 l 661 2160 l 842 1736 l 615 1736 l 493 1951 l 369 1736 l 142 1736 z "},"Ÿ":{"ha":983,"x_min":0,"x_max":983,"o":"m 326 1653 l 433 1199 q 445 1146 442 1165 q 452 1106 449 1126 q 461 1049 456 1086 q 471 969 467 1013 q 476 896 475 926 q 478 861 476 879 q 478 826 478 843 l 506 826 q 508 897 506 857 q 514 971 510 936 q 522 1048 517 1008 q 535 1126 526 1088 q 542 1163 538 1144 q 550 1199 546 1181 l 657 1653 l 983 1653 l 656 582 l 656 0 l 329 0 l 329 582 l 0 1653 l 326 1653 m 117 1904 q 147 2003 117 1960 q 225 2060 176 2043 q 276 2068 250 2068 q 371 2038 328 2068 q 406 2002 393 2022 q 428 1957 419 1982 q 436 1904 436 1932 q 407 1806 436 1849 q 372 1768 394 1785 q 329 1744 350 1751 q 276 1736 306 1736 q 222 1746 243 1736 q 182 1769 200 1756 q 125 1851 143 1797 q 117 1904 117 1876 m 542 1904 q 572 2003 542 1960 q 650 2060 601 2043 q 701 2068 675 2068 q 796 2038 753 2068 q 831 2002 818 2022 q 853 1957 844 1982 q 861 1904 861 1932 q 832 1806 861 1849 q 797 1768 819 1785 q 754 1744 775 1751 q 701 1736 731 1736 q 647 1746 668 1736 q 607 1769 625 1756 q 550 1851 568 1797 q 542 1904 542 1876 z "},"Ỳ":{"ha":983,"x_min":0,"x_max":983,"o":"m 326 1653 l 433 1199 q 445 1146 442 1165 q 452 1106 449 1126 q 461 1049 456 1086 q 471 969 467 1013 q 476 896 475 926 q 478 861 476 879 q 478 826 478 843 l 506 826 q 508 897 506 857 q 514 971 510 936 q 522 1048 517 1008 q 535 1126 526 1088 q 542 1163 538 1144 q 550 1199 546 1181 l 657 1653 l 983 1653 l 656 582 l 656 0 l 329 0 l 329 582 l 0 1653 l 326 1653 m 419 1736 l 165 2168 l 467 2168 l 658 1736 l 419 1736 z "},"Z":{"ha":924,"x_min":42,"x_max":882,"o":"m 42 0 l 42 167 l 488 1347 l 56 1347 l 56 1653 l 868 1653 l 868 1486 l 422 306 l 882 306 l 882 0 l 42 0 z "},"Ź":{"ha":924,"x_min":42,"x_max":882,"o":"m 42 0 l 42 167 l 488 1347 l 56 1347 l 56 1653 l 868 1653 l 868 1486 l 422 306 l 882 306 l 882 0 l 42 0 m 525 1736 l 286 1736 l 478 2168 l 779 2168 l 525 1736 z "},"Ž":{"ha":924,"x_min":42,"x_max":882,"o":"m 42 0 l 42 167 l 488 1347 l 56 1347 l 56 1653 l 868 1653 l 868 1486 l 422 306 l 882 306 l 882 0 l 42 0 m 300 1736 l 125 2146 l 344 2146 l 463 1938 l 582 2146 l 800 2146 l 626 1736 l 300 1736 z "},"Ż":{"ha":924,"x_min":42,"x_max":882,"o":"m 42 0 l 42 167 l 488 1347 l 56 1347 l 56 1653 l 868 1653 l 868 1486 l 422 306 l 882 306 l 882 0 l 42 0 m 289 1918 q 322 2025 289 1978 q 359 2064 336 2047 q 407 2088 382 2081 q 463 2096 433 2096 q 565 2064 518 2096 q 628 1976 610 2032 q 636 1918 636 1949 q 588 1789 636 1842 q 463 1736 539 1736 q 360 1771 403 1736 q 322 1809 338 1788 q 297 1861 307 1831 q 289 1918 289 1888 z "},"a":{"ha":942,"x_min":35,"x_max":872,"o":"m 35 314 q 54 447 35 386 q 115 556 74 507 q 219 638 157 604 q 365 697 281 672 q 457 719 408 710 q 560 735 506 728 l 560 826 q 555 858 560 840 q 543 885 550 875 q 525 905 535 896 q 499 919 515 914 q 468 924 482 924 q 438 919 456 924 q 411 907 421 915 q 381 861 389 890 q 375 831 375 844 l 375 799 l 69 799 l 69 881 q 87 997 69 942 q 138 1094 104 1053 q 333 1208 206 1176 q 399 1219 364 1215 q 472 1222 435 1222 q 768 1132 663 1222 q 872 881 872 1042 l 872 0 l 560 0 q 563 30 560 13 q 569 60 565 47 q 581 90 575 75 q 596 121 588 104 q 615 149 603 133 l 599 163 q 553 98 576 124 q 504 51 531 72 q 449 16 479 31 q 382 -6 419 1 q 348 -12 365 -10 q 313 -14 331 -14 q 223 -1 267 -14 q 140 44 179 13 q 82 113 106 71 q 47 204 58 156 q 38 257 40 229 q 35 314 35 285 m 354 361 q 359 323 354 340 q 371 297 364 306 q 419 263 389 269 q 451 257 436 257 q 560 292 499 257 l 560 549 q 485 521 518 535 q 426 488 451 507 q 387 451 404 471 q 363 408 369 432 q 354 361 354 383 z "},"á":{"ha":942,"x_min":35,"x_max":872,"o":"m 35 314 q 54 447 35 386 q 115 556 74 507 q 219 638 157 604 q 365 697 281 672 q 457 719 408 710 q 560 735 506 728 l 560 826 q 555 858 560 840 q 543 885 550 875 q 525 905 535 896 q 499 919 515 914 q 468 924 482 924 q 438 919 456 924 q 411 907 421 915 q 381 861 389 890 q 375 831 375 844 l 375 799 l 69 799 l 69 881 q 87 997 69 942 q 138 1094 104 1053 q 333 1208 206 1176 q 399 1219 364 1215 q 472 1222 435 1222 q 768 1132 663 1222 q 872 881 872 1042 l 872 0 l 560 0 q 563 30 560 13 q 569 60 565 47 q 581 90 575 75 q 596 121 588 104 q 615 149 603 133 l 599 163 q 553 98 576 124 q 504 51 531 72 q 449 16 479 31 q 382 -6 419 1 q 348 -12 365 -10 q 313 -14 331 -14 q 223 -1 267 -14 q 140 44 179 13 q 82 113 106 71 q 47 204 58 156 q 38 257 40 229 q 35 314 35 285 m 354 361 q 359 323 354 340 q 371 297 364 306 q 419 263 389 269 q 451 257 436 257 q 560 292 499 257 l 560 549 q 485 521 518 535 q 426 488 451 507 q 387 451 404 471 q 363 408 369 432 q 354 361 354 383 m 532 1292 l 310 1292 l 489 1694 l 769 1694 l 532 1292 z "},"ă":{"ha":942,"x_min":35,"x_max":872,"o":"m 35 314 q 54 447 35 386 q 115 556 74 507 q 219 638 157 604 q 365 697 281 672 q 457 719 408 710 q 560 735 506 728 l 560 826 q 555 858 560 840 q 543 885 550 875 q 525 905 535 896 q 499 919 515 914 q 468 924 482 924 q 438 919 456 924 q 411 907 421 915 q 381 861 389 890 q 375 831 375 844 l 375 799 l 69 799 l 69 881 q 87 997 69 942 q 138 1094 104 1053 q 333 1208 206 1176 q 399 1219 364 1215 q 472 1222 435 1222 q 768 1132 663 1222 q 872 881 872 1042 l 872 0 l 560 0 q 563 30 560 13 q 569 60 565 47 q 581 90 575 75 q 596 121 588 104 q 615 149 603 133 l 599 163 q 553 98 576 124 q 504 51 531 72 q 449 16 479 31 q 382 -6 419 1 q 348 -12 365 -10 q 313 -14 331 -14 q 223 -1 267 -14 q 140 44 179 13 q 82 113 106 71 q 47 204 58 156 q 38 257 40 229 q 35 314 35 285 m 354 361 q 359 323 354 340 q 371 297 364 306 q 419 263 389 269 q 451 257 436 257 q 560 292 499 257 l 560 549 q 485 521 518 535 q 426 488 451 507 q 387 451 404 471 q 363 408 369 432 q 354 361 354 383 m 558 1583 l 746 1583 q 694 1410 746 1483 q 638 1348 669 1374 q 560 1307 606 1322 q 468 1292 518 1292 q 376 1308 417 1292 q 306 1347 335 1324 q 247 1410 272 1374 q 210 1490 221 1446 q 199 1535 203 1513 q 196 1583 196 1558 l 383 1583 q 400 1526 383 1550 q 442 1492 418 1499 q 469 1486 458 1486 q 499 1491 483 1486 q 524 1506 514 1496 q 542 1526 536 1518 q 554 1553 549 1535 q 558 1583 558 1569 z "},"â":{"ha":942,"x_min":35,"x_max":872,"o":"m 35 314 q 54 447 35 386 q 115 556 74 507 q 219 638 157 604 q 365 697 281 672 q 457 719 408 710 q 560 735 506 728 l 560 826 q 555 858 560 840 q 543 885 550 875 q 525 905 535 896 q 499 919 515 914 q 468 924 482 924 q 438 919 456 924 q 411 907 421 915 q 381 861 389 890 q 375 831 375 844 l 375 799 l 69 799 l 69 881 q 87 997 69 942 q 138 1094 104 1053 q 333 1208 206 1176 q 399 1219 364 1215 q 472 1222 435 1222 q 768 1132 663 1222 q 872 881 872 1042 l 872 0 l 560 0 q 563 30 560 13 q 569 60 565 47 q 581 90 575 75 q 596 121 588 104 q 615 149 603 133 l 599 163 q 553 98 576 124 q 504 51 531 72 q 449 16 479 31 q 382 -6 419 1 q 348 -12 365 -10 q 313 -14 331 -14 q 223 -1 267 -14 q 140 44 179 13 q 82 113 106 71 q 47 204 58 156 q 38 257 40 229 q 35 314 35 285 m 354 361 q 359 323 354 340 q 371 297 364 306 q 419 263 389 269 q 451 257 436 257 q 560 292 499 257 l 560 549 q 485 521 518 535 q 426 488 451 507 q 387 451 404 471 q 363 408 369 432 q 354 361 354 383 m 144 1292 l 313 1686 l 628 1686 l 796 1292 l 585 1292 l 471 1492 l 356 1292 l 144 1292 z "},"ä":{"ha":942,"x_min":35,"x_max":872,"o":"m 35 314 q 54 447 35 386 q 115 556 74 507 q 219 638 157 604 q 365 697 281 672 q 457 719 408 710 q 560 735 506 728 l 560 826 q 555 858 560 840 q 543 885 550 875 q 525 905 535 896 q 499 919 515 914 q 468 924 482 924 q 438 919 456 924 q 411 907 421 915 q 381 861 389 890 q 375 831 375 844 l 375 799 l 69 799 l 69 881 q 87 997 69 942 q 138 1094 104 1053 q 333 1208 206 1176 q 399 1219 364 1215 q 472 1222 435 1222 q 768 1132 663 1222 q 872 881 872 1042 l 872 0 l 560 0 q 563 30 560 13 q 569 60 565 47 q 581 90 575 75 q 596 121 588 104 q 615 149 603 133 l 599 163 q 553 98 576 124 q 504 51 531 72 q 449 16 479 31 q 382 -6 419 1 q 348 -12 365 -10 q 313 -14 331 -14 q 223 -1 267 -14 q 140 44 179 13 q 82 113 106 71 q 47 204 58 156 q 38 257 40 229 q 35 314 35 285 m 354 361 q 359 323 354 340 q 371 297 364 306 q 419 263 389 269 q 451 257 436 257 q 560 292 499 257 l 560 549 q 485 521 518 535 q 426 488 451 507 q 387 451 404 471 q 363 408 369 432 q 354 361 354 383 m 99 1460 q 129 1558 99 1515 q 207 1615 158 1599 q 258 1624 232 1624 q 353 1593 310 1624 q 388 1558 375 1578 q 410 1513 401 1538 q 418 1460 418 1488 q 389 1361 418 1404 q 354 1324 376 1340 q 311 1300 332 1307 q 258 1292 288 1292 q 203 1301 225 1292 q 164 1325 182 1311 q 107 1407 125 1353 q 99 1460 99 1432 m 524 1460 q 554 1558 524 1515 q 632 1615 583 1599 q 683 1624 657 1624 q 778 1593 735 1624 q 813 1558 800 1578 q 835 1513 826 1538 q 843 1460 843 1488 q 814 1361 843 1404 q 779 1324 801 1340 q 736 1300 757 1307 q 683 1292 713 1292 q 628 1301 650 1292 q 589 1325 607 1311 q 532 1407 550 1353 q 524 1460 524 1432 z "},"à":{"ha":942,"x_min":35,"x_max":872,"o":"m 35 314 q 54 447 35 386 q 115 556 74 507 q 219 638 157 604 q 365 697 281 672 q 457 719 408 710 q 560 735 506 728 l 560 826 q 555 858 560 840 q 543 885 550 875 q 525 905 535 896 q 499 919 515 914 q 468 924 482 924 q 438 919 456 924 q 411 907 421 915 q 381 861 389 890 q 375 831 375 844 l 375 799 l 69 799 l 69 881 q 87 997 69 942 q 138 1094 104 1053 q 333 1208 206 1176 q 399 1219 364 1215 q 472 1222 435 1222 q 768 1132 663 1222 q 872 881 872 1042 l 872 0 l 560 0 q 563 30 560 13 q 569 60 565 47 q 581 90 575 75 q 596 121 588 104 q 615 149 603 133 l 599 163 q 553 98 576 124 q 504 51 531 72 q 449 16 479 31 q 382 -6 419 1 q 348 -12 365 -10 q 313 -14 331 -14 q 223 -1 267 -14 q 140 44 179 13 q 82 113 106 71 q 47 204 58 156 q 38 257 40 229 q 35 314 35 285 m 354 361 q 359 323 354 340 q 371 297 364 306 q 419 263 389 269 q 451 257 436 257 q 560 292 499 257 l 560 549 q 485 521 518 535 q 426 488 451 507 q 387 451 404 471 q 363 408 369 432 q 354 361 354 383 m 408 1292 l 171 1694 l 451 1694 l 631 1292 l 408 1292 z "},"ā":{"ha":942,"x_min":35,"x_max":872,"o":"m 35 314 q 54 447 35 386 q 115 556 74 507 q 219 638 157 604 q 365 697 281 672 q 457 719 408 710 q 560 735 506 728 l 560 826 q 555 858 560 840 q 543 885 550 875 q 525 905 535 896 q 499 919 515 914 q 468 924 482 924 q 438 919 456 924 q 411 907 421 915 q 381 861 389 890 q 375 831 375 844 l 375 799 l 69 799 l 69 881 q 87 997 69 942 q 138 1094 104 1053 q 333 1208 206 1176 q 399 1219 364 1215 q 472 1222 435 1222 q 768 1132 663 1222 q 872 881 872 1042 l 872 0 l 560 0 q 563 30 560 13 q 569 60 565 47 q 581 90 575 75 q 596 121 588 104 q 615 149 603 133 l 599 163 q 553 98 576 124 q 504 51 531 72 q 449 16 479 31 q 382 -6 419 1 q 348 -12 365 -10 q 313 -14 331 -14 q 223 -1 267 -14 q 140 44 179 13 q 82 113 106 71 q 47 204 58 156 q 38 257 40 229 q 35 314 35 285 m 354 361 q 359 323 354 340 q 371 297 364 306 q 419 263 389 269 q 451 257 436 257 q 560 292 499 257 l 560 549 q 485 521 518 535 q 426 488 451 507 q 387 451 404 471 q 363 408 369 432 q 354 361 354 383 m 176 1292 l 176 1542 l 764 1542 l 764 1292 l 176 1292 z "},"ą":{"ha":942,"x_min":35,"x_max":872,"o":"m 35 314 q 54 447 35 386 q 115 556 74 507 q 219 638 157 604 q 365 697 281 672 q 457 719 408 710 q 560 735 506 728 l 560 826 q 555 858 560 840 q 543 885 550 875 q 525 905 535 896 q 499 919 515 914 q 468 924 482 924 q 438 919 456 924 q 411 907 421 915 q 381 861 389 890 q 375 831 375 844 l 375 799 l 69 799 l 69 881 q 87 997 69 942 q 138 1094 104 1053 q 333 1208 206 1176 q 399 1219 364 1215 q 472 1222 435 1222 q 768 1132 663 1222 q 872 881 872 1042 l 872 0 l 560 0 q 563 30 560 13 q 569 60 565 47 q 581 90 575 75 q 596 121 588 104 q 615 149 603 133 l 599 163 q 553 98 576 124 q 504 51 531 72 q 449 16 479 31 q 382 -6 419 1 q 348 -12 365 -10 q 313 -14 331 -14 q 223 -1 267 -14 q 140 44 179 13 q 82 113 106 71 q 47 204 58 156 q 38 257 40 229 q 35 314 35 285 m 354 361 q 359 323 354 340 q 371 297 364 306 q 419 263 389 269 q 451 257 436 257 q 560 292 499 257 l 560 549 q 485 521 518 535 q 426 488 451 507 q 387 451 404 471 q 363 408 369 432 q 354 361 354 383 m 842 -276 l 842 -482 q 719 -471 774 -482 q 621 -440 665 -460 q 540 -392 569 -419 q 494 -331 511 -364 q 476 -257 476 -297 q 518 -119 476 -185 q 567 -61 538 -87 q 631 -14 597 -35 q 707 18 667 7 l 872 0 q 818 -20 840 -10 q 769 -51 796 -31 q 706 -133 722 -89 q 697 -179 697 -156 q 706 -219 697 -204 q 722 -240 715 -235 q 754 -261 735 -253 q 792 -272 774 -269 q 815 -276 803 -275 q 842 -276 828 -276 z "},"å":{"ha":942,"x_min":35,"x_max":872,"o":"m 35 314 q 54 447 35 386 q 115 556 74 507 q 219 638 157 604 q 365 697 281 672 q 457 719 408 710 q 560 735 506 728 l 560 826 q 555 858 560 840 q 543 885 550 875 q 525 905 535 896 q 499 919 515 914 q 468 924 482 924 q 438 919 456 924 q 411 907 421 915 q 381 861 389 890 q 375 831 375 844 l 375 799 l 69 799 l 69 881 q 87 997 69 942 q 138 1094 104 1053 q 333 1208 206 1176 q 399 1219 364 1215 q 472 1222 435 1222 q 768 1132 663 1222 q 872 881 872 1042 l 872 0 l 560 0 q 563 30 560 13 q 569 60 565 47 q 581 90 575 75 q 596 121 588 104 q 615 149 603 133 l 599 163 q 553 98 576 124 q 504 51 531 72 q 449 16 479 31 q 382 -6 419 1 q 348 -12 365 -10 q 313 -14 331 -14 q 223 -1 267 -14 q 140 44 179 13 q 82 113 106 71 q 47 204 58 156 q 38 257 40 229 q 35 314 35 285 m 354 361 q 359 323 354 340 q 371 297 364 306 q 419 263 389 269 q 451 257 436 257 q 560 292 499 257 l 560 549 q 485 521 518 535 q 426 488 451 507 q 387 451 404 471 q 363 408 369 432 q 354 361 354 383 m 249 1526 q 290 1661 249 1601 q 399 1740 329 1717 q 469 1751 432 1751 q 542 1740 508 1751 q 603 1710 575 1729 q 651 1660 631 1690 q 681 1600 671 1631 q 692 1526 692 1564 q 663 1407 692 1460 q 583 1323 633 1354 q 469 1292 533 1292 q 402 1302 435 1292 q 338 1338 369 1313 q 260 1451 282 1378 q 249 1526 249 1488 m 415 1522 q 431 1477 415 1496 q 471 1458 446 1458 q 504 1469 490 1458 q 522 1501 517 1479 q 525 1522 525 1511 q 515 1560 525 1539 q 489 1582 507 1575 q 471 1585 481 1585 q 453 1582 464 1585 q 438 1574 443 1579 q 426 1561 432 1568 q 418 1543 421 1554 q 415 1522 415 1532 z "},"ã":{"ha":942,"x_min":35,"x_max":872,"o":"m 35 314 q 54 447 35 386 q 115 556 74 507 q 219 638 157 604 q 365 697 281 672 q 457 719 408 710 q 560 735 506 728 l 560 826 q 555 858 560 840 q 543 885 550 875 q 525 905 535 896 q 499 919 515 914 q 468 924 482 924 q 438 919 456 924 q 411 907 421 915 q 381 861 389 890 q 375 831 375 844 l 375 799 l 69 799 l 69 881 q 87 997 69 942 q 138 1094 104 1053 q 333 1208 206 1176 q 399 1219 364 1215 q 472 1222 435 1222 q 768 1132 663 1222 q 872 881 872 1042 l 872 0 l 560 0 q 563 30 560 13 q 569 60 565 47 q 581 90 575 75 q 596 121 588 104 q 615 149 603 133 l 599 163 q 553 98 576 124 q 504 51 531 72 q 449 16 479 31 q 382 -6 419 1 q 348 -12 365 -10 q 313 -14 331 -14 q 223 -1 267 -14 q 140 44 179 13 q 82 113 106 71 q 47 204 58 156 q 38 257 40 229 q 35 314 35 285 m 354 361 q 359 323 354 340 q 371 297 364 306 q 419 263 389 269 q 451 257 436 257 q 560 292 499 257 l 560 549 q 485 521 518 535 q 426 488 451 507 q 387 451 404 471 q 363 408 369 432 q 354 361 354 383 m 351 1292 l 160 1292 q 202 1510 160 1438 q 324 1583 244 1583 q 374 1576 351 1583 q 428 1554 397 1569 q 468 1530 447 1543 q 507 1507 489 1517 q 538 1499 524 1499 q 553 1501 546 1499 q 569 1514 561 1504 q 578 1530 575 1522 q 586 1556 582 1538 q 589 1583 589 1568 l 781 1583 q 775 1483 781 1529 q 756 1397 769 1436 q 722 1338 742 1360 q 676 1304 701 1315 q 615 1292 651 1292 q 546 1305 576 1292 q 492 1335 515 1318 q 446 1365 467 1351 q 406 1378 425 1378 q 365 1353 379 1378 q 351 1292 351 1329 z "},"æ":{"ha":1789,"x_min":35,"x_max":1754,"o":"m 1754 608 l 1754 507 l 910 507 q 937 430 918 465 q 979 369 956 394 q 1035 324 1006 342 q 1106 296 1064 306 q 1144 288 1124 290 q 1186 285 1164 285 q 1308 307 1253 285 q 1399 369 1364 329 q 1414 390 1407 379 q 1426 413 1421 401 l 1744 413 q 1688 263 1725 326 q 1604 156 1650 199 q 1485 65 1551 103 q 1342 7 1419 28 q 1264 -8 1304 -3 q 1182 -14 1224 -14 q 1081 -6 1131 -14 q 985 19 1032 1 q 896 59 935 38 q 818 114 857 81 q 783 146 800 129 q 750 181 765 163 q 552 35 651 85 q 350 -14 453 -14 q 121 76 204 -14 q 57 183 79 121 q 35 322 35 244 q 115 558 35 467 q 365 697 193 647 q 457 719 408 710 q 560 735 506 728 l 560 826 q 555 858 560 840 q 543 885 550 875 q 525 905 535 896 q 499 919 515 914 q 468 924 482 924 q 438 919 456 924 q 411 907 421 915 q 381 861 389 890 q 375 831 375 844 l 375 799 l 69 799 l 69 881 q 87 997 69 942 q 138 1094 104 1053 q 333 1208 206 1176 q 399 1219 364 1215 q 472 1222 435 1222 q 674 1187 589 1222 q 810 1086 760 1151 q 874 1133 846 1115 q 944 1171 903 1151 q 1021 1199 978 1186 q 1101 1217 1064 1211 q 1185 1222 1140 1222 q 1367 1191 1278 1222 q 1524 1104 1456 1160 q 1647 971 1594 1046 q 1726 801 1699 896 q 1754 608 1754 710 m 915 715 l 1447 715 q 1372 842 1425 789 q 1251 914 1321 893 q 1215 921 1233 918 q 1178 924 1197 924 q 1042 886 1107 924 q 992 847 1018 872 q 946 785 967 822 q 915 715 926 750 m 354 361 q 359 323 354 340 q 371 297 364 306 q 419 263 389 269 q 451 257 436 257 q 560 292 499 257 l 560 549 q 485 521 518 535 q 426 488 451 507 q 387 451 404 471 q 363 408 369 432 q 354 361 354 383 z "},"b":{"ha":958,"x_min":69,"x_max":903,"o":"m 382 0 l 69 0 l 69 1667 l 382 1667 l 382 1108 q 429 1153 403 1132 q 474 1183 456 1174 q 521 1205 500 1197 q 569 1218 542 1213 q 595 1221 582 1219 q 622 1222 608 1222 q 793 1167 722 1222 q 852 1097 826 1140 q 890 1000 878 1054 q 899 941 896 972 q 903 875 903 910 l 903 338 q 640 -14 903 -14 q 566 -7 604 -14 q 496 17 528 0 q 434 53 460 33 q 385 101 408 72 q 343 163 358 131 l 326 149 q 343 119 333 136 q 360 86 353 101 q 370 56 364 74 q 379 24 376 38 q 382 0 382 10 m 368 797 l 368 411 q 386 333 368 365 q 406 309 392 322 q 440 290 421 296 q 479 285 457 285 q 517 290 499 285 q 550 307 535 294 q 572 331 563 318 q 586 368 581 344 q 590 411 590 390 l 590 797 q 572 876 590 843 q 552 899 567 886 q 519 918 538 913 q 479 924 501 924 q 442 919 460 924 q 410 901 424 914 q 387 877 396 890 q 374 840 378 864 q 368 797 368 818 z "},"c":{"ha":1217,"x_min":36,"x_max":1182,"o":"m 867 532 l 1182 532 q 1147 350 1179 433 q 1065 201 1115 267 q 941 85 1014 135 q 789 13 868 36 q 704 -7 747 0 q 615 -14 661 -14 q 269 104 424 -14 q 144 240 199 158 q 64 411 90 321 q 36 611 36 504 q 65 811 36 718 q 147 979 94 904 q 269 1108 197 1054 q 431 1193 342 1163 q 615 1222 519 1222 q 940 1125 797 1222 q 1146 861 1085 1026 q 1170 774 1161 819 q 1181 678 1179 728 l 867 678 q 853 757 864 718 q 818 828 842 796 q 697 913 772 890 q 617 924 658 924 q 531 910 571 924 q 454 867 490 896 q 395 797 419 839 q 361 711 371 756 q 352 660 356 686 q 349 604 349 633 q 360 499 349 550 q 397 410 372 449 q 528 300 446 329 q 617 285 568 285 q 700 296 664 285 q 765 329 736 307 q 853 450 826 374 q 862 489 858 468 q 867 532 865 510 z "},"ć":{"ha":1217,"x_min":36,"x_max":1182,"o":"m 867 532 l 1182 532 q 1147 350 1179 433 q 1065 201 1115 267 q 941 85 1014 135 q 789 13 868 36 q 704 -7 747 0 q 615 -14 661 -14 q 269 104 424 -14 q 144 240 199 158 q 64 411 90 321 q 36 611 36 504 q 65 811 36 718 q 147 979 94 904 q 269 1108 197 1054 q 431 1193 342 1163 q 615 1222 519 1222 q 940 1125 797 1222 q 1146 861 1085 1026 q 1170 774 1161 819 q 1181 678 1179 728 l 867 678 q 853 757 864 718 q 818 828 842 796 q 697 913 772 890 q 617 924 658 924 q 531 910 571 924 q 454 867 490 896 q 395 797 419 839 q 361 711 371 756 q 352 660 356 686 q 349 604 349 633 q 360 499 349 550 q 397 410 372 449 q 528 300 446 329 q 617 285 568 285 q 700 296 664 285 q 765 329 736 307 q 853 450 826 374 q 862 489 858 468 q 867 532 865 510 m 669 1292 l 447 1292 l 626 1694 l 907 1694 l 669 1292 z "},"č":{"ha":1217,"x_min":36,"x_max":1182,"o":"m 867 532 l 1182 532 q 1147 350 1179 433 q 1065 201 1115 267 q 941 85 1014 135 q 789 13 868 36 q 704 -7 747 0 q 615 -14 661 -14 q 269 104 424 -14 q 144 240 199 158 q 64 411 90 321 q 36 611 36 504 q 65 811 36 718 q 147 979 94 904 q 269 1108 197 1054 q 431 1193 342 1163 q 615 1222 519 1222 q 940 1125 797 1222 q 1146 861 1085 1026 q 1170 774 1161 819 q 1181 678 1179 728 l 867 678 q 853 757 864 718 q 818 828 842 796 q 697 913 772 890 q 617 924 658 924 q 531 910 571 924 q 454 867 490 896 q 395 797 419 839 q 361 711 371 756 q 352 660 356 686 q 349 604 349 633 q 360 499 349 550 q 397 410 372 449 q 528 300 446 329 q 617 285 568 285 q 700 296 664 285 q 765 329 736 307 q 853 450 826 374 q 862 489 858 468 q 867 532 865 510 m 450 1292 l 282 1686 l 493 1686 l 607 1486 l 722 1686 l 933 1686 l 765 1292 l 450 1292 z "},"ç":{"ha":1217,"x_min":36,"x_max":1182,"o":"m 867 532 l 1182 532 q 1147 350 1179 433 q 1065 201 1115 267 q 941 85 1014 135 q 789 13 868 36 q 704 -7 747 0 q 615 -14 661 -14 q 269 104 424 -14 q 144 240 199 158 q 64 411 90 321 q 36 611 36 504 q 65 811 36 718 q 147 979 94 904 q 269 1108 197 1054 q 431 1193 342 1163 q 615 1222 519 1222 q 940 1125 797 1222 q 1146 861 1085 1026 q 1170 774 1161 819 q 1181 678 1179 728 l 867 678 q 853 757 864 718 q 818 828 842 796 q 697 913 772 890 q 617 924 658 924 q 531 910 571 924 q 454 867 490 896 q 395 797 419 839 q 361 711 371 756 q 352 660 356 686 q 349 604 349 633 q 360 499 349 550 q 397 410 372 449 q 528 300 446 329 q 617 285 568 285 q 700 296 664 285 q 765 329 736 307 q 853 450 826 374 q 862 489 858 468 q 867 532 865 510 m 519 -276 l 518 -143 l 599 39 l 739 39 l 664 -133 q 717 -155 686 -139 q 783 -200 749 -171 q 824 -247 807 -221 q 850 -301 840 -274 q 858 -361 858 -328 q 789 -529 858 -460 q 705 -587 754 -564 q 600 -622 656 -611 q 536 -632 569 -628 q 468 -636 503 -636 l 468 -428 q 603 -406 553 -428 q 653 -349 653 -385 q 629 -306 653 -322 q 602 -290 614 -294 q 564 -279 590 -285 q 542 -276 554 -276 q 519 -276 531 -276 z "},"ĉ":{"ha":1217,"x_min":36,"x_max":1182,"o":"m 867 532 l 1182 532 q 1147 350 1179 433 q 1065 201 1115 267 q 941 85 1014 135 q 789 13 868 36 q 704 -7 747 0 q 615 -14 661 -14 q 269 104 424 -14 q 144 240 199 158 q 64 411 90 321 q 36 611 36 504 q 65 811 36 718 q 147 979 94 904 q 269 1108 197 1054 q 431 1193 342 1163 q 615 1222 519 1222 q 940 1125 797 1222 q 1146 861 1085 1026 q 1170 774 1161 819 q 1181 678 1179 728 l 867 678 q 853 757 864 718 q 818 828 842 796 q 697 913 772 890 q 617 924 658 924 q 531 910 571 924 q 454 867 490 896 q 395 797 419 839 q 361 711 371 756 q 352 660 356 686 q 349 604 349 633 q 360 499 349 550 q 397 410 372 449 q 528 300 446 329 q 617 285 568 285 q 700 296 664 285 q 765 329 736 307 q 853 450 826 374 q 862 489 858 468 q 867 532 865 510 m 282 1292 l 450 1686 l 765 1686 l 933 1292 l 722 1292 l 608 1492 l 493 1292 l 282 1292 z "},"ċ":{"ha":1217,"x_min":36,"x_max":1182,"o":"m 867 532 l 1182 532 q 1147 350 1179 433 q 1065 201 1115 267 q 941 85 1014 135 q 789 13 868 36 q 704 -7 747 0 q 615 -14 661 -14 q 269 104 424 -14 q 144 240 199 158 q 64 411 90 321 q 36 611 36 504 q 65 811 36 718 q 147 979 94 904 q 269 1108 197 1054 q 431 1193 342 1163 q 615 1222 519 1222 q 940 1125 797 1222 q 1146 861 1085 1026 q 1170 774 1161 819 q 1181 678 1179 728 l 867 678 q 853 757 864 718 q 818 828 842 796 q 697 913 772 890 q 617 924 658 924 q 531 910 571 924 q 454 867 490 896 q 395 797 419 839 q 361 711 371 756 q 352 660 356 686 q 349 604 349 633 q 360 499 349 550 q 397 410 372 449 q 528 300 446 329 q 617 285 568 285 q 700 296 664 285 q 765 329 736 307 q 853 450 826 374 q 862 489 858 468 q 867 532 865 510 m 435 1474 q 468 1581 435 1533 q 505 1619 482 1603 q 553 1643 528 1636 q 608 1651 579 1651 q 663 1644 636 1651 q 713 1619 689 1636 q 774 1532 757 1586 q 782 1474 782 1504 q 733 1344 782 1397 q 608 1292 685 1292 q 506 1326 549 1292 q 468 1365 483 1343 q 443 1417 453 1386 q 435 1474 435 1443 z "},"d":{"ha":958,"x_min":56,"x_max":889,"o":"m 889 0 l 576 0 q 578 22 576 8 q 588 54 581 35 q 599 85 594 72 q 615 119 603 97 q 624 134 619 126 q 632 149 628 142 l 615 163 q 575 102 600 132 q 524 53 550 72 q 463 15 496 31 q 394 -6 429 0 q 357 -12 376 -10 q 318 -14 338 -14 q 56 338 56 -14 l 56 875 q 107 1097 56 1011 q 164 1165 131 1138 q 244 1208 197 1193 q 336 1222 286 1222 q 388 1217 358 1222 q 439 1206 418 1213 q 487 1181 469 1192 q 532 1151 504 1171 q 576 1108 554 1133 l 576 1667 l 889 1667 l 889 0 m 590 411 l 590 797 q 572 876 590 843 q 552 899 567 886 q 519 918 538 913 q 479 924 501 924 q 442 919 460 924 q 410 901 424 914 q 387 877 396 890 q 374 840 378 864 q 368 797 368 818 l 368 411 q 386 333 368 365 q 406 309 392 322 q 440 290 421 296 q 479 285 457 285 q 517 290 499 285 q 550 307 535 294 q 572 331 563 318 q 586 368 581 344 q 590 411 590 390 z "},"ď":{"ha":1117,"x_min":56,"x_max":1124,"o":"m 939 1275 l 925 1681 l 1124 1681 l 1110 1275 l 939 1275 m 889 0 l 576 0 q 578 22 576 8 q 588 54 581 35 q 599 85 594 72 q 615 119 603 97 q 624 134 619 126 q 632 149 628 142 l 615 163 q 575 102 600 132 q 524 53 550 72 q 463 15 496 31 q 394 -6 429 0 q 357 -12 376 -10 q 318 -14 338 -14 q 56 338 56 -14 l 56 875 q 107 1097 56 1011 q 164 1165 131 1138 q 244 1208 197 1193 q 336 1222 286 1222 q 388 1217 358 1222 q 439 1206 418 1213 q 487 1181 469 1192 q 532 1151 504 1171 q 576 1108 554 1133 l 576 1667 l 889 1667 l 889 0 m 590 411 l 590 797 q 572 876 590 843 q 552 899 567 886 q 519 918 538 913 q 479 924 501 924 q 442 919 460 924 q 410 901 424 914 q 387 877 396 890 q 374 840 378 864 q 368 797 368 818 l 368 411 q 386 333 368 365 q 406 309 392 322 q 440 290 421 296 q 479 285 457 285 q 517 290 499 285 q 550 307 535 294 q 572 331 563 318 q 586 368 581 344 q 590 411 590 390 z "},"đ":{"ha":958,"x_min":56,"x_max":976,"o":"m 889 0 l 576 0 q 578 22 576 8 q 588 54 581 35 q 599 85 594 72 q 615 119 603 97 q 624 134 619 126 q 632 149 628 142 l 615 163 q 575 102 600 132 q 524 53 550 72 q 463 15 496 31 q 394 -6 429 0 q 357 -12 376 -10 q 318 -14 338 -14 q 56 338 56 -14 l 56 875 q 107 1097 56 1011 q 164 1165 131 1138 q 244 1208 197 1193 q 336 1222 286 1222 q 388 1217 358 1222 q 439 1206 418 1213 q 487 1181 469 1192 q 532 1151 504 1171 q 576 1108 554 1133 l 576 1276 l 483 1276 l 483 1492 l 576 1492 l 576 1667 l 889 1667 l 889 1492 l 976 1492 l 976 1276 l 889 1276 l 889 0 m 590 411 l 590 797 q 572 876 590 843 q 552 899 567 886 q 519 918 538 913 q 479 924 501 924 q 442 919 460 924 q 410 901 424 914 q 387 877 396 890 q 374 840 378 864 q 368 797 368 818 l 368 411 q 386 333 368 365 q 406 309 392 322 q 440 290 421 296 q 479 285 457 285 q 517 290 499 285 q 550 307 535 294 q 572 331 563 318 q 586 368 581 344 q 590 411 590 390 z "},"ð":{"ha":979,"x_min":42,"x_max":949,"o":"m 244 1429 l 414 1667 q 477 1647 446 1658 q 539 1619 508 1635 q 596 1586 564 1607 q 650 1547 628 1565 l 756 1653 l 949 1461 l 825 1338 q 861 1263 844 1303 q 892 1183 878 1224 q 926 1011 918 1096 q 929 965 928 988 q 931 919 931 943 l 931 381 q 914 247 931 308 q 863 136 897 185 q 653 4 790 39 q 493 -14 583 -14 q 331 5 401 -14 q 207 57 260 24 q 115 140 153 90 q 61 249 78 189 q 47 312 51 279 q 42 381 42 344 l 42 625 q 56 739 42 686 q 97 831 69 792 q 168 899 126 871 q 258 939 210 926 q 375 953 311 953 q 603 892 506 953 q 601 933 603 911 q 596 975 599 954 q 590 1013 593 996 q 583 1051 588 1029 q 581 1060 582 1056 q 579 1069 579 1064 q 574 1086 576 1078 l 493 1006 l 300 1197 l 428 1325 q 244 1429 353 1392 m 368 569 l 368 411 q 399 314 368 350 q 485 278 428 278 q 558 301 529 278 q 585 333 576 317 q 599 367 594 349 q 604 411 604 386 l 604 569 q 599 613 604 590 q 583 651 594 635 q 558 679 572 667 q 526 697 543 692 q 485 703 508 703 q 399 668 428 703 q 368 569 368 631 z "},"e":{"ha":1222,"x_min":35,"x_max":1188,"o":"m 1188 608 l 1188 507 l 343 507 q 370 430 351 465 q 413 369 389 394 q 468 324 439 342 q 539 296 497 306 q 577 288 557 290 q 619 285 597 285 q 742 307 686 285 q 832 369 797 329 q 847 390 840 379 q 860 413 854 401 l 1178 413 q 1121 263 1158 326 q 1038 156 1083 199 q 919 65 985 103 q 775 7 853 28 q 697 -8 738 -3 q 615 -14 657 -14 q 422 17 508 -14 q 267 101 335 49 q 63 406 118 215 q 35 608 35 500 q 64 808 35 713 q 146 979 93 904 q 273 1110 200 1056 q 433 1193 346 1164 q 618 1222 522 1222 q 800 1191 711 1222 q 957 1104 889 1160 q 1080 971 1028 1046 q 1160 801 1132 896 q 1188 608 1188 710 m 349 715 l 881 715 q 806 842 858 789 q 685 914 754 893 q 649 921 667 918 q 611 924 631 924 q 475 886 540 924 q 426 847 451 872 q 379 785 400 822 q 349 715 360 750 z "},"é":{"ha":1222,"x_min":35,"x_max":1188,"o":"m 1188 608 l 1188 507 l 343 507 q 370 430 351 465 q 413 369 389 394 q 468 324 439 342 q 539 296 497 306 q 577 288 557 290 q 619 285 597 285 q 742 307 686 285 q 832 369 797 329 q 847 390 840 379 q 860 413 854 401 l 1178 413 q 1121 263 1158 326 q 1038 156 1083 199 q 919 65 985 103 q 775 7 853 28 q 697 -8 738 -3 q 615 -14 657 -14 q 422 17 508 -14 q 267 101 335 49 q 63 406 118 215 q 35 608 35 500 q 64 808 35 713 q 146 979 93 904 q 273 1110 200 1056 q 433 1193 346 1164 q 618 1222 522 1222 q 800 1191 711 1222 q 957 1104 889 1160 q 1080 971 1028 1046 q 1160 801 1132 896 q 1188 608 1188 710 m 349 715 l 881 715 q 806 842 858 789 q 685 914 754 893 q 649 921 667 918 q 611 924 631 924 q 475 886 540 924 q 426 847 451 872 q 379 785 400 822 q 349 715 360 750 m 672 1292 l 450 1292 l 629 1694 l 910 1694 l 672 1292 z "},"ĕ":{"ha":1222,"x_min":35,"x_max":1188,"o":"m 1188 608 l 1188 507 l 343 507 q 370 430 351 465 q 413 369 389 394 q 468 324 439 342 q 539 296 497 306 q 577 288 557 290 q 619 285 597 285 q 742 307 686 285 q 832 369 797 329 q 847 390 840 379 q 860 413 854 401 l 1178 413 q 1121 263 1158 326 q 1038 156 1083 199 q 919 65 985 103 q 775 7 853 28 q 697 -8 738 -3 q 615 -14 657 -14 q 422 17 508 -14 q 267 101 335 49 q 63 406 118 215 q 35 608 35 500 q 64 808 35 713 q 146 979 93 904 q 273 1110 200 1056 q 433 1193 346 1164 q 618 1222 522 1222 q 800 1191 711 1222 q 957 1104 889 1160 q 1080 971 1028 1046 q 1160 801 1132 896 q 1188 608 1188 710 m 349 715 l 881 715 q 806 842 858 789 q 685 914 754 893 q 649 921 667 918 q 611 924 631 924 q 475 886 540 924 q 426 847 451 872 q 379 785 400 822 q 349 715 360 750 m 699 1583 l 886 1583 q 835 1410 886 1483 q 778 1348 810 1374 q 700 1307 746 1322 q 608 1292 658 1292 q 516 1308 557 1292 q 446 1347 475 1324 q 387 1410 413 1374 q 350 1490 361 1446 q 340 1535 343 1513 q 336 1583 336 1558 l 524 1583 q 540 1526 524 1550 q 582 1492 558 1499 q 610 1486 599 1486 q 639 1491 624 1486 q 664 1506 654 1496 q 683 1526 676 1518 q 694 1553 689 1535 q 699 1583 699 1569 z "},"ě":{"ha":1222,"x_min":35,"x_max":1188,"o":"m 1188 608 l 1188 507 l 343 507 q 370 430 351 465 q 413 369 389 394 q 468 324 439 342 q 539 296 497 306 q 577 288 557 290 q 619 285 597 285 q 742 307 686 285 q 832 369 797 329 q 847 390 840 379 q 860 413 854 401 l 1178 413 q 1121 263 1158 326 q 1038 156 1083 199 q 919 65 985 103 q 775 7 853 28 q 697 -8 738 -3 q 615 -14 657 -14 q 422 17 508 -14 q 267 101 335 49 q 63 406 118 215 q 35 608 35 500 q 64 808 35 713 q 146 979 93 904 q 273 1110 200 1056 q 433 1193 346 1164 q 618 1222 522 1222 q 800 1191 711 1222 q 957 1104 889 1160 q 1080 971 1028 1046 q 1160 801 1132 896 q 1188 608 1188 710 m 349 715 l 881 715 q 806 842 858 789 q 685 914 754 893 q 649 921 667 918 q 611 924 631 924 q 475 886 540 924 q 426 847 451 872 q 379 785 400 822 q 349 715 360 750 m 453 1292 l 285 1686 l 496 1686 l 610 1486 l 725 1686 l 936 1686 l 768 1292 l 453 1292 z "},"ê":{"ha":1222,"x_min":35,"x_max":1188,"o":"m 1188 608 l 1188 507 l 343 507 q 370 430 351 465 q 413 369 389 394 q 468 324 439 342 q 539 296 497 306 q 577 288 557 290 q 619 285 597 285 q 742 307 686 285 q 832 369 797 329 q 847 390 840 379 q 860 413 854 401 l 1178 413 q 1121 263 1158 326 q 1038 156 1083 199 q 919 65 985 103 q 775 7 853 28 q 697 -8 738 -3 q 615 -14 657 -14 q 422 17 508 -14 q 267 101 335 49 q 63 406 118 215 q 35 608 35 500 q 64 808 35 713 q 146 979 93 904 q 273 1110 200 1056 q 433 1193 346 1164 q 618 1222 522 1222 q 800 1191 711 1222 q 957 1104 889 1160 q 1080 971 1028 1046 q 1160 801 1132 896 q 1188 608 1188 710 m 349 715 l 881 715 q 806 842 858 789 q 685 914 754 893 q 649 921 667 918 q 611 924 631 924 q 475 886 540 924 q 426 847 451 872 q 379 785 400 822 q 349 715 360 750 m 285 1292 l 453 1686 l 768 1686 l 936 1292 l 725 1292 l 611 1492 l 496 1292 l 285 1292 z "},"ë":{"ha":1222,"x_min":35,"x_max":1188,"o":"m 1188 608 l 1188 507 l 343 507 q 370 430 351 465 q 413 369 389 394 q 468 324 439 342 q 539 296 497 306 q 577 288 557 290 q 619 285 597 285 q 742 307 686 285 q 832 369 797 329 q 847 390 840 379 q 860 413 854 401 l 1178 413 q 1121 263 1158 326 q 1038 156 1083 199 q 919 65 985 103 q 775 7 853 28 q 697 -8 738 -3 q 615 -14 657 -14 q 422 17 508 -14 q 267 101 335 49 q 63 406 118 215 q 35 608 35 500 q 64 808 35 713 q 146 979 93 904 q 273 1110 200 1056 q 433 1193 346 1164 q 618 1222 522 1222 q 800 1191 711 1222 q 957 1104 889 1160 q 1080 971 1028 1046 q 1160 801 1132 896 q 1188 608 1188 710 m 349 715 l 881 715 q 806 842 858 789 q 685 914 754 893 q 649 921 667 918 q 611 924 631 924 q 475 886 540 924 q 426 847 451 872 q 379 785 400 822 q 349 715 360 750 m 239 1460 q 269 1558 239 1515 q 347 1615 299 1599 q 399 1624 372 1624 q 493 1593 450 1624 q 528 1558 515 1578 q 550 1513 542 1538 q 558 1460 558 1488 q 529 1361 558 1404 q 494 1324 517 1340 q 451 1300 472 1307 q 399 1292 428 1292 q 344 1301 365 1292 q 304 1325 322 1311 q 247 1407 265 1353 q 239 1460 239 1432 m 664 1460 q 694 1558 664 1515 q 772 1615 724 1599 q 824 1624 797 1624 q 918 1593 875 1624 q 953 1558 940 1578 q 975 1513 967 1538 q 983 1460 983 1488 q 954 1361 983 1404 q 919 1324 942 1340 q 876 1300 897 1307 q 824 1292 853 1292 q 769 1301 790 1292 q 729 1325 747 1311 q 672 1407 690 1353 q 664 1460 664 1432 z "},"ė":{"ha":1222,"x_min":35,"x_max":1188,"o":"m 1188 608 l 1188 507 l 343 507 q 370 430 351 465 q 413 369 389 394 q 468 324 439 342 q 539 296 497 306 q 577 288 557 290 q 619 285 597 285 q 742 307 686 285 q 832 369 797 329 q 847 390 840 379 q 860 413 854 401 l 1178 413 q 1121 263 1158 326 q 1038 156 1083 199 q 919 65 985 103 q 775 7 853 28 q 697 -8 738 -3 q 615 -14 657 -14 q 422 17 508 -14 q 267 101 335 49 q 63 406 118 215 q 35 608 35 500 q 64 808 35 713 q 146 979 93 904 q 273 1110 200 1056 q 433 1193 346 1164 q 618 1222 522 1222 q 800 1191 711 1222 q 957 1104 889 1160 q 1080 971 1028 1046 q 1160 801 1132 896 q 1188 608 1188 710 m 349 715 l 881 715 q 806 842 858 789 q 685 914 754 893 q 649 921 667 918 q 611 924 631 924 q 475 886 540 924 q 426 847 451 872 q 379 785 400 822 q 349 715 360 750 m 438 1474 q 471 1581 438 1533 q 508 1619 485 1603 q 556 1643 531 1636 q 611 1651 582 1651 q 665 1644 639 1651 q 715 1619 692 1636 q 776 1532 760 1586 q 785 1474 785 1504 q 736 1344 785 1397 q 611 1292 688 1292 q 508 1326 551 1292 q 471 1365 486 1343 q 446 1417 456 1386 q 438 1474 438 1443 z "},"è":{"ha":1222,"x_min":35,"x_max":1188,"o":"m 1188 608 l 1188 507 l 343 507 q 370 430 351 465 q 413 369 389 394 q 468 324 439 342 q 539 296 497 306 q 577 288 557 290 q 619 285 597 285 q 742 307 686 285 q 832 369 797 329 q 847 390 840 379 q 860 413 854 401 l 1178 413 q 1121 263 1158 326 q 1038 156 1083 199 q 919 65 985 103 q 775 7 853 28 q 697 -8 738 -3 q 615 -14 657 -14 q 422 17 508 -14 q 267 101 335 49 q 63 406 118 215 q 35 608 35 500 q 64 808 35 713 q 146 979 93 904 q 273 1110 200 1056 q 433 1193 346 1164 q 618 1222 522 1222 q 800 1191 711 1222 q 957 1104 889 1160 q 1080 971 1028 1046 q 1160 801 1132 896 q 1188 608 1188 710 m 349 715 l 881 715 q 806 842 858 789 q 685 914 754 893 q 649 921 667 918 q 611 924 631 924 q 475 886 540 924 q 426 847 451 872 q 379 785 400 822 q 349 715 360 750 m 549 1292 l 311 1694 l 592 1694 l 771 1292 l 549 1292 z "},"ē":{"ha":1222,"x_min":35,"x_max":1188,"o":"m 1188 608 l 1188 507 l 343 507 q 370 430 351 465 q 413 369 389 394 q 468 324 439 342 q 539 296 497 306 q 577 288 557 290 q 619 285 597 285 q 742 307 686 285 q 832 369 797 329 q 847 390 840 379 q 860 413 854 401 l 1178 413 q 1121 263 1158 326 q 1038 156 1083 199 q 919 65 985 103 q 775 7 853 28 q 697 -8 738 -3 q 615 -14 657 -14 q 422 17 508 -14 q 267 101 335 49 q 63 406 118 215 q 35 608 35 500 q 64 808 35 713 q 146 979 93 904 q 273 1110 200 1056 q 433 1193 346 1164 q 618 1222 522 1222 q 800 1191 711 1222 q 957 1104 889 1160 q 1080 971 1028 1046 q 1160 801 1132 896 q 1188 608 1188 710 m 349 715 l 881 715 q 806 842 858 789 q 685 914 754 893 q 649 921 667 918 q 611 924 631 924 q 475 886 540 924 q 426 847 451 872 q 379 785 400 822 q 349 715 360 750 m 317 1292 l 317 1542 l 904 1542 l 904 1292 l 317 1292 z "},"ę":{"ha":1222,"x_min":35,"x_max":1188,"o":"m 1188 608 l 1188 507 l 343 507 q 370 430 351 465 q 413 369 389 394 q 468 324 439 342 q 539 296 497 306 q 577 288 557 290 q 619 285 597 285 q 742 307 686 285 q 832 369 797 329 q 847 390 840 379 q 860 413 854 401 l 1178 413 q 1121 263 1158 326 q 1038 156 1083 199 q 919 65 985 103 q 775 7 853 28 q 697 -8 738 -3 q 615 -14 657 -14 q 422 17 508 -14 q 267 101 335 49 q 63 406 118 215 q 35 608 35 500 q 64 808 35 713 q 146 979 93 904 q 273 1110 200 1056 q 433 1193 346 1164 q 618 1222 522 1222 q 800 1191 711 1222 q 957 1104 889 1160 q 1080 971 1028 1046 q 1160 801 1132 896 q 1188 608 1188 710 m 349 715 l 881 715 q 806 842 858 789 q 685 914 754 893 q 649 921 667 918 q 611 924 631 924 q 475 886 540 924 q 426 847 451 872 q 379 785 400 822 q 349 715 360 750 m 765 -262 l 765 -468 q 643 -457 697 -468 q 544 -426 589 -446 q 464 -378 493 -406 q 418 -317 435 -350 q 400 -243 400 -283 q 442 -106 400 -171 q 491 -47 461 -74 q 554 0 521 -21 q 631 32 590 21 l 796 14 q 742 -6 764 4 q 693 -37 719 -17 q 629 -119 646 -75 q 621 -165 621 -142 q 630 -206 621 -190 q 646 -226 639 -221 q 678 -247 658 -239 q 715 -258 697 -256 q 739 -262 726 -261 q 765 -262 751 -262 z "},"f":{"ha":708,"x_min":14,"x_max":681,"o":"m 125 0 l 125 917 l 14 917 l 14 1208 l 228 1208 l 228 1231 q 176 1260 200 1242 q 135 1299 151 1279 q 83 1397 97 1342 q 78 1426 79 1411 q 76 1456 76 1440 q 92 1539 76 1507 q 125 1589 108 1571 q 183 1632 149 1615 q 264 1658 218 1649 q 311 1665 286 1663 q 364 1667 336 1667 l 681 1667 l 667 1368 l 465 1368 q 418 1356 436 1368 q 401 1339 407 1347 q 392 1317 396 1331 q 388 1289 388 1306 q 401 1240 388 1258 q 439 1213 415 1219 q 465 1208 449 1208 l 667 1208 l 667 917 l 438 917 l 438 0 l 125 0 z "},"g":{"ha":958,"x_min":56,"x_max":889,"o":"m 144 -417 l 158 -118 l 535 -118 q 576 -76 576 -118 l 576 142 q 533 104 557 122 q 481 72 510 86 q 422 47 447 56 q 365 33 397 39 q 304 28 335 28 q 216 42 254 28 q 147 82 178 56 q 67 244 85 135 q 58 303 61 272 q 56 368 56 333 l 56 888 q 69 1004 56 951 q 106 1094 83 1057 q 162 1163 128 1133 q 239 1207 196 1193 q 283 1218 260 1214 q 332 1222 307 1222 q 393 1216 361 1222 q 454 1196 425 1210 q 512 1158 483 1181 q 564 1111 540 1135 q 615 1046 589 1085 l 632 1060 q 615 1090 625 1072 q 600 1122 606 1107 q 588 1153 594 1135 q 579 1185 582 1171 q 576 1208 576 1199 l 889 1208 l 889 -139 q 844 -317 889 -250 q 711 -406 800 -383 q 611 -417 667 -417 l 144 -417 m 590 444 l 590 806 q 572 879 590 849 q 547 905 563 896 q 519 918 532 914 q 479 924 501 924 q 442 919 461 924 q 410 904 422 914 q 387 880 396 893 q 374 847 378 867 q 368 806 368 825 l 368 444 q 386 371 368 401 q 411 345 396 354 q 440 332 426 336 q 479 326 457 326 q 517 331 497 326 q 550 347 536 336 q 572 370 563 357 q 586 404 581 383 q 590 444 590 425 z "},"ğ":{"ha":958,"x_min":56,"x_max":889,"o":"m 144 -417 l 158 -118 l 535 -118 q 576 -76 576 -118 l 576 142 q 533 104 557 122 q 481 72 510 86 q 422 47 447 56 q 365 33 397 39 q 304 28 335 28 q 216 42 254 28 q 147 82 178 56 q 67 244 85 135 q 58 303 61 272 q 56 368 56 333 l 56 888 q 69 1004 56 951 q 106 1094 83 1057 q 162 1163 128 1133 q 239 1207 196 1193 q 283 1218 260 1214 q 332 1222 307 1222 q 393 1216 361 1222 q 454 1196 425 1210 q 512 1158 483 1181 q 564 1111 540 1135 q 615 1046 589 1085 l 632 1060 q 615 1090 625 1072 q 600 1122 606 1107 q 588 1153 594 1135 q 579 1185 582 1171 q 576 1208 576 1199 l 889 1208 l 889 -139 q 844 -317 889 -250 q 711 -406 800 -383 q 611 -417 667 -417 l 144 -417 m 590 444 l 590 806 q 572 879 590 849 q 547 905 563 896 q 519 918 532 914 q 479 924 501 924 q 442 919 461 924 q 410 904 422 914 q 387 880 396 893 q 374 847 378 867 q 368 806 368 825 l 368 444 q 386 371 368 401 q 411 345 396 354 q 440 332 426 336 q 479 326 457 326 q 517 331 497 326 q 550 347 536 336 q 572 370 563 357 q 586 404 581 383 q 590 444 590 425 m 567 1583 l 754 1583 q 703 1410 754 1483 q 646 1348 678 1374 q 568 1307 614 1322 q 476 1292 526 1292 q 384 1308 425 1292 q 314 1347 343 1324 q 255 1410 281 1374 q 218 1490 229 1446 q 208 1535 211 1513 q 204 1583 204 1558 l 392 1583 q 408 1526 392 1550 q 450 1492 426 1499 q 478 1486 467 1486 q 507 1491 492 1486 q 532 1506 522 1496 q 551 1526 544 1518 q 563 1553 557 1535 q 567 1583 567 1569 z "},"ĝ":{"ha":958,"x_min":56,"x_max":889,"o":"m 144 -417 l 158 -118 l 535 -118 q 576 -76 576 -118 l 576 142 q 533 104 557 122 q 481 72 510 86 q 422 47 447 56 q 365 33 397 39 q 304 28 335 28 q 216 42 254 28 q 147 82 178 56 q 67 244 85 135 q 58 303 61 272 q 56 368 56 333 l 56 888 q 69 1004 56 951 q 106 1094 83 1057 q 162 1163 128 1133 q 239 1207 196 1193 q 283 1218 260 1214 q 332 1222 307 1222 q 393 1216 361 1222 q 454 1196 425 1210 q 512 1158 483 1181 q 564 1111 540 1135 q 615 1046 589 1085 l 632 1060 q 615 1090 625 1072 q 600 1122 606 1107 q 588 1153 594 1135 q 579 1185 582 1171 q 576 1208 576 1199 l 889 1208 l 889 -139 q 844 -317 889 -250 q 711 -406 800 -383 q 611 -417 667 -417 l 144 -417 m 590 444 l 590 806 q 572 879 590 849 q 547 905 563 896 q 519 918 532 914 q 479 924 501 924 q 442 919 461 924 q 410 904 422 914 q 387 880 396 893 q 374 847 378 867 q 368 806 368 825 l 368 444 q 386 371 368 401 q 411 345 396 354 q 440 332 426 336 q 479 326 457 326 q 517 331 497 326 q 550 347 536 336 q 572 370 563 357 q 586 404 581 383 q 590 444 590 425 m 153 1292 l 321 1686 l 636 1686 l 804 1292 l 593 1292 l 479 1492 l 364 1292 l 153 1292 z "},"ģ":{"ha":958,"x_min":56,"x_max":889,"o":"m 685 1793 l 558 1328 l 288 1328 l 469 1793 l 685 1793 m 144 -417 l 158 -118 l 535 -118 q 576 -76 576 -118 l 576 142 q 533 104 557 122 q 481 72 510 86 q 422 47 447 56 q 365 33 397 39 q 304 28 335 28 q 216 42 254 28 q 147 82 178 56 q 67 244 85 135 q 58 303 61 272 q 56 368 56 333 l 56 888 q 69 1004 56 951 q 106 1094 83 1057 q 162 1163 128 1133 q 239 1207 196 1193 q 283 1218 260 1214 q 332 1222 307 1222 q 393 1216 361 1222 q 454 1196 425 1210 q 512 1158 483 1181 q 564 1111 540 1135 q 615 1046 589 1085 l 632 1060 q 615 1090 625 1072 q 600 1122 606 1107 q 588 1153 594 1135 q 579 1185 582 1171 q 576 1208 576 1199 l 889 1208 l 889 -139 q 844 -317 889 -250 q 711 -406 800 -383 q 611 -417 667 -417 l 144 -417 m 590 444 l 590 806 q 572 879 590 849 q 547 905 563 896 q 519 918 532 914 q 479 924 501 924 q 442 919 461 924 q 410 904 422 914 q 387 880 396 893 q 374 847 378 867 q 368 806 368 825 l 368 444 q 386 371 368 401 q 411 345 396 354 q 440 332 426 336 q 479 326 457 326 q 517 331 497 326 q 550 347 536 336 q 572 370 563 357 q 586 404 581 383 q 590 444 590 425 z "},"ġ":{"ha":958,"x_min":56,"x_max":889,"o":"m 144 -417 l 158 -118 l 535 -118 q 576 -76 576 -118 l 576 142 q 533 104 557 122 q 481 72 510 86 q 422 47 447 56 q 365 33 397 39 q 304 28 335 28 q 216 42 254 28 q 147 82 178 56 q 67 244 85 135 q 58 303 61 272 q 56 368 56 333 l 56 888 q 69 1004 56 951 q 106 1094 83 1057 q 162 1163 128 1133 q 239 1207 196 1193 q 283 1218 260 1214 q 332 1222 307 1222 q 393 1216 361 1222 q 454 1196 425 1210 q 512 1158 483 1181 q 564 1111 540 1135 q 615 1046 589 1085 l 632 1060 q 615 1090 625 1072 q 600 1122 606 1107 q 588 1153 594 1135 q 579 1185 582 1171 q 576 1208 576 1199 l 889 1208 l 889 -139 q 844 -317 889 -250 q 711 -406 800 -383 q 611 -417 667 -417 l 144 -417 m 590 444 l 590 806 q 572 879 590 849 q 547 905 563 896 q 519 918 532 914 q 479 924 501 924 q 442 919 461 924 q 410 904 422 914 q 387 880 396 893 q 374 847 378 867 q 368 806 368 825 l 368 444 q 386 371 368 401 q 411 345 396 354 q 440 332 426 336 q 479 326 457 326 q 517 331 497 326 q 550 347 536 336 q 572 370 563 357 q 586 404 581 383 q 590 444 590 425 m 306 1474 q 339 1581 306 1533 q 376 1619 353 1603 q 424 1643 399 1636 q 479 1651 450 1651 q 533 1644 507 1651 q 583 1619 560 1636 q 644 1532 628 1586 q 653 1474 653 1504 q 604 1344 653 1397 q 479 1292 556 1292 q 376 1326 419 1292 q 339 1365 354 1343 q 314 1417 324 1386 q 306 1474 306 1443 z "},"h":{"ha":944,"x_min":69,"x_max":875,"o":"m 382 1667 l 382 1208 q 380 1187 382 1200 q 371 1156 378 1174 q 360 1124 364 1136 q 343 1090 356 1111 q 335 1074 339 1082 q 326 1060 331 1067 l 343 1046 q 393 1109 369 1085 q 446 1157 417 1133 q 504 1193 472 1178 q 567 1215 536 1208 q 598 1220 582 1218 q 631 1222 614 1222 q 713 1209 672 1222 q 785 1169 754 1196 q 865 1014 846 1114 q 872 961 869 989 q 875 903 875 933 l 875 0 l 563 0 l 563 847 q 560 873 563 864 q 549 897 557 882 q 532 913 543 906 q 513 921 521 919 q 488 924 499 924 q 467 922 476 924 q 446 917 457 919 q 425 909 433 914 q 403 897 417 904 q 392 891 397 894 q 382 883 388 888 l 382 0 l 69 0 l 69 1667 l 382 1667 z "},"ħ":{"ha":944,"x_min":-17,"x_max":875,"o":"m 382 1276 l 382 1208 q 380 1187 382 1200 q 371 1156 378 1174 q 360 1124 364 1136 q 343 1090 356 1111 q 335 1074 339 1082 q 326 1060 331 1067 l 343 1046 q 393 1109 369 1085 q 446 1157 417 1133 q 504 1193 472 1178 q 567 1215 536 1208 q 598 1220 582 1218 q 631 1222 614 1222 q 713 1209 672 1222 q 785 1169 754 1196 q 865 1014 846 1114 q 872 961 869 989 q 875 903 875 933 l 875 0 l 563 0 l 563 847 q 560 873 563 864 q 549 897 557 882 q 532 913 543 906 q 513 921 521 919 q 488 924 499 924 q 467 922 476 924 q 446 917 457 919 q 425 909 433 914 q 403 897 417 904 q 392 891 397 894 q 382 883 388 888 l 382 0 l 69 0 l 69 1276 l -17 1276 l -17 1492 l 69 1492 l 69 1667 l 382 1667 l 382 1492 l 476 1492 l 476 1276 l 382 1276 z "},"ĥ":{"ha":944,"x_min":69,"x_max":875,"o":"m 382 1667 l 382 1208 q 380 1187 382 1200 q 371 1156 378 1174 q 360 1124 364 1136 q 343 1090 356 1111 q 335 1074 339 1082 q 326 1060 331 1067 l 343 1046 q 393 1109 369 1085 q 446 1157 417 1133 q 504 1193 472 1178 q 567 1215 536 1208 q 598 1220 582 1218 q 631 1222 614 1222 q 713 1209 672 1222 q 785 1169 754 1196 q 865 1014 846 1114 q 872 961 869 989 q 875 903 875 933 l 875 0 l 563 0 l 563 847 q 560 873 563 864 q 549 897 557 882 q 532 913 543 906 q 513 921 521 919 q 488 924 499 924 q 467 922 476 924 q 446 917 457 919 q 425 909 433 914 q 403 897 417 904 q 392 891 397 894 q 382 883 388 888 l 382 0 l 69 0 l 69 1667 l 382 1667 m 122 1778 l 303 2201 l 642 2201 l 822 1778 l 596 1778 l 474 1993 l 350 1778 l 122 1778 z "},"i":{"ha":451,"x_min":53,"x_max":400,"o":"m 69 0 l 69 1208 l 382 1208 l 382 0 l 69 0 m 53 1474 q 86 1581 53 1533 q 123 1619 100 1603 q 171 1643 146 1636 q 226 1651 197 1651 q 281 1644 254 1651 q 331 1619 307 1636 q 392 1532 375 1586 q 400 1474 400 1504 q 351 1344 400 1397 q 226 1292 303 1292 q 124 1326 167 1292 q 86 1365 101 1343 q 61 1417 71 1386 q 53 1474 53 1443 z "},"ı":{"ha":451,"x_min":69,"x_max":382,"o":"m 69 0 l 69 1208 l 382 1208 l 382 0 l 69 0 z "},"í":{"ha":451,"x_min":65,"x_max":525,"o":"m 69 0 l 69 1208 l 382 1208 l 382 0 l 69 0 m 288 1292 l 65 1292 l 244 1694 l 525 1694 l 288 1292 z "},"î":{"ha":451,"x_min":-100,"x_max":551,"o":"m 69 0 l 69 1208 l 382 1208 l 382 0 l 69 0 m -100 1292 l 68 1686 l 383 1686 l 551 1292 l 340 1292 l 226 1492 l 111 1292 l -100 1292 z "},"ï":{"ha":451,"x_min":-146,"x_max":599,"o":"m 69 0 l 69 1208 l 382 1208 l 382 0 l 69 0 m -146 1460 q -115 1558 -146 1515 q -37 1615 -86 1599 q 14 1624 -12 1624 q 108 1593 65 1624 q 144 1558 131 1578 q 165 1513 157 1538 q 174 1460 174 1488 q 144 1361 174 1404 q 110 1324 132 1340 q 67 1300 88 1307 q 14 1292 43 1292 q -41 1301 -19 1292 q -81 1325 -62 1311 q -137 1407 -119 1353 q -146 1460 -146 1432 m 279 1460 q 310 1558 279 1515 q 388 1615 339 1599 q 439 1624 413 1624 q 533 1593 490 1624 q 569 1558 556 1578 q 590 1513 582 1538 q 599 1460 599 1488 q 569 1361 599 1404 q 535 1324 557 1340 q 492 1300 513 1307 q 439 1292 468 1292 q 384 1301 406 1292 q 344 1325 363 1311 q 288 1407 306 1353 q 279 1460 279 1432 z "},"ì":{"ha":451,"x_min":-74,"x_max":386,"o":"m 69 0 l 69 1208 l 382 1208 l 382 0 l 69 0 m 164 1292 l -74 1694 l 207 1694 l 386 1292 l 164 1292 z "},"ī":{"ha":451,"x_min":-68,"x_max":519,"o":"m 69 0 l 69 1208 l 382 1208 l 382 0 l 69 0 m -68 1292 l -68 1542 l 519 1542 l 519 1292 l -68 1292 z "},"į":{"ha":451,"x_min":-14,"x_max":400,"o":"m 69 0 l 69 1208 l 382 1208 l 382 0 l 69 0 m 53 1474 q 86 1581 53 1533 q 123 1619 100 1603 q 171 1643 146 1636 q 226 1651 197 1651 q 281 1644 254 1651 q 331 1619 307 1636 q 392 1532 375 1586 q 400 1474 400 1504 q 351 1344 400 1397 q 226 1292 303 1292 q 124 1326 167 1292 q 86 1365 101 1343 q 61 1417 71 1386 q 53 1474 53 1443 m 351 -276 l 351 -482 q 229 -471 283 -482 q 131 -440 175 -460 q 50 -392 79 -419 q 4 -331 21 -364 q -14 -257 -14 -297 q 28 -119 -14 -185 q 77 -61 47 -87 q 140 -14 107 -35 q 217 18 176 7 l 382 0 q 328 -20 350 -10 q 279 -51 306 -31 q 215 -133 232 -89 q 207 -179 207 -156 q 216 -219 207 -204 q 232 -240 225 -235 q 264 -261 244 -253 q 301 -272 283 -269 q 325 -276 313 -275 q 351 -276 338 -276 z "},"ĩ":{"ha":451,"x_min":-85,"x_max":536,"o":"m 69 0 l 69 1208 l 382 1208 l 382 0 l 69 0 m 107 1292 l -85 1292 q -42 1510 -85 1438 q 79 1583 0 1583 q 130 1576 107 1583 q 183 1554 153 1569 q 224 1530 203 1543 q 263 1507 244 1517 q 293 1499 279 1499 q 309 1501 301 1499 q 325 1514 317 1504 q 334 1530 331 1522 q 342 1556 338 1538 q 344 1583 344 1568 l 536 1583 q 531 1483 536 1529 q 511 1397 525 1436 q 477 1338 497 1360 q 432 1304 457 1315 q 371 1292 407 1292 q 301 1305 332 1292 q 247 1335 271 1318 q 201 1365 222 1351 q 161 1378 181 1378 q 121 1353 135 1378 q 107 1292 107 1329 z "},"ĳ":{"ha":903,"x_min":39,"x_max":864,"o":"m 678 1322 q 568 1358 618 1322 q 522 1404 538 1379 q 500 1449 506 1429 q 493 1478 496 1463 q 490 1508 490 1493 q 501 1569 490 1542 q 526 1619 511 1597 q 567 1658 542 1640 q 619 1686 592 1676 q 678 1694 646 1694 q 788 1658 739 1694 q 834 1610 819 1635 q 854 1568 849 1585 q 861 1539 858 1554 q 864 1508 864 1524 q 853 1447 864 1475 q 828 1399 843 1419 q 788 1358 813 1376 q 736 1332 763 1340 q 678 1322 710 1322 m 226 1322 q 117 1358 167 1322 q 70 1404 86 1379 q 49 1449 54 1429 q 42 1478 44 1463 q 39 1508 39 1493 q 49 1569 39 1542 q 75 1619 60 1597 q 115 1658 90 1640 q 168 1686 140 1676 q 226 1694 194 1694 q 336 1658 288 1694 q 383 1610 368 1635 q 403 1568 397 1585 q 410 1539 407 1554 q 413 1508 413 1524 q 402 1447 413 1475 q 376 1399 392 1419 q 336 1358 361 1376 q 285 1332 311 1340 q 226 1322 258 1322 m 521 1208 l 833 1208 l 833 -139 q 789 -317 833 -250 q 656 -406 744 -383 q 556 -417 611 -417 l 69 -417 l 83 -118 l 479 -118 q 521 -76 521 -118 l 521 1208 m 69 0 l 69 1208 l 382 1208 l 382 0 l 69 0 z "},"j":{"ha":451,"x_min":-125,"x_max":400,"o":"m 69 1208 l 382 1208 l 382 -139 q 338 -317 382 -250 q 204 -406 293 -383 q 104 -417 160 -417 l -125 -417 l -111 -118 l 28 -118 q 69 -76 69 -118 l 69 1208 m 53 1474 q 86 1581 53 1533 q 123 1619 100 1603 q 171 1643 146 1636 q 226 1651 197 1651 q 281 1644 254 1651 q 331 1619 307 1636 q 392 1532 375 1586 q 400 1474 400 1504 q 351 1344 400 1397 q 226 1292 303 1292 q 124 1326 167 1292 q 86 1365 101 1343 q 61 1417 71 1386 q 53 1474 53 1443 z "},"ȷ":{"ha":451,"x_min":-125,"x_max":382,"o":"m 69 1208 l 382 1208 l 382 -139 q 338 -317 382 -250 q 204 -406 293 -383 q 104 -417 160 -417 l -125 -417 l -111 -118 l 28 -118 q 69 -76 69 -118 l 69 1208 z "},"ĵ":{"ha":451,"x_min":-125,"x_max":551,"o":"m 69 1208 l 382 1208 l 382 -139 q 338 -317 382 -250 q 204 -406 293 -383 q 104 -417 160 -417 l -125 -417 l -111 -118 l 28 -118 q 69 -76 69 -118 l 69 1208 m -100 1292 l 68 1686 l 383 1686 l 551 1292 l 340 1292 l 226 1492 l 111 1292 l -100 1292 z "},"k":{"ha":938,"x_min":69,"x_max":903,"o":"m 382 1667 l 382 994 q 380 956 382 979 q 375 914 378 932 q 365 865 371 893 q 351 810 358 838 q 343 781 347 796 q 333 750 338 765 l 356 750 q 365 782 363 775 q 369 798 367 789 q 383 839 372 807 q 403 888 393 865 q 424 935 413 910 q 435 957 429 946 q 446 979 440 968 l 569 1208 l 882 1208 l 621 778 l 903 0 l 590 0 l 418 476 l 382 424 l 382 0 l 69 0 l 69 1667 l 382 1667 z "},"ķ":{"ha":938,"x_min":69,"x_max":903,"o":"m 382 1667 l 382 994 q 380 956 382 979 q 375 914 378 932 q 365 865 371 893 q 351 810 358 838 q 343 781 347 796 q 333 750 338 765 l 356 750 q 365 782 363 775 q 369 798 367 789 q 383 839 372 807 q 403 888 393 865 q 424 935 413 910 q 435 957 429 946 q 446 979 440 968 l 569 1208 l 882 1208 l 621 778 l 903 0 l 590 0 l 418 476 l 382 424 l 382 0 l 69 0 l 69 1667 l 382 1667 m 267 -528 l 401 -97 l 667 -97 l 496 -528 l 267 -528 z "},"ĸ":{"ha":938,"x_min":69,"x_max":903,"o":"m 382 1208 l 382 994 q 380 956 382 979 q 375 914 378 932 q 365 865 371 893 q 351 810 358 838 q 343 781 347 796 q 333 750 338 765 l 356 750 q 365 782 363 775 q 369 798 367 789 q 383 839 372 807 q 403 888 393 865 q 424 935 413 910 q 435 957 429 946 q 446 979 440 968 l 569 1208 l 882 1208 l 621 778 l 903 0 l 590 0 l 418 476 l 382 424 l 382 0 l 69 0 l 69 1208 l 382 1208 z "},"l":{"ha":451,"x_min":69,"x_max":382,"o":"m 382 0 l 69 0 l 69 1667 l 382 1667 l 382 0 z "},"ĺ":{"ha":451,"x_min":50,"x_max":543,"o":"m 382 0 l 69 0 l 69 1667 l 382 1667 l 382 0 m 289 1778 l 50 1778 l 242 2210 l 543 2210 l 289 1778 z "},"ľ":{"ha":611,"x_min":69,"x_max":618,"o":"m 433 1275 l 419 1681 l 618 1681 l 604 1275 l 433 1275 m 382 0 l 69 0 l 69 1667 l 382 1667 l 382 0 z "},"ļ":{"ha":451,"x_min":24,"x_max":424,"o":"m 382 0 l 69 0 l 69 1667 l 382 1667 l 382 0 m 24 -528 l 158 -97 l 424 -97 l 253 -528 l 24 -528 z "},"ŀ":{"ha":721,"x_min":69,"x_max":739,"o":"m 382 0 l 69 0 l 69 1667 l 382 1667 l 382 0 m 586 489 q 542 495 565 489 q 494 518 518 501 q 439 594 450 549 q 431 643 431 618 q 461 735 431 699 q 494 768 475 753 q 538 790 513 783 q 586 797 563 797 q 636 790 614 797 q 676 768 658 782 q 710 736 694 756 q 732 693 725 717 q 737 668 735 681 q 739 643 739 656 q 733 599 739 622 q 710 551 726 575 q 678 519 697 533 q 635 497 658 504 q 586 489 613 489 z "},"ł":{"ha":715,"x_min":0,"x_max":717,"o":"m 507 0 l 194 0 l 194 431 l 40 406 l 0 653 l 194 685 l 194 1667 l 507 1667 l 507 735 l 676 763 l 717 515 l 507 482 l 507 0 z "},"m":{"ha":1432,"x_min":69,"x_max":1363,"o":"m 497 924 q 476 922 489 924 q 453 917 464 919 q 429 908 442 914 q 406 897 417 903 q 382 883 394 893 l 382 0 l 69 0 l 69 1208 l 382 1208 q 378 1180 382 1192 q 369 1151 375 1168 q 358 1120 363 1129 q 343 1088 354 1111 q 335 1073 339 1081 q 326 1060 331 1065 l 343 1046 q 392 1106 363 1075 q 449 1156 422 1136 q 510 1192 481 1178 q 574 1215 540 1207 q 605 1220 589 1218 q 636 1222 621 1222 q 678 1217 657 1222 q 722 1203 700 1213 q 760 1177 743 1192 q 793 1146 778 1163 q 807 1126 800 1136 q 819 1104 813 1115 q 874 1145 843 1125 q 931 1178 906 1165 q 989 1203 957 1192 q 1049 1218 1021 1214 q 1078 1221 1064 1219 q 1107 1222 1093 1222 q 1198 1208 1160 1222 q 1267 1169 1236 1193 q 1319 1106 1297 1144 q 1351 1022 1342 1067 q 1363 917 1363 972 l 1363 0 l 1050 0 l 1050 847 q 1047 874 1050 864 q 1038 896 1044 883 q 1021 912 1031 907 q 1003 921 1011 917 q 978 924 993 924 q 858 868 914 924 l 858 0 l 574 0 l 574 847 q 561 894 574 879 q 544 910 550 906 q 524 921 538 915 q 497 924 514 924 z "},"n":{"ha":944,"x_min":69,"x_max":875,"o":"m 69 1208 l 382 1208 q 379 1185 382 1203 q 372 1158 376 1168 q 361 1128 367 1143 q 344 1092 356 1113 q 336 1076 340 1083 q 326 1060 332 1068 l 343 1046 q 393 1109 369 1085 q 446 1157 417 1133 q 504 1193 472 1178 q 567 1215 536 1208 q 598 1220 582 1218 q 631 1222 614 1222 q 713 1209 672 1222 q 785 1169 754 1196 q 865 1014 846 1114 q 872 961 869 989 q 875 903 875 933 l 875 0 l 563 0 l 563 847 q 560 873 563 864 q 549 897 557 882 q 532 913 543 906 q 513 921 521 919 q 488 924 499 924 q 467 922 476 924 q 446 917 457 919 q 425 909 433 914 q 403 897 417 904 q 392 891 397 894 q 382 883 388 888 l 382 0 l 69 0 l 69 1208 z "},"ń":{"ha":944,"x_min":69,"x_max":875,"o":"m 69 1208 l 382 1208 q 379 1185 382 1203 q 372 1158 376 1168 q 361 1128 367 1143 q 344 1092 356 1113 q 336 1076 340 1083 q 326 1060 332 1068 l 343 1046 q 393 1109 369 1085 q 446 1157 417 1133 q 504 1193 472 1178 q 567 1215 536 1208 q 598 1220 582 1218 q 631 1222 614 1222 q 713 1209 672 1222 q 785 1169 754 1196 q 865 1014 846 1114 q 872 961 869 989 q 875 903 875 933 l 875 0 l 563 0 l 563 847 q 560 873 563 864 q 549 897 557 882 q 532 913 543 906 q 513 921 521 919 q 488 924 499 924 q 467 922 476 924 q 446 917 457 919 q 425 909 433 914 q 403 897 417 904 q 392 891 397 894 q 382 883 388 888 l 382 0 l 69 0 l 69 1208 m 533 1292 l 311 1292 l 490 1694 l 771 1694 l 533 1292 z "},"ŉ":{"ha":944,"x_min":-206,"x_max":875,"o":"m -206 1181 l -51 1564 l 219 1564 l 10 1181 l -206 1181 m 69 1208 l 382 1208 q 379 1185 382 1203 q 372 1158 376 1168 q 361 1128 367 1143 q 344 1092 356 1113 q 336 1076 340 1083 q 326 1060 332 1068 l 343 1046 q 393 1109 369 1085 q 446 1157 417 1133 q 504 1193 472 1178 q 567 1215 536 1208 q 598 1220 582 1218 q 631 1222 614 1222 q 713 1209 672 1222 q 785 1169 754 1196 q 865 1014 846 1114 q 872 961 869 989 q 875 903 875 933 l 875 0 l 563 0 l 563 847 q 560 873 563 864 q 549 897 557 882 q 532 913 543 906 q 513 921 521 919 q 488 924 499 924 q 467 922 476 924 q 446 917 457 919 q 425 909 433 914 q 403 897 417 904 q 392 891 397 894 q 382 883 388 888 l 382 0 l 69 0 l 69 1208 z "},"ň":{"ha":944,"x_min":69,"x_max":875,"o":"m 69 1208 l 382 1208 q 379 1185 382 1203 q 372 1158 376 1168 q 361 1128 367 1143 q 344 1092 356 1113 q 336 1076 340 1083 q 326 1060 332 1068 l 343 1046 q 393 1109 369 1085 q 446 1157 417 1133 q 504 1193 472 1178 q 567 1215 536 1208 q 598 1220 582 1218 q 631 1222 614 1222 q 713 1209 672 1222 q 785 1169 754 1196 q 865 1014 846 1114 q 872 961 869 989 q 875 903 875 933 l 875 0 l 563 0 l 563 847 q 560 873 563 864 q 549 897 557 882 q 532 913 543 906 q 513 921 521 919 q 488 924 499 924 q 467 922 476 924 q 446 917 457 919 q 425 909 433 914 q 403 897 417 904 q 392 891 397 894 q 382 883 388 888 l 382 0 l 69 0 l 69 1208 m 314 1292 l 146 1686 l 357 1686 l 471 1486 l 586 1686 l 797 1686 l 629 1292 l 314 1292 z "},"ņ":{"ha":944,"x_min":69,"x_max":875,"o":"m 69 1208 l 382 1208 q 379 1185 382 1203 q 372 1158 376 1168 q 361 1128 367 1143 q 344 1092 356 1113 q 336 1076 340 1083 q 326 1060 332 1068 l 343 1046 q 393 1109 369 1085 q 446 1157 417 1133 q 504 1193 472 1178 q 567 1215 536 1208 q 598 1220 582 1218 q 631 1222 614 1222 q 713 1209 672 1222 q 785 1169 754 1196 q 865 1014 846 1114 q 872 961 869 989 q 875 903 875 933 l 875 0 l 563 0 l 563 847 q 560 873 563 864 q 549 897 557 882 q 532 913 543 906 q 513 921 521 919 q 488 924 499 924 q 467 922 476 924 q 446 917 457 919 q 425 909 433 914 q 403 897 417 904 q 392 891 397 894 q 382 883 388 888 l 382 0 l 69 0 l 69 1208 m 269 -528 l 404 -97 l 669 -97 l 499 -528 l 269 -528 z "},"ñ":{"ha":944,"x_min":69,"x_max":875,"o":"m 69 1208 l 382 1208 q 379 1185 382 1203 q 372 1158 376 1168 q 361 1128 367 1143 q 344 1092 356 1113 q 336 1076 340 1083 q 326 1060 332 1068 l 343 1046 q 393 1109 369 1085 q 446 1157 417 1133 q 504 1193 472 1178 q 567 1215 536 1208 q 598 1220 582 1218 q 631 1222 614 1222 q 713 1209 672 1222 q 785 1169 754 1196 q 865 1014 846 1114 q 872 961 869 989 q 875 903 875 933 l 875 0 l 563 0 l 563 847 q 560 873 563 864 q 549 897 557 882 q 532 913 543 906 q 513 921 521 919 q 488 924 499 924 q 467 922 476 924 q 446 917 457 919 q 425 909 433 914 q 403 897 417 904 q 392 891 397 894 q 382 883 388 888 l 382 0 l 69 0 l 69 1208 m 353 1292 l 161 1292 q 203 1510 161 1438 q 325 1583 246 1583 q 376 1576 353 1583 q 429 1554 399 1569 q 469 1530 449 1543 q 508 1507 490 1517 q 539 1499 525 1499 q 555 1501 547 1499 q 571 1514 563 1504 q 580 1530 576 1522 q 588 1556 583 1538 q 590 1583 590 1568 l 782 1583 q 776 1483 782 1529 q 757 1397 771 1436 q 723 1338 743 1360 q 678 1304 703 1315 q 617 1292 653 1292 q 547 1305 578 1292 q 493 1335 517 1318 q 447 1365 468 1351 q 407 1378 426 1378 q 367 1353 381 1378 q 353 1292 353 1329 z "},"o":{"ha":1292,"x_min":35,"x_max":1257,"o":"m 646 -14 q 449 19 540 -14 q 285 107 357 51 q 153 238 210 163 q 65 413 97 313 q 35 608 35 504 q 65 801 35 708 q 151 971 96 894 q 287 1106 210 1050 q 451 1190 364 1161 q 546 1214 497 1206 q 646 1222 594 1222 q 838 1190 744 1222 q 1007 1104 932 1158 q 1138 972 1081 1049 q 1226 801 1196 894 q 1249 707 1240 756 q 1257 608 1257 658 q 1231 429 1257 525 q 1139 240 1206 333 q 1006 106 1083 163 q 839 18 928 49 q 744 -6 793 3 q 646 -14 696 -14 m 647 285 q 740 300 693 285 q 822 346 786 315 q 894 424 868 382 q 929 503 919 467 q 940 552 936 526 q 944 604 944 578 q 929 706 944 658 q 888 794 914 754 q 828 859 864 828 q 740 908 792 890 q 647 924 694 924 q 471 864 547 924 q 406 795 435 836 q 363 707 376 754 q 351 657 356 683 q 347 604 347 631 q 360 513 347 561 q 406 415 372 464 q 468 347 432 376 q 553 301 504 318 q 647 285 599 285 z "},"ó":{"ha":1292,"x_min":35,"x_max":1257,"o":"m 646 -14 q 449 19 540 -14 q 285 107 357 51 q 153 238 210 163 q 65 413 97 313 q 35 608 35 504 q 65 801 35 708 q 151 971 96 894 q 287 1106 210 1050 q 451 1190 364 1161 q 546 1214 497 1206 q 646 1222 594 1222 q 838 1190 744 1222 q 1007 1104 932 1158 q 1138 972 1081 1049 q 1226 801 1196 894 q 1249 707 1240 756 q 1257 608 1257 658 q 1231 429 1257 525 q 1139 240 1206 333 q 1006 106 1083 163 q 839 18 928 49 q 744 -6 793 3 q 646 -14 696 -14 m 647 285 q 740 300 693 285 q 822 346 786 315 q 894 424 868 382 q 929 503 919 467 q 940 552 936 526 q 944 604 944 578 q 929 706 944 658 q 888 794 914 754 q 828 859 864 828 q 740 908 792 890 q 647 924 694 924 q 471 864 547 924 q 406 795 435 836 q 363 707 376 754 q 351 657 356 683 q 347 604 347 631 q 360 513 347 561 q 406 415 372 464 q 468 347 432 376 q 553 301 504 318 q 647 285 599 285 m 707 1292 l 485 1292 l 664 1694 l 944 1694 l 707 1292 z "},"ŏ":{"ha":1292,"x_min":35,"x_max":1257,"o":"m 646 -14 q 449 19 540 -14 q 285 107 357 51 q 153 238 210 163 q 65 413 97 313 q 35 608 35 504 q 65 801 35 708 q 151 971 96 894 q 287 1106 210 1050 q 451 1190 364 1161 q 546 1214 497 1206 q 646 1222 594 1222 q 838 1190 744 1222 q 1007 1104 932 1158 q 1138 972 1081 1049 q 1226 801 1196 894 q 1249 707 1240 756 q 1257 608 1257 658 q 1231 429 1257 525 q 1139 240 1206 333 q 1006 106 1083 163 q 839 18 928 49 q 744 -6 793 3 q 646 -14 696 -14 m 647 285 q 740 300 693 285 q 822 346 786 315 q 894 424 868 382 q 929 503 919 467 q 940 552 936 526 q 944 604 944 578 q 929 706 944 658 q 888 794 914 754 q 828 859 864 828 q 740 908 792 890 q 647 924 694 924 q 471 864 547 924 q 406 795 435 836 q 363 707 376 754 q 351 657 356 683 q 347 604 347 631 q 360 513 347 561 q 406 415 372 464 q 468 347 432 376 q 553 301 504 318 q 647 285 599 285 m 733 1583 l 921 1583 q 869 1410 921 1483 q 813 1348 844 1374 q 735 1307 781 1322 q 643 1292 693 1292 q 551 1308 592 1292 q 481 1347 510 1324 q 422 1410 447 1374 q 385 1490 396 1446 q 374 1535 378 1513 q 371 1583 371 1558 l 558 1583 q 575 1526 558 1550 q 617 1492 593 1499 q 644 1486 633 1486 q 674 1491 658 1486 q 699 1506 689 1496 q 717 1526 711 1518 q 729 1553 724 1535 q 733 1583 733 1569 z "},"ô":{"ha":1292,"x_min":35,"x_max":1257,"o":"m 646 -14 q 449 19 540 -14 q 285 107 357 51 q 153 238 210 163 q 65 413 97 313 q 35 608 35 504 q 65 801 35 708 q 151 971 96 894 q 287 1106 210 1050 q 451 1190 364 1161 q 546 1214 497 1206 q 646 1222 594 1222 q 838 1190 744 1222 q 1007 1104 932 1158 q 1138 972 1081 1049 q 1226 801 1196 894 q 1249 707 1240 756 q 1257 608 1257 658 q 1231 429 1257 525 q 1139 240 1206 333 q 1006 106 1083 163 q 839 18 928 49 q 744 -6 793 3 q 646 -14 696 -14 m 647 285 q 740 300 693 285 q 822 346 786 315 q 894 424 868 382 q 929 503 919 467 q 940 552 936 526 q 944 604 944 578 q 929 706 944 658 q 888 794 914 754 q 828 859 864 828 q 740 908 792 890 q 647 924 694 924 q 471 864 547 924 q 406 795 435 836 q 363 707 376 754 q 351 657 356 683 q 347 604 347 631 q 360 513 347 561 q 406 415 372 464 q 468 347 432 376 q 553 301 504 318 q 647 285 599 285 m 319 1292 l 488 1686 l 803 1686 l 971 1292 l 760 1292 l 646 1492 l 531 1292 l 319 1292 z "},"ö":{"ha":1292,"x_min":35,"x_max":1257,"o":"m 646 -14 q 449 19 540 -14 q 285 107 357 51 q 153 238 210 163 q 65 413 97 313 q 35 608 35 504 q 65 801 35 708 q 151 971 96 894 q 287 1106 210 1050 q 451 1190 364 1161 q 546 1214 497 1206 q 646 1222 594 1222 q 838 1190 744 1222 q 1007 1104 932 1158 q 1138 972 1081 1049 q 1226 801 1196 894 q 1249 707 1240 756 q 1257 608 1257 658 q 1231 429 1257 525 q 1139 240 1206 333 q 1006 106 1083 163 q 839 18 928 49 q 744 -6 793 3 q 646 -14 696 -14 m 647 285 q 740 300 693 285 q 822 346 786 315 q 894 424 868 382 q 929 503 919 467 q 940 552 936 526 q 944 604 944 578 q 929 706 944 658 q 888 794 914 754 q 828 859 864 828 q 740 908 792 890 q 647 924 694 924 q 471 864 547 924 q 406 795 435 836 q 363 707 376 754 q 351 657 356 683 q 347 604 347 631 q 360 513 347 561 q 406 415 372 464 q 468 347 432 376 q 553 301 504 318 q 647 285 599 285 m 274 1460 q 304 1558 274 1515 q 382 1615 333 1599 q 433 1624 407 1624 q 528 1593 485 1624 q 563 1558 550 1578 q 585 1513 576 1538 q 593 1460 593 1488 q 564 1361 593 1404 q 529 1324 551 1340 q 486 1300 507 1307 q 433 1292 463 1292 q 378 1301 400 1292 q 339 1325 357 1311 q 282 1407 300 1353 q 274 1460 274 1432 m 699 1460 q 729 1558 699 1515 q 807 1615 758 1599 q 858 1624 832 1624 q 953 1593 910 1624 q 988 1558 975 1578 q 1010 1513 1001 1538 q 1018 1460 1018 1488 q 989 1361 1018 1404 q 954 1324 976 1340 q 911 1300 932 1307 q 858 1292 888 1292 q 803 1301 825 1292 q 764 1325 782 1311 q 707 1407 725 1353 q 699 1460 699 1432 z "},"ò":{"ha":1292,"x_min":35,"x_max":1257,"o":"m 646 -14 q 449 19 540 -14 q 285 107 357 51 q 153 238 210 163 q 65 413 97 313 q 35 608 35 504 q 65 801 35 708 q 151 971 96 894 q 287 1106 210 1050 q 451 1190 364 1161 q 546 1214 497 1206 q 646 1222 594 1222 q 838 1190 744 1222 q 1007 1104 932 1158 q 1138 972 1081 1049 q 1226 801 1196 894 q 1249 707 1240 756 q 1257 608 1257 658 q 1231 429 1257 525 q 1139 240 1206 333 q 1006 106 1083 163 q 839 18 928 49 q 744 -6 793 3 q 646 -14 696 -14 m 647 285 q 740 300 693 285 q 822 346 786 315 q 894 424 868 382 q 929 503 919 467 q 940 552 936 526 q 944 604 944 578 q 929 706 944 658 q 888 794 914 754 q 828 859 864 828 q 740 908 792 890 q 647 924 694 924 q 471 864 547 924 q 406 795 435 836 q 363 707 376 754 q 351 657 356 683 q 347 604 347 631 q 360 513 347 561 q 406 415 372 464 q 468 347 432 376 q 553 301 504 318 q 647 285 599 285 m 583 1292 l 346 1694 l 626 1694 l 806 1292 l 583 1292 z "},"ő":{"ha":1292,"x_min":35,"x_max":1257,"o":"m 646 -14 q 449 19 540 -14 q 285 107 357 51 q 153 238 210 163 q 65 413 97 313 q 35 608 35 504 q 65 801 35 708 q 151 971 96 894 q 287 1106 210 1050 q 451 1190 364 1161 q 546 1214 497 1206 q 646 1222 594 1222 q 838 1190 744 1222 q 1007 1104 932 1158 q 1138 972 1081 1049 q 1226 801 1196 894 q 1249 707 1240 756 q 1257 608 1257 658 q 1231 429 1257 525 q 1139 240 1206 333 q 1006 106 1083 163 q 839 18 928 49 q 744 -6 793 3 q 646 -14 696 -14 m 647 285 q 740 300 693 285 q 822 346 786 315 q 894 424 868 382 q 929 503 919 467 q 940 552 936 526 q 944 604 944 578 q 929 706 944 658 q 888 794 914 754 q 828 859 864 828 q 740 908 792 890 q 647 924 694 924 q 471 864 547 924 q 406 795 435 836 q 363 707 376 754 q 351 657 356 683 q 347 604 347 631 q 360 513 347 561 q 406 415 372 464 q 468 347 432 376 q 553 301 504 318 q 647 285 599 285 m 306 1292 l 438 1667 l 681 1667 l 493 1292 l 306 1292 m 611 1292 l 743 1667 l 986 1667 l 799 1292 l 611 1292 z "},"ō":{"ha":1292,"x_min":35,"x_max":1257,"o":"m 646 -14 q 449 19 540 -14 q 285 107 357 51 q 153 238 210 163 q 65 413 97 313 q 35 608 35 504 q 65 801 35 708 q 151 971 96 894 q 287 1106 210 1050 q 451 1190 364 1161 q 546 1214 497 1206 q 646 1222 594 1222 q 838 1190 744 1222 q 1007 1104 932 1158 q 1138 972 1081 1049 q 1226 801 1196 894 q 1249 707 1240 756 q 1257 608 1257 658 q 1231 429 1257 525 q 1139 240 1206 333 q 1006 106 1083 163 q 839 18 928 49 q 744 -6 793 3 q 646 -14 696 -14 m 647 285 q 740 300 693 285 q 822 346 786 315 q 894 424 868 382 q 929 503 919 467 q 940 552 936 526 q 944 604 944 578 q 929 706 944 658 q 888 794 914 754 q 828 859 864 828 q 740 908 792 890 q 647 924 694 924 q 471 864 547 924 q 406 795 435 836 q 363 707 376 754 q 351 657 356 683 q 347 604 347 631 q 360 513 347 561 q 406 415 372 464 q 468 347 432 376 q 553 301 504 318 q 647 285 599 285 m 351 1292 l 351 1542 l 939 1542 l 939 1292 l 351 1292 z "},"ø":{"ha":1292,"x_min":35,"x_max":1257,"o":"m 646 -14 q 561 -8 603 -14 l 501 -174 l 231 -174 l 322 79 q 227 154 269 113 q 146 249 185 196 q 86 357 113 294 q 49 478 60 419 q 38 542 42 510 q 35 608 35 575 q 65 801 35 708 q 151 971 96 894 q 287 1106 210 1050 q 451 1190 364 1161 q 546 1214 497 1206 q 646 1222 594 1222 q 731 1217 689 1222 l 778 1347 l 1049 1347 l 969 1128 q 1065 1053 1019 1096 q 1146 961 1111 1010 q 1206 853 1179 911 q 1244 736 1232 796 q 1253 673 1250 704 q 1257 608 1257 642 q 1231 429 1257 525 q 1139 240 1206 333 q 1006 106 1083 163 q 839 18 928 49 q 744 -6 793 3 q 646 -14 696 -14 m 647 285 q 740 300 693 285 q 822 346 786 315 q 894 424 868 382 q 929 503 919 467 q 940 552 936 526 q 944 604 944 578 q 929 706 944 658 q 888 794 914 754 q 828 859 864 828 q 740 908 792 890 q 647 924 694 924 q 471 864 547 924 q 406 795 435 836 q 363 707 376 754 q 351 657 356 683 q 347 604 347 631 q 360 513 347 561 q 406 415 372 464 q 468 347 432 376 q 553 301 504 318 q 647 285 599 285 z "},"õ":{"ha":1292,"x_min":35,"x_max":1257,"o":"m 646 -14 q 449 19 540 -14 q 285 107 357 51 q 153 238 210 163 q 65 413 97 313 q 35 608 35 504 q 65 801 35 708 q 151 971 96 894 q 287 1106 210 1050 q 451 1190 364 1161 q 546 1214 497 1206 q 646 1222 594 1222 q 838 1190 744 1222 q 1007 1104 932 1158 q 1138 972 1081 1049 q 1226 801 1196 894 q 1249 707 1240 756 q 1257 608 1257 658 q 1231 429 1257 525 q 1139 240 1206 333 q 1006 106 1083 163 q 839 18 928 49 q 744 -6 793 3 q 646 -14 696 -14 m 647 285 q 740 300 693 285 q 822 346 786 315 q 894 424 868 382 q 929 503 919 467 q 940 552 936 526 q 944 604 944 578 q 929 706 944 658 q 888 794 914 754 q 828 859 864 828 q 740 908 792 890 q 647 924 694 924 q 471 864 547 924 q 406 795 435 836 q 363 707 376 754 q 351 657 356 683 q 347 604 347 631 q 360 513 347 561 q 406 415 372 464 q 468 347 432 376 q 553 301 504 318 q 647 285 599 285 m 526 1292 l 335 1292 q 377 1510 335 1438 q 499 1583 419 1583 q 549 1576 526 1583 q 603 1554 572 1569 q 643 1530 622 1543 q 682 1507 664 1517 q 713 1499 699 1499 q 728 1501 721 1499 q 744 1514 736 1504 q 753 1530 750 1522 q 761 1556 757 1538 q 764 1583 764 1568 l 956 1583 q 950 1483 956 1529 q 931 1397 944 1436 q 897 1338 917 1360 q 851 1304 876 1315 q 790 1292 826 1292 q 721 1305 751 1292 q 667 1335 690 1318 q 621 1365 642 1351 q 581 1378 600 1378 q 540 1353 554 1378 q 526 1292 526 1329 z "},"œ":{"ha":2153,"x_min":35,"x_max":2118,"o":"m 646 -14 q 449 19 540 -14 q 285 107 357 51 q 153 238 210 163 q 65 413 97 313 q 35 608 35 504 q 65 801 35 708 q 151 971 96 894 q 287 1106 210 1050 q 451 1190 364 1161 q 546 1214 497 1206 q 646 1222 594 1222 q 749 1214 699 1222 q 854 1186 799 1206 q 960 1134 914 1163 q 1031 1085 1006 1106 q 1068 1051 1050 1068 q 1103 1014 1086 1033 q 1173 1085 1139 1056 q 1256 1144 1207 1114 q 1351 1189 1303 1174 q 1444 1214 1399 1204 q 1496 1220 1469 1218 q 1549 1222 1522 1222 q 1731 1191 1642 1222 q 1888 1104 1819 1160 q 2010 971 1958 1046 q 2090 801 2063 896 q 2118 608 2118 710 l 2118 507 l 1274 507 q 1301 430 1282 465 q 1343 369 1319 394 q 1399 324 1369 342 q 1469 296 1428 306 q 1508 288 1488 290 q 1550 285 1528 285 q 1672 307 1617 285 q 1763 369 1728 329 q 1778 390 1771 379 q 1790 413 1785 401 l 2108 413 q 2051 263 2089 326 q 1968 156 2014 199 q 1849 65 1915 103 q 1706 7 1783 28 q 1628 -8 1668 -3 q 1546 -14 1588 -14 q 1441 -5 1490 -14 q 1340 22 1392 4 q 1263 58 1307 35 q 1172 124 1219 82 q 1103 194 1133 156 q 1038 131 1076 164 q 946 67 1000 99 q 851 23 904 42 q 753 -4 799 4 q 699 -12 726 -10 q 646 -14 672 -14 m 647 285 q 740 300 693 285 q 822 346 786 315 q 894 424 868 382 q 929 503 919 467 q 940 552 936 526 q 944 604 944 578 q 929 706 944 658 q 888 794 914 754 q 828 859 864 828 q 740 908 792 890 q 647 924 694 924 q 471 864 547 924 q 406 795 435 836 q 363 707 376 754 q 351 657 356 683 q 347 604 347 631 q 360 513 347 561 q 406 415 372 464 q 468 347 432 376 q 553 301 504 318 q 647 285 599 285 m 1279 715 l 1811 715 q 1736 842 1789 789 q 1615 914 1685 893 q 1579 921 1597 918 q 1542 924 1561 924 q 1406 886 1471 924 q 1356 847 1382 872 q 1310 785 1331 822 q 1279 715 1290 750 z "},"p":{"ha":958,"x_min":69,"x_max":903,"o":"m 69 1208 l 382 1208 q 380 1187 382 1200 q 371 1156 378 1174 q 360 1124 364 1136 q 343 1090 356 1111 q 335 1074 339 1082 q 326 1060 331 1067 l 343 1046 q 644 1222 458 1222 q 811 1167 750 1222 q 893 1000 874 1110 q 900 941 897 972 q 903 875 903 910 l 903 338 q 892 210 903 269 q 860 111 882 151 q 807 42 838 69 q 732 0 776 15 q 633 -14 689 -14 q 524 1 571 -14 q 472 19 490 11 q 425 44 453 28 q 382 74 401 57 l 382 -417 l 69 -417 l 69 1208 m 368 797 l 368 411 q 386 333 368 365 q 406 309 392 322 q 440 290 421 296 q 479 285 457 285 q 517 290 499 285 q 550 307 535 294 q 572 331 563 318 q 586 368 581 344 q 590 411 590 390 l 590 797 q 572 876 590 843 q 552 899 567 886 q 519 918 538 913 q 479 924 501 924 q 442 919 460 924 q 410 901 424 914 q 387 877 396 890 q 374 840 378 864 q 368 797 368 818 z "},"þ":{"ha":958,"x_min":69,"x_max":903,"o":"m 382 0 l 382 -417 l 69 -417 l 69 1667 l 382 1667 l 382 1108 q 429 1153 403 1132 q 474 1183 456 1174 q 521 1205 500 1197 q 569 1218 542 1213 q 595 1221 582 1219 q 622 1222 608 1222 q 793 1167 722 1222 q 852 1097 826 1140 q 890 1000 878 1054 q 899 941 896 972 q 903 875 903 910 l 903 338 q 640 -14 903 -14 q 566 -7 604 -14 q 496 17 528 0 q 434 53 460 33 q 385 101 408 72 q 343 163 358 131 l 326 149 q 343 119 333 136 q 360 86 353 101 q 370 56 364 74 q 379 24 376 38 q 382 0 382 10 m 368 797 l 368 411 q 386 333 368 365 q 406 309 392 322 q 440 290 421 296 q 479 285 457 285 q 517 290 499 285 q 550 307 535 294 q 572 331 563 318 q 586 368 581 344 q 590 411 590 390 l 590 797 q 572 876 590 843 q 552 899 567 886 q 519 918 538 913 q 479 924 501 924 q 442 919 460 924 q 410 901 424 914 q 387 877 396 890 q 374 840 378 864 q 368 797 368 818 z "},"q":{"ha":958,"x_min":56,"x_max":889,"o":"m 576 1208 l 889 1208 l 889 -417 l 576 -417 l 576 94 q 310 -14 454 -14 q 56 338 56 -14 l 56 875 q 101 1096 56 1010 q 235 1208 146 1181 q 332 1222 276 1222 q 393 1216 361 1222 q 454 1196 425 1210 q 512 1158 483 1181 q 564 1111 540 1135 q 615 1046 589 1085 l 632 1060 q 615 1090 625 1072 q 600 1122 606 1107 q 588 1153 594 1135 q 579 1185 582 1171 q 576 1208 576 1199 m 590 411 l 590 797 q 572 876 590 843 q 552 899 567 886 q 519 918 538 913 q 479 924 501 924 q 442 919 460 924 q 410 901 424 914 q 387 877 396 890 q 374 840 378 864 q 368 797 368 818 l 368 411 q 386 333 368 365 q 406 309 392 322 q 440 290 421 296 q 479 285 457 285 q 517 290 499 285 q 550 307 535 294 q 572 331 563 318 q 586 368 581 344 q 590 411 590 390 z "},"r":{"ha":733,"x_min":69,"x_max":713,"o":"m 69 1208 l 382 1208 q 379 1181 382 1193 q 369 1150 376 1169 q 361 1125 363 1129 q 356 1116 360 1121 q 343 1088 353 1111 q 326 1060 336 1072 l 343 1046 q 387 1104 365 1079 q 442 1153 408 1129 q 575 1203 497 1192 q 658 1208 611 1208 l 713 1208 l 699 910 l 611 910 q 443 875 501 910 q 382 772 382 838 l 382 0 l 69 0 l 69 1208 z "},"ŕ":{"ha":733,"x_min":69,"x_max":713,"o":"m 69 1208 l 382 1208 q 379 1181 382 1193 q 369 1150 376 1169 q 361 1125 363 1129 q 356 1116 360 1121 q 343 1088 353 1111 q 326 1060 336 1072 l 343 1046 q 387 1104 365 1079 q 442 1153 408 1129 q 575 1203 497 1192 q 658 1208 611 1208 l 713 1208 l 699 910 l 611 910 q 443 875 501 910 q 382 772 382 838 l 382 0 l 69 0 l 69 1208 m 428 1292 l 206 1292 l 385 1694 l 665 1694 l 428 1292 z "},"ř":{"ha":733,"x_min":40,"x_max":713,"o":"m 69 1208 l 382 1208 q 379 1181 382 1193 q 369 1150 376 1169 q 361 1125 363 1129 q 356 1116 360 1121 q 343 1088 353 1111 q 326 1060 336 1072 l 343 1046 q 387 1104 365 1079 q 442 1153 408 1129 q 575 1203 497 1192 q 658 1208 611 1208 l 713 1208 l 699 910 l 611 910 q 443 875 501 910 q 382 772 382 838 l 382 0 l 69 0 l 69 1208 m 208 1292 l 40 1686 l 251 1686 l 365 1486 l 481 1686 l 692 1686 l 524 1292 l 208 1292 z "},"ŗ":{"ha":733,"x_min":69,"x_max":713,"o":"m 69 1208 l 382 1208 q 379 1181 382 1193 q 369 1150 376 1169 q 361 1125 363 1129 q 356 1116 360 1121 q 343 1088 353 1111 q 326 1060 336 1072 l 343 1046 q 387 1104 365 1079 q 442 1153 408 1129 q 575 1203 497 1192 q 658 1208 611 1208 l 713 1208 l 699 910 l 611 910 q 443 875 501 910 q 382 772 382 838 l 382 0 l 69 0 l 69 1208 m 164 -528 l 299 -97 l 564 -97 l 393 -528 l 164 -528 z "},"s":{"ha":861,"x_min":35,"x_max":826,"o":"m 514 847 l 514 900 q 432 965 514 965 q 361 897 361 965 q 363 883 361 890 q 372 864 364 875 q 399 831 381 850 q 444 789 417 813 q 477 761 458 776 q 519 729 496 746 q 643 631 596 669 q 733 546 690 592 q 788 473 765 511 q 818 399 810 435 q 826 318 826 360 q 724 72 826 157 q 426 -14 622 -14 q 178 40 274 -14 q 92 115 122 71 q 51 199 63 158 q 35 315 35 254 l 35 424 l 306 424 l 306 343 q 325 282 306 306 q 348 259 338 265 q 376 249 358 253 q 394 244 385 246 q 413 243 403 243 q 444 246 429 243 q 476 258 458 249 q 510 297 501 272 q 514 325 514 314 q 510 353 514 339 q 494 382 506 367 q 460 417 485 394 q 413 458 436 439 q 379 485 397 471 q 339 515 361 499 q 222 610 274 565 q 138 692 169 654 q 85 765 104 731 q 57 839 65 800 q 49 917 49 876 q 421 1222 49 1222 q 551 1210 490 1222 q 653 1176 611 1199 q 771 1039 740 1128 q 785 938 785 996 l 785 847 l 514 847 z "},"ś":{"ha":861,"x_min":35,"x_max":826,"o":"m 514 847 l 514 900 q 432 965 514 965 q 361 897 361 965 q 363 883 361 890 q 372 864 364 875 q 399 831 381 850 q 444 789 417 813 q 477 761 458 776 q 519 729 496 746 q 643 631 596 669 q 733 546 690 592 q 788 473 765 511 q 818 399 810 435 q 826 318 826 360 q 724 72 826 157 q 426 -14 622 -14 q 178 40 274 -14 q 92 115 122 71 q 51 199 63 158 q 35 315 35 254 l 35 424 l 306 424 l 306 343 q 325 282 306 306 q 348 259 338 265 q 376 249 358 253 q 394 244 385 246 q 413 243 403 243 q 444 246 429 243 q 476 258 458 249 q 510 297 501 272 q 514 325 514 314 q 510 353 514 339 q 494 382 506 367 q 460 417 485 394 q 413 458 436 439 q 379 485 397 471 q 339 515 361 499 q 222 610 274 565 q 138 692 169 654 q 85 765 104 731 q 57 839 65 800 q 49 917 49 876 q 421 1222 49 1222 q 551 1210 490 1222 q 653 1176 611 1199 q 771 1039 740 1128 q 785 938 785 996 l 785 847 l 514 847 m 492 1292 l 269 1292 l 449 1694 l 729 1694 l 492 1292 z "},"š":{"ha":861,"x_min":35,"x_max":826,"o":"m 514 847 l 514 900 q 432 965 514 965 q 361 897 361 965 q 363 883 361 890 q 372 864 364 875 q 399 831 381 850 q 444 789 417 813 q 477 761 458 776 q 519 729 496 746 q 643 631 596 669 q 733 546 690 592 q 788 473 765 511 q 818 399 810 435 q 826 318 826 360 q 724 72 826 157 q 426 -14 622 -14 q 178 40 274 -14 q 92 115 122 71 q 51 199 63 158 q 35 315 35 254 l 35 424 l 306 424 l 306 343 q 325 282 306 306 q 348 259 338 265 q 376 249 358 253 q 394 244 385 246 q 413 243 403 243 q 444 246 429 243 q 476 258 458 249 q 510 297 501 272 q 514 325 514 314 q 510 353 514 339 q 494 382 506 367 q 460 417 485 394 q 413 458 436 439 q 379 485 397 471 q 339 515 361 499 q 222 610 274 565 q 138 692 169 654 q 85 765 104 731 q 57 839 65 800 q 49 917 49 876 q 421 1222 49 1222 q 551 1210 490 1222 q 653 1176 611 1199 q 771 1039 740 1128 q 785 938 785 996 l 785 847 l 514 847 m 272 1292 l 104 1686 l 315 1686 l 429 1486 l 544 1686 l 756 1686 l 588 1292 l 272 1292 z "},"ş":{"ha":861,"x_min":35,"x_max":826,"o":"m 514 847 l 514 900 q 432 965 514 965 q 361 897 361 965 q 363 883 361 890 q 372 864 364 875 q 399 831 381 850 q 444 789 417 813 q 477 761 458 776 q 519 729 496 746 q 643 631 596 669 q 733 546 690 592 q 788 473 765 511 q 818 399 810 435 q 826 318 826 360 q 724 72 826 157 q 426 -14 622 -14 q 178 40 274 -14 q 92 115 122 71 q 51 199 63 158 q 35 315 35 254 l 35 424 l 306 424 l 306 343 q 325 282 306 306 q 348 259 338 265 q 376 249 358 253 q 394 244 385 246 q 413 243 403 243 q 444 246 429 243 q 476 258 458 249 q 510 297 501 272 q 514 325 514 314 q 510 353 514 339 q 494 382 506 367 q 460 417 485 394 q 413 458 436 439 q 379 485 397 471 q 339 515 361 499 q 222 610 274 565 q 138 692 169 654 q 85 765 104 731 q 57 839 65 800 q 49 917 49 876 q 421 1222 49 1222 q 551 1210 490 1222 q 653 1176 611 1199 q 771 1039 740 1128 q 785 938 785 996 l 785 847 l 514 847 m 342 -276 l 340 -143 l 421 39 l 561 39 l 486 -133 q 540 -155 508 -139 q 606 -200 571 -171 q 646 -247 629 -221 q 672 -301 663 -274 q 681 -361 681 -328 q 611 -529 681 -460 q 527 -587 576 -564 q 422 -622 478 -611 q 358 -632 392 -628 q 290 -636 325 -636 l 290 -428 q 425 -406 375 -428 q 475 -349 475 -385 q 451 -306 475 -322 q 424 -290 436 -294 q 386 -279 413 -285 q 365 -276 376 -276 q 342 -276 353 -276 z "},"ŝ":{"ha":861,"x_min":35,"x_max":826,"o":"m 514 847 l 514 900 q 432 965 514 965 q 361 897 361 965 q 363 883 361 890 q 372 864 364 875 q 399 831 381 850 q 444 789 417 813 q 477 761 458 776 q 519 729 496 746 q 643 631 596 669 q 733 546 690 592 q 788 473 765 511 q 818 399 810 435 q 826 318 826 360 q 724 72 826 157 q 426 -14 622 -14 q 178 40 274 -14 q 92 115 122 71 q 51 199 63 158 q 35 315 35 254 l 35 424 l 306 424 l 306 343 q 325 282 306 306 q 348 259 338 265 q 376 249 358 253 q 394 244 385 246 q 413 243 403 243 q 444 246 429 243 q 476 258 458 249 q 510 297 501 272 q 514 325 514 314 q 510 353 514 339 q 494 382 506 367 q 460 417 485 394 q 413 458 436 439 q 379 485 397 471 q 339 515 361 499 q 222 610 274 565 q 138 692 169 654 q 85 765 104 731 q 57 839 65 800 q 49 917 49 876 q 421 1222 49 1222 q 551 1210 490 1222 q 653 1176 611 1199 q 771 1039 740 1128 q 785 938 785 996 l 785 847 l 514 847 m 104 1292 l 272 1686 l 588 1686 l 756 1292 l 544 1292 l 431 1492 l 315 1292 l 104 1292 z "},"ș":{"ha":861,"x_min":35,"x_max":826,"o":"m 514 847 l 514 900 q 432 965 514 965 q 361 897 361 965 q 363 883 361 890 q 372 864 364 875 q 399 831 381 850 q 444 789 417 813 q 477 761 458 776 q 519 729 496 746 q 643 631 596 669 q 733 546 690 592 q 788 473 765 511 q 818 399 810 435 q 826 318 826 360 q 724 72 826 157 q 426 -14 622 -14 q 178 40 274 -14 q 92 115 122 71 q 51 199 63 158 q 35 315 35 254 l 35 424 l 306 424 l 306 343 q 325 282 306 306 q 348 259 338 265 q 376 249 358 253 q 394 244 385 246 q 413 243 403 243 q 444 246 429 243 q 476 258 458 249 q 510 297 501 272 q 514 325 514 314 q 510 353 514 339 q 494 382 506 367 q 460 417 485 394 q 413 458 436 439 q 379 485 397 471 q 339 515 361 499 q 222 610 274 565 q 138 692 169 654 q 85 765 104 731 q 57 839 65 800 q 49 917 49 876 q 421 1222 49 1222 q 551 1210 490 1222 q 653 1176 611 1199 q 771 1039 740 1128 q 785 938 785 996 l 785 847 l 514 847 m 228 -528 l 363 -97 l 628 -97 l 457 -528 l 228 -528 z "},"ß":{"ha":1015,"x_min":69,"x_max":981,"o":"m 469 28 l 469 324 q 490 309 486 311 q 511 297 493 307 q 549 285 528 288 q 553 283 551 283 q 557 283 556 283 q 565 282 561 282 q 632 338 608 282 q 654 496 654 392 q 640 631 654 575 q 622 674 633 653 q 599 703 611 696 q 585 710 592 707 q 569 713 578 713 l 476 713 l 476 1004 l 550 1004 q 593 1036 578 1004 q 607 1074 600 1051 q 617 1126 614 1097 q 619 1189 619 1156 q 596 1317 619 1269 q 573 1349 588 1335 q 542 1369 558 1363 q 508 1375 526 1375 q 472 1367 489 1375 q 442 1346 456 1360 q 416 1306 426 1331 q 401 1257 406 1282 q 396 1189 396 1226 l 396 0 l 69 0 l 69 1172 q 180 1540 69 1414 q 501 1667 290 1667 q 654 1647 585 1667 q 775 1596 724 1628 q 867 1510 831 1560 q 926 1397 904 1460 q 946 1260 946 1336 q 896 1056 946 1140 q 838 978 872 1014 q 757 921 803 943 q 708 901 733 910 q 657 886 683 892 l 657 864 q 765 833 711 857 q 858 771 818 808 q 967 569 939 692 q 981 435 981 507 q 959 274 981 342 q 915 165 938 206 q 844 75 888 117 q 740 8 801 33 q 624 -14 686 -14 q 469 28 542 -14 z "},"ſ":{"ha":451,"x_min":69,"x_max":625,"o":"m 382 0 l 69 0 l 69 1389 q 114 1567 69 1500 q 247 1656 158 1633 q 347 1667 292 1667 l 625 1667 l 611 1368 l 424 1368 q 382 1326 382 1368 l 382 0 z "},"t":{"ha":722,"x_min":14,"x_max":681,"o":"m 438 1500 l 438 1419 q 314 1203 438 1265 l 314 1181 q 446 1208 375 1208 l 667 1208 l 667 917 l 438 917 l 438 340 q 479 299 438 299 l 667 299 l 681 0 l 403 0 q 303 11 347 0 q 225 44 258 22 q 169 99 192 64 q 136 175 147 133 q 125 275 125 219 l 125 917 l 14 917 l 14 1208 l 125 1208 l 125 1500 l 438 1500 z "},"ŧ":{"ha":722,"x_min":14,"x_max":681,"o":"m 438 1500 l 438 1419 q 314 1203 438 1265 l 314 1181 q 446 1208 375 1208 l 667 1208 l 667 917 l 438 917 l 438 721 l 643 721 l 643 507 l 438 507 l 438 340 q 479 299 438 299 l 667 299 l 681 0 l 403 0 q 303 11 347 0 q 225 44 258 22 q 169 99 192 64 q 136 175 147 133 q 125 275 125 219 l 125 507 l 35 507 l 35 721 l 125 721 l 125 917 l 14 917 l 14 1208 l 125 1208 l 125 1500 l 438 1500 z "},"ť":{"ha":722,"x_min":14,"x_max":681,"o":"m 482 1261 l 468 1667 l 667 1667 l 653 1261 l 482 1261 m 438 1500 l 438 1419 q 314 1203 438 1265 l 314 1181 q 446 1208 375 1208 l 667 1208 l 667 917 l 438 917 l 438 340 q 479 299 438 299 l 667 299 l 681 0 l 403 0 q 303 11 347 0 q 225 44 258 22 q 169 99 192 64 q 136 175 147 133 q 125 275 125 219 l 125 917 l 14 917 l 14 1208 l 125 1208 l 125 1500 l 438 1500 z "},"ţ":{"ha":722,"x_min":14,"x_max":681,"o":"m 438 1500 l 438 1419 q 314 1203 438 1265 l 314 1181 q 446 1208 375 1208 l 667 1208 l 667 917 l 438 917 l 438 340 q 479 299 438 299 l 667 299 l 681 0 l 403 0 q 303 11 347 0 q 225 44 258 22 q 169 99 192 64 q 136 175 147 133 q 125 275 125 219 l 125 917 l 14 917 l 14 1208 l 125 1208 l 125 1500 l 438 1500 m 272 -276 l 271 -143 l 351 39 l 492 39 l 417 -133 q 470 -155 439 -139 q 536 -200 501 -171 q 576 -247 560 -221 q 603 -301 593 -274 q 611 -361 611 -328 q 542 -529 611 -460 q 458 -587 507 -564 q 353 -622 408 -611 q 289 -632 322 -628 q 221 -636 256 -636 l 221 -428 q 356 -406 306 -428 q 406 -349 406 -385 q 382 -306 406 -322 q 355 -290 367 -294 q 317 -279 343 -285 q 295 -276 307 -276 q 272 -276 283 -276 z "},"ț":{"ha":722,"x_min":14,"x_max":681,"o":"m 438 1500 l 438 1419 q 314 1203 438 1265 l 314 1181 q 446 1208 375 1208 l 667 1208 l 667 917 l 438 917 l 438 340 q 479 299 438 299 l 667 299 l 681 0 l 403 0 q 303 11 347 0 q 225 44 258 22 q 169 99 192 64 q 136 175 147 133 q 125 275 125 219 l 125 917 l 14 917 l 14 1208 l 125 1208 l 125 1500 l 438 1500 m 158 -528 l 293 -97 l 558 -97 l 388 -528 l 158 -528 z "},"u":{"ha":944,"x_min":69,"x_max":875,"o":"m 69 306 l 69 1208 l 382 1208 l 382 361 q 396 311 382 332 q 410 297 400 304 q 433 288 421 290 q 457 285 446 285 q 478 287 468 285 q 499 292 488 289 q 519 299 511 294 q 542 311 528 304 q 552 317 547 314 q 563 325 557 321 l 563 1208 l 875 1208 l 875 0 l 563 0 q 565 28 563 14 q 574 61 568 42 q 583 94 576 75 q 597 128 590 114 q 606 142 601 135 q 613 154 608 149 l 601 163 q 551 100 576 129 q 497 51 525 71 q 440 16 468 31 q 378 -6 411 1 q 347 -12 363 -10 q 314 -14 331 -14 q 163 42 226 -14 q 112 108 132 68 q 81 196 92 149 q 69 306 69 246 z "},"ú":{"ha":944,"x_min":69,"x_max":875,"o":"m 69 306 l 69 1208 l 382 1208 l 382 361 q 396 311 382 332 q 410 297 400 304 q 433 288 421 290 q 457 285 446 285 q 478 287 468 285 q 499 292 488 289 q 519 299 511 294 q 542 311 528 304 q 552 317 547 314 q 563 325 557 321 l 563 1208 l 875 1208 l 875 0 l 563 0 q 565 28 563 14 q 574 61 568 42 q 583 94 576 75 q 597 128 590 114 q 606 142 601 135 q 613 154 608 149 l 601 163 q 551 100 576 129 q 497 51 525 71 q 440 16 468 31 q 378 -6 411 1 q 347 -12 363 -10 q 314 -14 331 -14 q 163 42 226 -14 q 112 108 132 68 q 81 196 92 149 q 69 306 69 246 m 533 1292 l 311 1292 l 490 1694 l 771 1694 l 533 1292 z "},"ŭ":{"ha":944,"x_min":69,"x_max":875,"o":"m 69 306 l 69 1208 l 382 1208 l 382 361 q 396 311 382 332 q 410 297 400 304 q 433 288 421 290 q 457 285 446 285 q 478 287 468 285 q 499 292 488 289 q 519 299 511 294 q 542 311 528 304 q 552 317 547 314 q 563 325 557 321 l 563 1208 l 875 1208 l 875 0 l 563 0 q 565 28 563 14 q 574 61 568 42 q 583 94 576 75 q 597 128 590 114 q 606 142 601 135 q 613 154 608 149 l 601 163 q 551 100 576 129 q 497 51 525 71 q 440 16 468 31 q 378 -6 411 1 q 347 -12 363 -10 q 314 -14 331 -14 q 163 42 226 -14 q 112 108 132 68 q 81 196 92 149 q 69 306 69 246 m 560 1583 l 747 1583 q 696 1410 747 1483 q 639 1348 671 1374 q 561 1307 607 1322 q 469 1292 519 1292 q 377 1308 418 1292 q 307 1347 336 1324 q 248 1410 274 1374 q 211 1490 222 1446 q 201 1535 204 1513 q 197 1583 197 1558 l 385 1583 q 401 1526 385 1550 q 443 1492 419 1499 q 471 1486 460 1486 q 500 1491 485 1486 q 525 1506 515 1496 q 544 1526 538 1518 q 556 1553 550 1535 q 560 1583 560 1569 z "},"û":{"ha":944,"x_min":69,"x_max":875,"o":"m 69 306 l 69 1208 l 382 1208 l 382 361 q 396 311 382 332 q 410 297 400 304 q 433 288 421 290 q 457 285 446 285 q 478 287 468 285 q 499 292 488 289 q 519 299 511 294 q 542 311 528 304 q 552 317 547 314 q 563 325 557 321 l 563 1208 l 875 1208 l 875 0 l 563 0 q 565 28 563 14 q 574 61 568 42 q 583 94 576 75 q 597 128 590 114 q 606 142 601 135 q 613 154 608 149 l 601 163 q 551 100 576 129 q 497 51 525 71 q 440 16 468 31 q 378 -6 411 1 q 347 -12 363 -10 q 314 -14 331 -14 q 163 42 226 -14 q 112 108 132 68 q 81 196 92 149 q 69 306 69 246 m 146 1292 l 314 1686 l 629 1686 l 797 1292 l 586 1292 l 472 1492 l 357 1292 l 146 1292 z "},"ü":{"ha":944,"x_min":69,"x_max":875,"o":"m 69 306 l 69 1208 l 382 1208 l 382 361 q 396 311 382 332 q 410 297 400 304 q 433 288 421 290 q 457 285 446 285 q 478 287 468 285 q 499 292 488 289 q 519 299 511 294 q 542 311 528 304 q 552 317 547 314 q 563 325 557 321 l 563 1208 l 875 1208 l 875 0 l 563 0 q 565 28 563 14 q 574 61 568 42 q 583 94 576 75 q 597 128 590 114 q 606 142 601 135 q 613 154 608 149 l 601 163 q 551 100 576 129 q 497 51 525 71 q 440 16 468 31 q 378 -6 411 1 q 347 -12 363 -10 q 314 -14 331 -14 q 163 42 226 -14 q 112 108 132 68 q 81 196 92 149 q 69 306 69 246 m 100 1460 q 131 1558 100 1515 q 208 1615 160 1599 q 260 1624 233 1624 q 354 1593 311 1624 q 390 1558 376 1578 q 411 1513 403 1538 q 419 1460 419 1488 q 390 1361 419 1404 q 356 1324 378 1340 q 313 1300 333 1307 q 260 1292 289 1292 q 205 1301 226 1292 q 165 1325 183 1311 q 108 1407 126 1353 q 100 1460 100 1432 m 525 1460 q 556 1558 525 1515 q 633 1615 585 1599 q 685 1624 658 1624 q 779 1593 736 1624 q 815 1558 801 1578 q 836 1513 828 1538 q 844 1460 844 1488 q 815 1361 844 1404 q 781 1324 803 1340 q 738 1300 758 1307 q 685 1292 714 1292 q 630 1301 651 1292 q 590 1325 608 1311 q 533 1407 551 1353 q 525 1460 525 1432 z "},"ù":{"ha":944,"x_min":69,"x_max":875,"o":"m 69 306 l 69 1208 l 382 1208 l 382 361 q 396 311 382 332 q 410 297 400 304 q 433 288 421 290 q 457 285 446 285 q 478 287 468 285 q 499 292 488 289 q 519 299 511 294 q 542 311 528 304 q 552 317 547 314 q 563 325 557 321 l 563 1208 l 875 1208 l 875 0 l 563 0 q 565 28 563 14 q 574 61 568 42 q 583 94 576 75 q 597 128 590 114 q 606 142 601 135 q 613 154 608 149 l 601 163 q 551 100 576 129 q 497 51 525 71 q 440 16 468 31 q 378 -6 411 1 q 347 -12 363 -10 q 314 -14 331 -14 q 163 42 226 -14 q 112 108 132 68 q 81 196 92 149 q 69 306 69 246 m 410 1292 l 172 1694 l 453 1694 l 632 1292 l 410 1292 z "},"ű":{"ha":944,"x_min":69,"x_max":875,"o":"m 69 306 l 69 1208 l 382 1208 l 382 361 q 396 311 382 332 q 410 297 400 304 q 433 288 421 290 q 457 285 446 285 q 478 287 468 285 q 499 292 488 289 q 519 299 511 294 q 542 311 528 304 q 552 317 547 314 q 563 325 557 321 l 563 1208 l 875 1208 l 875 0 l 563 0 q 565 28 563 14 q 574 61 568 42 q 583 94 576 75 q 597 128 590 114 q 606 142 601 135 q 613 154 608 149 l 601 163 q 551 100 576 129 q 497 51 525 71 q 440 16 468 31 q 378 -6 411 1 q 347 -12 363 -10 q 314 -14 331 -14 q 163 42 226 -14 q 112 108 132 68 q 81 196 92 149 q 69 306 69 246 m 132 1292 l 264 1667 l 507 1667 l 319 1292 l 132 1292 m 438 1292 l 569 1667 l 813 1667 l 625 1292 l 438 1292 z "},"ū":{"ha":944,"x_min":69,"x_max":875,"o":"m 69 306 l 69 1208 l 382 1208 l 382 361 q 396 311 382 332 q 410 297 400 304 q 433 288 421 290 q 457 285 446 285 q 478 287 468 285 q 499 292 488 289 q 519 299 511 294 q 542 311 528 304 q 552 317 547 314 q 563 325 557 321 l 563 1208 l 875 1208 l 875 0 l 563 0 q 565 28 563 14 q 574 61 568 42 q 583 94 576 75 q 597 128 590 114 q 606 142 601 135 q 613 154 608 149 l 601 163 q 551 100 576 129 q 497 51 525 71 q 440 16 468 31 q 378 -6 411 1 q 347 -12 363 -10 q 314 -14 331 -14 q 163 42 226 -14 q 112 108 132 68 q 81 196 92 149 q 69 306 69 246 m 178 1292 l 178 1542 l 765 1542 l 765 1292 l 178 1292 z "},"ų":{"ha":944,"x_min":69,"x_max":875,"o":"m 69 306 l 69 1208 l 382 1208 l 382 361 q 396 311 382 332 q 410 297 400 304 q 433 288 421 290 q 457 285 446 285 q 478 287 468 285 q 499 292 488 289 q 519 299 511 294 q 542 311 528 304 q 552 317 547 314 q 563 325 557 321 l 563 1208 l 875 1208 l 875 0 l 563 0 q 565 28 563 14 q 574 61 568 42 q 583 94 576 75 q 597 128 590 114 q 606 142 601 135 q 613 154 608 149 l 601 163 q 551 100 576 129 q 497 51 525 71 q 440 16 468 31 q 378 -6 411 1 q 347 -12 363 -10 q 314 -14 331 -14 q 163 42 226 -14 q 112 108 132 68 q 81 196 92 149 q 69 306 69 246 m 844 -276 l 844 -482 q 722 -471 776 -482 q 624 -440 668 -460 q 543 -392 572 -419 q 497 -331 514 -364 q 479 -257 479 -297 q 521 -119 479 -185 q 570 -61 540 -87 q 633 -14 600 -35 q 710 18 669 7 l 875 0 q 821 -20 843 -10 q 772 -51 799 -31 q 708 -133 725 -89 q 700 -179 700 -156 q 709 -219 700 -204 q 725 -240 718 -235 q 757 -261 738 -253 q 794 -272 776 -269 q 818 -276 806 -275 q 844 -276 831 -276 z "},"ů":{"ha":944,"x_min":69,"x_max":875,"o":"m 69 306 l 69 1208 l 382 1208 l 382 361 q 396 311 382 332 q 410 297 400 304 q 433 288 421 290 q 457 285 446 285 q 478 287 468 285 q 499 292 488 289 q 519 299 511 294 q 542 311 528 304 q 552 317 547 314 q 563 325 557 321 l 563 1208 l 875 1208 l 875 0 l 563 0 q 565 28 563 14 q 574 61 568 42 q 583 94 576 75 q 597 128 590 114 q 606 142 601 135 q 613 154 608 149 l 601 163 q 551 100 576 129 q 497 51 525 71 q 440 16 468 31 q 378 -6 411 1 q 347 -12 363 -10 q 314 -14 331 -14 q 163 42 226 -14 q 112 108 132 68 q 81 196 92 149 q 69 306 69 246 m 250 1526 q 292 1661 250 1601 q 400 1740 331 1717 q 471 1751 433 1751 q 543 1740 510 1751 q 604 1710 576 1729 q 652 1660 632 1690 q 682 1600 672 1631 q 693 1526 693 1564 q 664 1407 693 1460 q 585 1323 635 1354 q 471 1292 535 1292 q 403 1302 436 1292 q 339 1338 371 1313 q 261 1451 283 1378 q 250 1526 250 1488 m 417 1522 q 432 1477 417 1496 q 472 1458 447 1458 q 506 1469 492 1458 q 524 1501 518 1479 q 526 1522 526 1511 q 517 1560 526 1539 q 490 1582 508 1575 q 472 1585 482 1585 q 455 1582 465 1585 q 439 1574 444 1579 q 428 1561 433 1568 q 419 1543 422 1554 q 417 1522 417 1532 z "},"ũ":{"ha":944,"x_min":69,"x_max":875,"o":"m 69 306 l 69 1208 l 382 1208 l 382 361 q 396 311 382 332 q 410 297 400 304 q 433 288 421 290 q 457 285 446 285 q 478 287 468 285 q 499 292 488 289 q 519 299 511 294 q 542 311 528 304 q 552 317 547 314 q 563 325 557 321 l 563 1208 l 875 1208 l 875 0 l 563 0 q 565 28 563 14 q 574 61 568 42 q 583 94 576 75 q 597 128 590 114 q 606 142 601 135 q 613 154 608 149 l 601 163 q 551 100 576 129 q 497 51 525 71 q 440 16 468 31 q 378 -6 411 1 q 347 -12 363 -10 q 314 -14 331 -14 q 163 42 226 -14 q 112 108 132 68 q 81 196 92 149 q 69 306 69 246 m 353 1292 l 161 1292 q 203 1510 161 1438 q 325 1583 246 1583 q 376 1576 353 1583 q 429 1554 399 1569 q 469 1530 449 1543 q 508 1507 490 1517 q 539 1499 525 1499 q 555 1501 547 1499 q 571 1514 563 1504 q 580 1530 576 1522 q 588 1556 583 1538 q 590 1583 590 1568 l 782 1583 q 776 1483 782 1529 q 757 1397 771 1436 q 723 1338 743 1360 q 678 1304 703 1315 q 617 1292 653 1292 q 547 1305 578 1292 q 493 1335 517 1318 q 447 1365 468 1351 q 407 1378 426 1378 q 367 1353 381 1378 q 353 1292 353 1329 z "},"v":{"ha":931,"x_min":14,"x_max":917,"o":"m 326 1208 l 425 586 q 435 515 431 554 q 443 438 440 475 q 449 362 446 401 q 454 281 451 322 q 454 243 454 261 l 454 208 l 476 208 q 478 283 476 242 q 485 358 481 325 q 493 436 488 389 q 503 515 499 483 q 508 551 506 533 q 514 586 511 569 l 611 1208 l 917 1208 l 683 0 l 247 0 l 14 1208 l 326 1208 z "},"w":{"ha":1471,"x_min":14,"x_max":1457,"o":"m 683 318 l 628 0 l 247 0 l 14 1208 l 326 1208 l 422 576 q 428 535 425 561 q 435 480 432 508 q 439 433 438 451 q 443 379 442 401 q 447 335 444 357 q 450 281 449 313 q 450 243 450 261 l 450 208 l 472 208 l 472 321 q 474 354 472 338 q 474 388 474 371 q 475 449 474 419 q 482 517 476 479 q 485 547 483 532 q 489 576 486 563 l 596 1208 l 875 1208 l 982 576 q 989 522 986 553 q 994 453 992 490 q 997 388 997 419 q 999 354 997 371 q 999 321 999 338 l 999 208 l 1021 208 q 1022 260 1021 243 q 1023 295 1022 276 q 1026 356 1024 314 q 1029 402 1026 374 q 1035 459 1032 431 q 1040 507 1038 488 q 1044 542 1042 525 q 1049 576 1046 560 l 1144 1208 l 1457 1208 l 1224 0 l 843 0 l 788 318 q 774 407 779 360 q 763 504 768 454 q 753 602 757 549 q 750 701 750 656 q 749 749 749 724 q 747 792 747 771 l 725 792 q 723 704 725 758 q 718 604 721 650 q 713 547 714 568 q 709 509 711 526 q 704 469 707 492 q 697 407 701 446 q 683 318 692 360 z "},"ẃ":{"ha":1471,"x_min":14,"x_max":1457,"o":"m 683 318 l 628 0 l 247 0 l 14 1208 l 326 1208 l 422 576 q 428 535 425 561 q 435 480 432 508 q 439 433 438 451 q 443 379 442 401 q 447 335 444 357 q 450 281 449 313 q 450 243 450 261 l 450 208 l 472 208 l 472 321 q 474 354 472 338 q 474 388 474 371 q 475 449 474 419 q 482 517 476 479 q 485 547 483 532 q 489 576 486 563 l 596 1208 l 875 1208 l 982 576 q 989 522 986 553 q 994 453 992 490 q 997 388 997 419 q 999 354 997 371 q 999 321 999 338 l 999 208 l 1021 208 q 1022 260 1021 243 q 1023 295 1022 276 q 1026 356 1024 314 q 1029 402 1026 374 q 1035 459 1032 431 q 1040 507 1038 488 q 1044 542 1042 525 q 1049 576 1046 560 l 1144 1208 l 1457 1208 l 1224 0 l 843 0 l 788 318 q 774 407 779 360 q 763 504 768 454 q 753 602 757 549 q 750 701 750 656 q 749 749 749 724 q 747 792 747 771 l 725 792 q 723 704 725 758 q 718 604 721 650 q 713 547 714 568 q 709 509 711 526 q 704 469 707 492 q 697 407 701 446 q 683 318 692 360 m 797 1292 l 575 1292 l 754 1694 l 1035 1694 l 797 1292 z "},"ŵ":{"ha":1471,"x_min":14,"x_max":1457,"o":"m 683 318 l 628 0 l 247 0 l 14 1208 l 326 1208 l 422 576 q 428 535 425 561 q 435 480 432 508 q 439 433 438 451 q 443 379 442 401 q 447 335 444 357 q 450 281 449 313 q 450 243 450 261 l 450 208 l 472 208 l 472 321 q 474 354 472 338 q 474 388 474 371 q 475 449 474 419 q 482 517 476 479 q 485 547 483 532 q 489 576 486 563 l 596 1208 l 875 1208 l 982 576 q 989 522 986 553 q 994 453 992 490 q 997 388 997 419 q 999 354 997 371 q 999 321 999 338 l 999 208 l 1021 208 q 1022 260 1021 243 q 1023 295 1022 276 q 1026 356 1024 314 q 1029 402 1026 374 q 1035 459 1032 431 q 1040 507 1038 488 q 1044 542 1042 525 q 1049 576 1046 560 l 1144 1208 l 1457 1208 l 1224 0 l 843 0 l 788 318 q 774 407 779 360 q 763 504 768 454 q 753 602 757 549 q 750 701 750 656 q 749 749 749 724 q 747 792 747 771 l 725 792 q 723 704 725 758 q 718 604 721 650 q 713 547 714 568 q 709 509 711 526 q 704 469 707 492 q 697 407 701 446 q 683 318 692 360 m 410 1292 l 578 1686 l 893 1686 l 1061 1292 l 850 1292 l 736 1492 l 621 1292 l 410 1292 z "},"ẅ":{"ha":1471,"x_min":14,"x_max":1457,"o":"m 683 318 l 628 0 l 247 0 l 14 1208 l 326 1208 l 422 576 q 428 535 425 561 q 435 480 432 508 q 439 433 438 451 q 443 379 442 401 q 447 335 444 357 q 450 281 449 313 q 450 243 450 261 l 450 208 l 472 208 l 472 321 q 474 354 472 338 q 474 388 474 371 q 475 449 474 419 q 482 517 476 479 q 485 547 483 532 q 489 576 486 563 l 596 1208 l 875 1208 l 982 576 q 989 522 986 553 q 994 453 992 490 q 997 388 997 419 q 999 354 997 371 q 999 321 999 338 l 999 208 l 1021 208 q 1022 260 1021 243 q 1023 295 1022 276 q 1026 356 1024 314 q 1029 402 1026 374 q 1035 459 1032 431 q 1040 507 1038 488 q 1044 542 1042 525 q 1049 576 1046 560 l 1144 1208 l 1457 1208 l 1224 0 l 843 0 l 788 318 q 774 407 779 360 q 763 504 768 454 q 753 602 757 549 q 750 701 750 656 q 749 749 749 724 q 747 792 747 771 l 725 792 q 723 704 725 758 q 718 604 721 650 q 713 547 714 568 q 709 509 711 526 q 704 469 707 492 q 697 407 701 446 q 683 318 692 360 m 364 1460 q 394 1558 364 1515 q 472 1615 424 1599 q 524 1624 497 1624 q 618 1593 575 1624 q 653 1558 640 1578 q 675 1513 667 1538 q 683 1460 683 1488 q 654 1361 683 1404 q 619 1324 642 1340 q 576 1300 597 1307 q 524 1292 553 1292 q 469 1301 490 1292 q 429 1325 447 1311 q 372 1407 390 1353 q 364 1460 364 1432 m 789 1460 q 819 1558 789 1515 q 897 1615 849 1599 q 949 1624 922 1624 q 1043 1593 1000 1624 q 1078 1558 1065 1578 q 1100 1513 1092 1538 q 1108 1460 1108 1488 q 1079 1361 1108 1404 q 1044 1324 1067 1340 q 1001 1300 1022 1307 q 949 1292 978 1292 q 894 1301 915 1292 q 854 1325 872 1311 q 797 1407 815 1353 q 789 1460 789 1432 z "},"ẁ":{"ha":1471,"x_min":14,"x_max":1457,"o":"m 683 318 l 628 0 l 247 0 l 14 1208 l 326 1208 l 422 576 q 428 535 425 561 q 435 480 432 508 q 439 433 438 451 q 443 379 442 401 q 447 335 444 357 q 450 281 449 313 q 450 243 450 261 l 450 208 l 472 208 l 472 321 q 474 354 472 338 q 474 388 474 371 q 475 449 474 419 q 482 517 476 479 q 485 547 483 532 q 489 576 486 563 l 596 1208 l 875 1208 l 982 576 q 989 522 986 553 q 994 453 992 490 q 997 388 997 419 q 999 354 997 371 q 999 321 999 338 l 999 208 l 1021 208 q 1022 260 1021 243 q 1023 295 1022 276 q 1026 356 1024 314 q 1029 402 1026 374 q 1035 459 1032 431 q 1040 507 1038 488 q 1044 542 1042 525 q 1049 576 1046 560 l 1144 1208 l 1457 1208 l 1224 0 l 843 0 l 788 318 q 774 407 779 360 q 763 504 768 454 q 753 602 757 549 q 750 701 750 656 q 749 749 749 724 q 747 792 747 771 l 725 792 q 723 704 725 758 q 718 604 721 650 q 713 547 714 568 q 709 509 711 526 q 704 469 707 492 q 697 407 701 446 q 683 318 692 360 m 674 1292 l 436 1694 l 717 1694 l 896 1292 l 674 1292 z "},"x":{"ha":1015,"x_min":35,"x_max":981,"o":"m 368 1208 l 482 921 q 489 903 485 913 q 494 886 493 894 q 497 869 496 869 q 497 868 497 869 q 501 847 497 867 q 501 838 501 842 l 501 828 l 524 828 q 524 847 524 840 q 528 867 525 854 q 536 904 531 885 q 539 913 538 908 q 542 921 540 917 l 654 1208 l 981 1208 l 692 604 l 981 0 l 654 0 l 533 290 q 528 302 531 300 q 521 326 526 304 q 517 344 518 335 q 514 364 515 354 q 513 374 513 368 l 513 382 l 490 382 q 490 363 490 369 q 488 344 489 356 q 483 324 485 333 q 479 306 482 315 q 476 297 478 301 q 474 289 475 293 l 368 0 l 35 0 l 324 604 l 35 1208 l 368 1208 z "},"y":{"ha":931,"x_min":14,"x_max":917,"o":"m 326 1208 l 429 564 q 438 497 433 540 q 446 424 443 454 q 451 350 449 379 q 456 276 453 321 q 456 242 456 258 l 456 208 l 478 208 q 478 261 478 244 q 480 294 479 278 q 483 350 481 311 q 486 395 483 368 q 492 450 489 422 q 497 497 494 478 q 501 531 499 514 q 506 564 503 549 l 611 1208 l 917 1208 l 603 -417 l 290 -417 l 401 0 l 247 0 l 14 1208 l 326 1208 z "},"ý":{"ha":931,"x_min":14,"x_max":917,"o":"m 326 1208 l 429 564 q 438 497 433 540 q 446 424 443 454 q 451 350 449 379 q 456 276 453 321 q 456 242 456 258 l 456 208 l 478 208 q 478 261 478 244 q 480 294 479 278 q 483 350 481 311 q 486 395 483 368 q 492 450 489 422 q 497 497 494 478 q 501 531 499 514 q 506 564 503 549 l 611 1208 l 917 1208 l 603 -417 l 290 -417 l 401 0 l 247 0 l 14 1208 l 326 1208 m 526 1292 l 304 1292 l 483 1694 l 764 1694 l 526 1292 z "},"ŷ":{"ha":931,"x_min":14,"x_max":917,"o":"m 326 1208 l 429 564 q 438 497 433 540 q 446 424 443 454 q 451 350 449 379 q 456 276 453 321 q 456 242 456 258 l 456 208 l 478 208 q 478 261 478 244 q 480 294 479 278 q 483 350 481 311 q 486 395 483 368 q 492 450 489 422 q 497 497 494 478 q 501 531 499 514 q 506 564 503 549 l 611 1208 l 917 1208 l 603 -417 l 290 -417 l 401 0 l 247 0 l 14 1208 l 326 1208 m 139 1292 l 307 1686 l 622 1686 l 790 1292 l 579 1292 l 465 1492 l 350 1292 l 139 1292 z "},"ÿ":{"ha":931,"x_min":14,"x_max":917,"o":"m 326 1208 l 429 564 q 438 497 433 540 q 446 424 443 454 q 451 350 449 379 q 456 276 453 321 q 456 242 456 258 l 456 208 l 478 208 q 478 261 478 244 q 480 294 479 278 q 483 350 481 311 q 486 395 483 368 q 492 450 489 422 q 497 497 494 478 q 501 531 499 514 q 506 564 503 549 l 611 1208 l 917 1208 l 603 -417 l 290 -417 l 401 0 l 247 0 l 14 1208 l 326 1208 m 93 1460 q 124 1558 93 1515 q 201 1615 153 1599 q 253 1624 226 1624 q 347 1593 304 1624 q 383 1558 369 1578 q 404 1513 396 1538 q 413 1460 413 1488 q 383 1361 413 1404 q 349 1324 371 1340 q 306 1300 326 1307 q 253 1292 282 1292 q 198 1301 219 1292 q 158 1325 176 1311 q 101 1407 119 1353 q 93 1460 93 1432 m 518 1460 q 549 1558 518 1515 q 626 1615 578 1599 q 678 1624 651 1624 q 772 1593 729 1624 q 808 1558 794 1578 q 829 1513 821 1538 q 838 1460 838 1488 q 808 1361 838 1404 q 774 1324 796 1340 q 731 1300 751 1307 q 678 1292 707 1292 q 623 1301 644 1292 q 583 1325 601 1311 q 526 1407 544 1353 q 518 1460 518 1432 z "},"ỳ":{"ha":931,"x_min":14,"x_max":917,"o":"m 326 1208 l 429 564 q 438 497 433 540 q 446 424 443 454 q 451 350 449 379 q 456 276 453 321 q 456 242 456 258 l 456 208 l 478 208 q 478 261 478 244 q 480 294 479 278 q 483 350 481 311 q 486 395 483 368 q 492 450 489 422 q 497 497 494 478 q 501 531 499 514 q 506 564 503 549 l 611 1208 l 917 1208 l 603 -417 l 290 -417 l 401 0 l 247 0 l 14 1208 l 326 1208 m 403 1292 l 165 1694 l 446 1694 l 625 1292 l 403 1292 z "},"z":{"ha":833,"x_min":42,"x_max":792,"o":"m 42 0 l 42 153 l 381 917 l 56 917 l 56 1208 l 778 1208 l 778 1056 l 438 292 l 792 292 l 792 0 l 42 0 z "},"ź":{"ha":833,"x_min":42,"x_max":792,"o":"m 42 0 l 42 153 l 381 917 l 56 917 l 56 1208 l 778 1208 l 778 1056 l 438 292 l 792 292 l 792 0 l 42 0 m 478 1292 l 256 1292 l 435 1694 l 715 1694 l 478 1292 z "},"ž":{"ha":833,"x_min":42,"x_max":792,"o":"m 42 0 l 42 153 l 381 917 l 56 917 l 56 1208 l 778 1208 l 778 1056 l 438 292 l 792 292 l 792 0 l 42 0 m 258 1292 l 90 1686 l 301 1686 l 415 1486 l 531 1686 l 742 1686 l 574 1292 l 258 1292 z "},"ż":{"ha":833,"x_min":42,"x_max":792,"o":"m 42 0 l 42 153 l 381 917 l 56 917 l 56 1208 l 778 1208 l 778 1056 l 438 292 l 792 292 l 792 0 l 42 0 m 243 1474 q 276 1581 243 1533 q 313 1619 290 1603 q 361 1643 336 1636 q 417 1651 388 1651 q 471 1644 444 1651 q 521 1619 497 1636 q 582 1532 565 1586 q 590 1474 590 1504 q 542 1344 590 1397 q 417 1292 493 1292 q 314 1326 357 1292 q 276 1365 292 1343 q 251 1417 261 1386 q 243 1474 243 1443 z "},"ﬀ":{"ha":1389,"x_min":14,"x_max":1361,"o":"m 806 0 l 806 917 l 438 917 l 438 0 l 125 0 l 125 917 l 14 917 l 14 1208 l 228 1208 l 228 1231 q 176 1260 200 1242 q 135 1299 151 1279 q 83 1397 97 1342 q 78 1426 79 1411 q 76 1456 76 1440 q 92 1539 76 1507 q 125 1589 108 1571 q 183 1632 149 1615 q 264 1658 218 1649 q 311 1665 286 1663 q 364 1667 336 1667 l 653 1667 l 639 1368 l 465 1368 q 418 1356 436 1368 q 401 1339 407 1347 q 392 1317 396 1331 q 388 1289 388 1306 q 401 1240 388 1258 q 439 1213 415 1219 q 465 1208 449 1208 l 908 1208 l 908 1231 q 856 1260 881 1242 q 815 1299 832 1279 q 764 1397 778 1342 q 758 1426 760 1411 q 757 1456 757 1440 q 773 1539 757 1507 q 806 1589 789 1571 q 864 1632 829 1615 q 944 1658 899 1649 q 992 1665 967 1663 q 1044 1667 1017 1667 l 1361 1667 l 1347 1368 l 1146 1368 q 1099 1356 1117 1368 q 1082 1339 1088 1347 q 1072 1317 1076 1331 q 1068 1289 1068 1306 q 1082 1240 1068 1258 q 1119 1213 1096 1219 q 1146 1208 1129 1208 l 1347 1208 l 1347 917 l 1118 917 l 1118 0 l 806 0 z "},"ﬃ":{"ha":1739,"x_min":14,"x_max":1669,"o":"m 125 0 l 125 917 l 14 917 l 14 1208 l 228 1208 l 228 1231 q 176 1260 200 1242 q 135 1299 151 1279 q 83 1397 97 1342 q 78 1426 79 1411 q 76 1456 76 1440 q 92 1539 76 1507 q 125 1589 108 1571 q 183 1632 149 1615 q 264 1658 218 1649 q 311 1665 286 1663 q 364 1667 336 1667 l 653 1667 l 639 1368 l 465 1368 q 418 1356 436 1368 q 401 1339 407 1347 q 392 1317 396 1331 q 388 1289 388 1306 q 401 1240 388 1258 q 439 1213 415 1219 q 465 1208 449 1208 l 904 1208 l 904 1231 q 852 1260 876 1242 q 811 1299 828 1279 q 760 1397 774 1342 q 754 1426 756 1411 q 753 1456 753 1440 q 769 1539 753 1507 q 801 1589 785 1571 q 860 1632 825 1615 q 940 1658 894 1649 q 988 1665 963 1663 q 1040 1667 1013 1667 l 1371 1667 l 1357 1368 l 1142 1368 q 1094 1356 1113 1368 q 1078 1339 1083 1347 q 1068 1317 1072 1331 q 1064 1289 1064 1306 q 1078 1240 1064 1258 q 1115 1213 1092 1219 q 1142 1208 1125 1208 l 1669 1208 l 1669 0 l 1357 0 l 1357 917 l 1114 917 l 1114 0 l 801 0 l 801 917 l 438 917 l 438 0 l 125 0 z "},"ﬄ":{"ha":1813,"x_min":14,"x_max":1743,"o":"m 908 1208 l 908 1231 q 856 1260 881 1242 q 815 1299 832 1279 q 764 1397 778 1342 q 758 1426 760 1411 q 757 1456 757 1440 q 773 1539 757 1507 q 806 1589 789 1571 q 864 1632 829 1615 q 944 1658 899 1649 q 992 1665 967 1663 q 1044 1667 1017 1667 l 1743 1667 l 1743 0 l 1431 0 l 1431 1368 l 1146 1368 q 1099 1356 1117 1368 q 1082 1339 1088 1347 q 1072 1317 1076 1331 q 1068 1289 1068 1306 q 1082 1240 1068 1258 q 1119 1213 1096 1219 q 1146 1208 1129 1208 l 1347 1208 l 1347 917 l 1118 917 l 1118 0 l 806 0 l 806 917 l 438 917 l 438 0 l 125 0 l 125 917 l 14 917 l 14 1208 l 228 1208 l 228 1231 q 176 1260 200 1242 q 135 1299 151 1279 q 83 1397 97 1342 q 78 1426 79 1411 q 76 1456 76 1440 q 92 1539 76 1507 q 125 1589 108 1571 q 183 1632 149 1615 q 264 1658 218 1649 q 311 1665 286 1663 q 364 1667 336 1667 l 681 1667 l 667 1368 l 465 1368 q 418 1356 436 1368 q 401 1339 407 1347 q 392 1317 396 1331 q 388 1289 388 1306 q 401 1240 388 1258 q 439 1213 415 1219 q 465 1208 449 1208 l 908 1208 z "},"ﬁ":{"ha":1063,"x_min":14,"x_max":993,"o":"m 125 0 l 125 917 l 14 917 l 14 1208 l 228 1208 l 228 1231 q 176 1260 200 1242 q 135 1299 151 1279 q 83 1397 97 1342 q 78 1426 79 1411 q 76 1456 76 1440 q 92 1539 76 1507 q 125 1589 108 1571 q 183 1632 149 1615 q 264 1658 218 1649 q 311 1665 286 1663 q 364 1667 336 1667 l 694 1667 l 681 1368 l 465 1368 q 418 1356 436 1368 q 401 1339 407 1347 q 392 1317 396 1331 q 388 1289 388 1306 q 401 1240 388 1258 q 439 1213 415 1219 q 465 1208 449 1208 l 993 1208 l 993 0 l 681 0 l 681 917 l 438 917 l 438 0 l 125 0 z "},"ﬂ":{"ha":1118,"x_min":14,"x_max":1049,"o":"m 125 0 l 125 917 l 14 917 l 14 1208 l 228 1208 l 228 1231 q 176 1260 200 1242 q 135 1299 151 1279 q 83 1397 97 1342 q 78 1426 79 1411 q 76 1456 76 1440 q 92 1539 76 1507 q 125 1589 108 1571 q 183 1632 149 1615 q 264 1658 218 1649 q 311 1665 286 1663 q 364 1667 336 1667 l 1049 1667 l 1049 0 l 736 0 l 736 1368 l 465 1368 q 418 1356 436 1368 q 401 1339 407 1347 q 392 1317 396 1331 q 388 1289 388 1306 q 401 1240 388 1258 q 439 1213 415 1219 q 465 1208 449 1208 l 653 1208 l 653 917 l 438 917 l 438 0 l 125 0 z "},"ﬅ":{"ha":1160,"x_min":69,"x_max":1118,"o":"m 875 1667 l 875 1419 q 751 1203 875 1265 l 751 1181 q 883 1208 813 1208 l 1104 1208 l 1104 917 l 875 917 l 875 340 q 917 299 875 299 l 1104 299 l 1118 0 l 840 0 q 740 11 785 0 q 663 44 696 22 q 607 99 629 64 q 574 175 585 133 q 563 275 563 219 l 563 917 l 451 917 l 451 1208 l 563 1208 l 563 1368 l 424 1368 q 382 1326 382 1368 l 382 0 l 69 0 l 69 1389 q 114 1567 69 1500 q 247 1656 158 1633 q 347 1667 292 1667 l 875 1667 z "},"ª":{"ha":715,"x_min":42,"x_max":646,"o":"m 42 1124 q 96 1247 42 1200 q 265 1319 151 1294 q 326 1329 293 1325 q 396 1338 358 1333 l 396 1431 q 383 1478 396 1463 q 349 1494 369 1494 q 319 1488 333 1494 q 310 1476 317 1486 q 304 1457 304 1467 q 302 1444 303 1451 q 301 1429 301 1438 l 301 1369 l 58 1369 l 58 1428 q 139 1604 58 1542 q 364 1667 219 1667 q 454 1659 407 1667 q 539 1633 501 1651 q 594 1595 568 1618 q 633 1539 621 1572 q 642 1506 639 1524 q 646 1471 646 1489 l 646 964 l 396 964 q 397 978 396 971 q 400 994 397 985 q 405 1008 403 1001 q 414 1025 407 1014 q 419 1033 417 1029 q 424 1039 421 1036 l 415 1046 q 387 1016 400 1028 q 353 990 374 1004 q 271 961 318 969 q 249 958 260 958 q 225 957 238 957 q 163 965 194 957 q 111 988 132 972 q 72 1022 85 1004 q 50 1068 60 1040 q 42 1124 42 1093 m 292 1151 q 339 1108 292 1108 q 347 1109 343 1108 q 356 1110 351 1110 q 366 1112 360 1110 q 379 1117 372 1114 q 387 1121 386 1119 q 396 1126 388 1122 l 396 1229 q 356 1217 378 1225 q 328 1203 335 1208 q 309 1190 317 1196 q 296 1171 301 1183 q 292 1151 292 1164 z "},"º":{"ha":774,"x_min":35,"x_max":739,"o":"m 386 951 q 285 967 339 951 q 179 1021 231 982 q 102 1098 135 1053 q 53 1197 69 1143 q 40 1252 44 1224 q 35 1310 35 1281 q 53 1421 35 1367 q 103 1519 71 1475 q 171 1591 128 1556 q 275 1649 214 1626 q 386 1667 329 1667 q 594 1597 501 1667 q 669 1520 635 1567 q 721 1422 704 1474 q 734 1367 729 1396 q 739 1310 739 1339 q 721 1197 739 1251 q 671 1097 703 1143 q 585 1013 632 1043 q 497 969 538 982 q 443 956 471 961 q 386 951 415 951 m 388 1183 q 428 1192 411 1183 q 456 1207 446 1200 q 497 1269 486 1231 q 503 1308 503 1286 q 497 1351 503 1333 q 481 1383 490 1368 q 456 1410 468 1400 q 424 1428 443 1419 q 388 1433 408 1433 q 304 1397 338 1433 q 271 1308 271 1360 q 276 1269 271 1289 q 293 1235 282 1250 q 351 1190 315 1203 q 388 1183 367 1183 z "},"Δ":{"ha":1264,"x_min":42,"x_max":1222,"o":"m 42 210 l 475 1653 l 789 1653 l 1222 210 l 1222 0 l 42 0 l 42 210 m 392 306 l 872 306 l 632 1256 l 392 306 z "},"Ω":{"ha":1810,"x_min":28,"x_max":1782,"o":"m 1043 0 l 1043 215 q 1179 313 1121 264 q 1283 422 1238 363 q 1356 541 1325 475 q 1400 674 1386 607 q 1414 817 1414 740 q 1388 990 1414 907 q 1315 1138 1361 1072 q 1065 1322 1218 1271 q 907 1347 990 1347 q 749 1323 822 1347 q 607 1250 675 1299 q 494 1135 543 1204 q 422 988 446 1065 q 403 901 410 946 q 396 810 396 857 q 413 669 396 739 q 457 540 429 600 q 533 417 490 472 q 636 306 575 361 q 698 256 665 279 q 767 210 731 232 l 767 0 l 28 0 l 28 306 l 257 306 q 117 555 165 419 q 69 838 69 690 q 113 1097 69 975 q 233 1325 156 1219 q 416 1506 310 1429 q 644 1624 522 1582 q 772 1656 706 1644 q 906 1667 838 1667 q 1169 1623 1046 1667 q 1396 1506 1293 1579 q 1577 1325 1497 1432 q 1697 1099 1657 1218 q 1729 973 1718 1038 q 1740 840 1740 908 q 1733 721 1740 781 q 1711 607 1725 661 q 1675 499 1694 550 q 1626 399 1656 449 q 1597 351 1613 374 q 1565 306 1582 328 l 1782 306 l 1782 0 l 1043 0 z "},"μ":{"ha":944,"x_min":69,"x_max":875,"o":"m 69 -403 l 69 1208 l 382 1208 l 382 349 q 396 299 382 322 q 411 283 401 289 q 432 274 421 276 q 454 271 442 271 q 499 281 475 271 q 542 304 519 288 q 553 313 547 308 q 563 321 557 317 l 563 1208 l 875 1208 l 875 0 l 563 0 q 565 28 563 14 q 574 61 568 42 q 583 94 576 75 q 597 128 590 114 q 606 142 601 135 q 613 154 608 149 l 601 163 q 571 109 582 128 q 536 64 560 90 q 494 25 517 42 q 442 -3 472 8 q 382 -14 413 -14 l 382 -403 l 69 -403 z "},"π":{"ha":1138,"x_min":0,"x_max":1124,"o":"m 676 347 l 676 917 l 471 917 l 471 0 l 158 0 l 158 917 l 0 917 l 0 1208 l 989 1208 l 989 333 q 1031 292 989 292 l 1124 292 l 1124 0 l 1024 0 q 676 347 676 0 z "},"⁄":{"ha":1465,"x_min":35,"x_max":1431,"o":"m 361 0 l 35 0 l 1104 1667 l 1431 1667 l 361 0 z "},"½":{"ha":1488,"x_min":-7,"x_max":1446,"o":"m 306 0 l -7 0 l 1063 1667 l 1375 1667 l 306 0 m 21 1653 l 404 1653 l 404 826 l 154 826 l 154 1417 l 21 1417 l 21 1653 m 858 0 l 858 122 q 889 214 858 167 q 931 265 904 239 q 990 321 957 290 q 1029 353 1008 336 q 1074 388 1050 369 q 1154 461 1126 429 q 1175 493 1168 476 q 1186 525 1182 510 q 1188 542 1188 533 q 1189 561 1189 551 q 1187 590 1189 576 q 1183 608 1185 604 q 1164 633 1175 625 q 1147 636 1157 636 q 1104 558 1104 636 l 1104 525 l 868 525 l 868 588 q 906 733 868 671 q 1040 826 946 800 q 1153 840 1088 840 q 1325 806 1254 840 q 1384 761 1358 788 q 1425 692 1410 735 q 1439 603 1439 653 q 1433 543 1439 572 q 1414 485 1428 514 q 1376 421 1394 447 q 1315 350 1357 394 q 1276 309 1297 331 q 1231 265 1256 288 l 1199 236 l 1446 236 l 1446 0 l 858 0 z "},"¼":{"ha":1517,"x_min":-7,"x_max":1475,"o":"m 306 0 l -7 0 l 1063 1667 l 1375 1667 l 306 0 m 21 1653 l 404 1653 l 404 826 l 154 826 l 154 1417 l 21 1417 l 21 1653 m 853 164 l 853 325 l 992 826 l 1419 826 l 1419 358 l 1475 358 l 1475 164 l 1419 164 l 1419 0 l 1183 0 l 1183 164 l 853 164 m 1083 358 l 1183 358 l 1183 714 l 1083 358 z "}}}
